<svg width="24" height="24" viewBox="0 0 24 24" fill="none" xmlns="http://www.w3.org/2000/svg">
<path d="M19.7747 8.88293C18.8282 4.82634 15.1955 3 12.0045 3C12.0045 3 12.0045 3 11.9955 3C8.81351 3 5.17181 4.81756 4.22533 8.87415C3.17068 13.4049 6.01914 17.242 8.59717 19.6566C9.55267 20.5522 10.7786 21 12.0045 21C13.2304 21 14.4563 20.5522 15.4028 19.6566C17.9809 17.242 20.8293 13.4137 19.7747 8.88293ZM12.0045 13.282C10.4361 13.282 9.16506 12.0439 9.16506 10.5161C9.16506 8.98829 10.4361 7.75024 12.0045 7.75024C13.573 7.75024 14.8439 8.98829 14.8439 10.5161C14.8439 12.0439 13.573 13.282 12.0045 13.282Z" fill="#11243D"/>
</svg>
