<svg width="24" height="24" viewBox="0 0 24 24" fill="none" xmlns="http://www.w3.org/2000/svg">
<path d="M21.25 22H2.75C2.34 22 2 21.66 2 21.25C2 20.84 2.34 20.5 2.75 20.5H21.25C21.66 20.5 22 20.84 22 21.25C22 21.66 21.66 22 21.25 22Z" fill="#11243D"/>
<path d="M20.5004 8.40619L7.78949 20.4921L2.71 15.42C1.3 14.01 1.3 11.72 2.72 10.3L9.95 3.06998C11.37 1.64998 13.66 1.64998 15.07 3.05998L20.5004 8.40619Z" fill="#11243D"/>
<path d="M20.5899 13.7L13.3599 20.93C11.9399 22.35 9.64988 22.35 8.23988 20.94L3.62988 16.33L15.9899 3.96997L20.5999 8.57997C22.0099 9.98997 22.0099 12.28 20.5899 13.7Z" fill="#BCC2CA"/>
<path d="M12.89 17.6L11.54 18.95C11.26 19.23 10.81 19.23 10.53 18.95C10.25 18.67 10.25 18.22 10.53 17.94L11.88 16.59C12.16 16.31 12.61 16.31 12.89 16.59C13.17 16.87 13.17 17.32 12.89 17.6Z" fill="#11243D"/>
<path d="M17.27 13.22L14.58 15.91C14.3 16.19 13.85 16.19 13.57 15.91C13.29 15.63 13.29 15.18 13.57 14.9L16.26 12.21C16.54 11.93 16.99 11.93 17.27 12.21C17.54 12.49 17.54 12.94 17.27 13.22Z" fill="#11243D"/>
</svg>
