<svg width="24" height="24" viewBox="0 0 24 24" fill="none" xmlns="http://www.w3.org/2000/svg">
<path d="M19.0093 4.9917C16.3459 2.3361 12.027 2.3361 9.38171 4.9917C7.51918 6.83712 6.96132 9.49272 7.68114 11.8333L3.45221 16.0642C3.15529 16.3703 2.94834 16.9734 3.01133 17.4055L3.28126 19.368C3.38023 20.0161 3.98308 20.6282 4.63091 20.7183L6.59241 20.9883C7.0243 21.0513 7.62715 20.8533 7.93307 20.5382L8.67089 19.8001C8.85084 19.629 8.85084 19.341 8.67089 19.1609L6.92533 17.4145C6.6644 17.1535 6.6644 16.7214 6.92533 16.4603C7.18626 16.1992 7.61815 16.1992 7.87909 16.4603L9.63364 18.2157C9.8046 18.3867 10.0925 18.3867 10.2635 18.2157L12.171 16.3163C14.5014 17.0454 17.1557 16.4783 19.0093 14.6329C21.6636 11.9773 21.6636 7.6473 19.0093 4.9917ZM14.2495 11.9953C13.0078 11.9953 12 10.9871 12 9.74478C12 8.5025 13.0078 7.49427 14.2495 7.49427C15.4911 7.49427 16.4989 8.5025 16.4989 9.74478C16.4989 10.9871 15.4911 11.9953 14.2495 11.9953Z" fill="#11243D"/>
</svg>
