<svg width="26" height="27" viewBox="0 0 26 27" fill="none" xmlns="http://www.w3.org/2000/svg">
<path d="M20.3804 8.10829C22.2014 8.65197 23.6409 9.73412 24.6938 11.339C25.7163 12.9021 26.174 14.6378 25.9401 16.5145C25.5586 19.5832 23.9309 21.7162 21.1739 22.9394C20.3245 23.3158 19.4292 23.5406 18.4933 23.5145C18.3204 23.5093 18.3305 23.6086 18.3305 23.7236C18.3305 24.3666 18.3254 25.0096 18.3356 25.6527C18.3407 26.0238 18.2797 26.348 17.9338 26.5414C17.5777 26.74 17.2725 26.5989 16.9673 26.3898C15.6346 25.4697 14.2969 24.5601 12.9591 23.64C12.8268 23.5459 12.6946 23.5093 12.5369 23.5093C11.1991 23.4936 9.86137 23.5825 8.52868 23.4675C6.34654 23.274 4.55606 22.2755 3.18777 20.519C1.90595 18.8722 1.36677 16.9746 1.58041 14.873C1.76861 12.9962 2.54178 11.3913 3.85411 10.0792C5.16137 8.76176 6.73821 8.01419 8.56938 7.8469C8.61007 7.84167 8.65076 7.82599 8.69145 7.8103C12.074 7.8103 15.4617 7.8103 18.8443 7.8103C19.3529 7.9044 19.8718 7.95668 20.3804 8.10829Z" fill="#DB0007"/>
<g filter="url(#filter0_bi_352_7134)">
<path d="M7.16086 0C10.5434 0 13.9311 0 17.3137 0C17.3544 0.0104555 17.3951 0.0313666 17.4358 0.0365943C19.2669 0.203883 20.8387 0.951453 22.151 2.26885C23.4634 3.58625 24.2365 5.18594 24.4247 7.06271C24.6333 9.16427 24.0992 11.0619 22.8123 12.7139C21.444 14.4652 19.6586 15.4689 17.4714 15.6624C16.1387 15.7826 14.8009 15.6937 13.4631 15.7042C13.3055 15.7042 13.1732 15.7408 13.041 15.8349C11.7083 16.755 10.3654 17.6646 9.03272 18.5847C8.72753 18.7938 8.42233 18.9402 8.06627 18.7363C7.72038 18.5429 7.65934 18.2135 7.66443 17.8476C7.6746 17.2046 7.66443 16.5616 7.66952 15.9185C7.66952 15.7983 7.67969 15.7042 7.50675 15.7094C6.57081 15.7303 5.67049 15.5108 4.82612 15.1344C2.06919 13.9058 0.436393 11.7729 0.0599858 8.699C-0.173997 6.82746 0.283796 5.08661 1.3062 3.52351C2.35912 1.91859 3.80371 0.836442 5.61962 0.292755C6.12319 0.146377 6.64711 0.0940997 7.16086 0Z" fill="#FFBC0D" fill-opacity="0.6"/>
</g>
<ellipse cx="6.34184" cy="7.79697" rx="1.90263" ry="1.94932" fill="white"/>
<ellipse cx="12.0501" cy="7.79697" rx="1.90263" ry="1.94932" fill="white"/>
<ellipse cx="17.7576" cy="7.79697" rx="1.90263" ry="1.94932" fill="white"/>
<defs>
<filter id="filter0_bi_352_7134" x="-4" y="-4" width="32.4685" height="26.834" filterUnits="userSpaceOnUse" color-interpolation-filters="sRGB">
<feFlood flood-opacity="0" result="BackgroundImageFix"/>
<feGaussianBlur in="BackgroundImage" stdDeviation="2"/>
<feComposite in2="SourceAlpha" operator="in" result="effect1_backgroundBlur_352_7134"/>
<feBlend mode="normal" in="SourceGraphic" in2="effect1_backgroundBlur_352_7134" result="shape"/>
<feColorMatrix in="SourceAlpha" type="matrix" values="0 0 0 0 0 0 0 0 0 0 0 0 0 0 0 0 0 0 127 0" result="hardAlpha"/>
<feOffset dx="0.2" dy="0.1"/>
<feGaussianBlur stdDeviation="0.5"/>
<feComposite in2="hardAlpha" operator="arithmetic" k2="-1" k3="1"/>
<feColorMatrix type="matrix" values="0 0 0 0 1 0 0 0 0 1 0 0 0 0 1 0 0 0 0.6 0"/>
<feBlend mode="normal" in2="shape" result="effect2_innerShadow_352_7134"/>
</filter>
</defs>
</svg>
