<svg width="38" height="33" viewBox="0 0 38 33" fill="none" xmlns="http://www.w3.org/2000/svg">
<path d="M14.85 3.95V18.51C14.85 18.51 11.07 18.51 9 18.51C6.93 18.51 2.5 18.51 2.5 18.51V7.84002C2.5 6.65002 3.23 5.58997 4.34 5.16997L12.28 2.16997C13.52 1.70997 14.85 2.62 14.85 3.95Z" fill="url(#paint0_linear_8092_20058)"/>
<g filter="url(#filter0_b_8092_20058)">
<path d="M18.04 13.55C17.62 13.96 17.38 14.55 17.44 15.18C17.53 16.26 18.52 17.05 19.6 17.05H21.5V18.24C21.5 20.31 19.81 22 17.74 22H6.26C4.19 22 2.5 20.31 2.5 18.24V11.51C2.5 9.44001 4.19 7.75 6.26 7.75H17.74C19.81 7.75 21.5 9.44001 21.5 11.51V12.95H19.48C18.92 12.95 18.41 13.17 18.04 13.55Z" fill="#FFCBB9" fill-opacity="0.35"/>
</g>
<g filter="url(#filter1_bd_8092_20058)">
<path d="M22.56 13.97V16.03C22.56 16.58 22.12 17.03 21.56 17.05H19.6C18.52 17.05 17.53 16.26 17.44 15.18C17.38 14.55 17.62 13.96 18.04 13.55C18.41 13.17 18.92 12.95 19.48 12.95H21.56C22.12 12.97 22.56 13.42 22.56 13.97Z" fill="url(#paint1_linear_8092_20058)"/>
<path d="M17.6393 15.1634L17.6393 15.1634L17.6391 15.161C17.5851 14.5943 17.8008 14.063 18.1797 13.6931L18.1798 13.6931L18.1833 13.6895C18.5154 13.3485 18.9736 13.15 19.48 13.15H21.5562C22.0098 13.168 22.36 13.5315 22.36 13.97V16.03C22.36 16.4685 22.0098 16.832 21.5563 16.85H19.6C18.6082 16.85 17.7194 16.1247 17.6393 15.1634Z" stroke="url(#paint2_linear_8092_20058)" stroke-width="0.4"/>
</g>
<g filter="url(#filter2_bd_8092_20058)">
<path d="M14 12.75H7C6.59 12.75 6.25 12.41 6.25 12C6.25 11.59 6.59 11.25 7 11.25H14C14.41 11.25 14.75 11.59 14.75 12C14.75 12.41 14.41 12.75 14 12.75Z" fill="url(#paint3_linear_8092_20058)"/>
<path d="M14 12.55H7C6.70046 12.55 6.45 12.2995 6.45 12C6.45 11.7005 6.70046 11.45 7 11.45H14C14.2995 11.45 14.55 11.7005 14.55 12C14.55 12.2995 14.2995 12.55 14 12.55Z" stroke="url(#paint4_linear_8092_20058)" stroke-width="0.4"/>
</g>
<defs>
<filter id="filter0_b_8092_20058" x="-7.5" y="-2.25" width="39" height="34.25" filterUnits="userSpaceOnUse" color-interpolation-filters="sRGB">
<feFlood flood-opacity="0" result="BackgroundImageFix"/>
<feGaussianBlur in="BackgroundImage" stdDeviation="5"/>
<feComposite in2="SourceAlpha" operator="in" result="effect1_backgroundBlur_8092_20058"/>
<feBlend mode="normal" in="SourceGraphic" in2="effect1_backgroundBlur_8092_20058" result="shape"/>
</filter>
<filter id="filter1_bd_8092_20058" x="2.43088" y="-2.04999" width="35.1291" height="34.1" filterUnits="userSpaceOnUse" color-interpolation-filters="sRGB">
<feFlood flood-opacity="0" result="BackgroundImageFix"/>
<feGaussianBlur in="BackgroundImage" stdDeviation="7.5"/>
<feComposite in2="SourceAlpha" operator="in" result="effect1_backgroundBlur_8092_20058"/>
<feColorMatrix in="SourceAlpha" type="matrix" values="0 0 0 0 0 0 0 0 0 0 0 0 0 0 0 0 0 0 127 0" result="hardAlpha"/>
<feOffset dx="5" dy="5"/>
<feGaussianBlur stdDeviation="5"/>
<feColorMatrix type="matrix" values="0 0 0 0 1 0 0 0 0 0.580392 0 0 0 0 0.247059 0 0 0 0.5 0"/>
<feBlend mode="normal" in2="effect1_backgroundBlur_8092_20058" result="effect2_dropShadow_8092_20058"/>
<feBlend mode="normal" in="SourceGraphic" in2="effect2_dropShadow_8092_20058" result="shape"/>
</filter>
<filter id="filter2_bd_8092_20058" x="-8.75" y="-3.75" width="38.5" height="31.5" filterUnits="userSpaceOnUse" color-interpolation-filters="sRGB">
<feFlood flood-opacity="0" result="BackgroundImageFix"/>
<feGaussianBlur in="BackgroundImage" stdDeviation="7.5"/>
<feComposite in2="SourceAlpha" operator="in" result="effect1_backgroundBlur_8092_20058"/>
<feColorMatrix in="SourceAlpha" type="matrix" values="0 0 0 0 0 0 0 0 0 0 0 0 0 0 0 0 0 0 127 0" result="hardAlpha"/>
<feOffset dx="5" dy="5"/>
<feGaussianBlur stdDeviation="5"/>
<feColorMatrix type="matrix" values="0 0 0 0 1 0 0 0 0 0.580392 0 0 0 0 0.247059 0 0 0 0.5 0"/>
<feBlend mode="normal" in2="effect1_backgroundBlur_8092_20058" result="effect2_dropShadow_8092_20058"/>
<feBlend mode="normal" in="SourceGraphic" in2="effect2_dropShadow_8092_20058" result="shape"/>
</filter>
<linearGradient id="paint0_linear_8092_20058" x1="7.98765" y1="2.041" x2="7.98765" y2="18.5018" gradientUnits="userSpaceOnUse">
<stop stop-color="#FF7F7F"/>
<stop offset="1" stop-color="#FF0D0D"/>
</linearGradient>
<linearGradient id="paint1_linear_8092_20058" x1="23.8127" y1="15" x2="20.2067" y2="12.1396" gradientUnits="userSpaceOnUse">
<stop stop-color="#FEDBD0"/>
<stop offset="1" stop-color="white"/>
</linearGradient>
<linearGradient id="paint2_linear_8092_20058" x1="18.2474" y1="13.4277" x2="20.6853" y2="17.205" gradientUnits="userSpaceOnUse">
<stop stop-color="white" stop-opacity="0.25"/>
<stop offset="1" stop-color="white" stop-opacity="0"/>
</linearGradient>
<linearGradient id="paint3_linear_8092_20058" x1="14.1474" y1="11.5209" x2="4.98196" y2="13.2143" gradientUnits="userSpaceOnUse">
<stop stop-color="white"/>
<stop offset="1" stop-color="white" stop-opacity="0.2"/>
</linearGradient>
<linearGradient id="paint4_linear_8092_20058" x1="7.60306" y1="11.4248" x2="7.87644" y2="13.3434" gradientUnits="userSpaceOnUse">
<stop stop-color="white" stop-opacity="0.25"/>
<stop offset="1" stop-color="white" stop-opacity="0"/>
</linearGradient>
</defs>
</svg>
