<?xml version="1.0" standalone="no"?>
<!DOCTYPE svg PUBLIC "-//W3C//DTD SVG 20010904//EN"
 "http://www.w3.org/TR/2001/REC-SVG-20010904/DTD/svg10.dtd">
<svg version="1.0" xmlns="http://www.w3.org/2000/svg"
 width="512.000000pt" height="512.000000pt" viewBox="0 0 512.000000 512.000000"
 preserveAspectRatio="xMidYMid meet">

<g transform="translate(0.000000,512.000000) scale(0.100000,-0.100000)"
fill="#000000" stroke="none">
<path d="M2201 5103 c-17 -14 -31 -59 -66 -208 -24 -104 -47 -199 -49 -211 -4
-16 -19 -24 -63 -34 -147 -32 -359 -117 -516 -206 l-97 -55 -38 22 c-20 13
-97 60 -170 106 -161 101 -169 105 -207 88 -17 -7 -132 -116 -257 -242 -206
-206 -228 -232 -228 -262 0 -25 26 -76 104 -200 56 -91 106 -172 110 -179 4
-7 -14 -50 -43 -101 -87 -151 -146 -294 -201 -481 -15 -52 -34 -98 -41 -102
-8 -4 -102 -28 -209 -52 -154 -36 -199 -50 -212 -67 -16 -19 -18 -52 -18 -359
0 -307 2 -340 18 -359 13 -17 58 -31 212 -67 107 -24 202 -47 211 -50 10 -3
20 -20 24 -42 24 -128 122 -378 211 -534 32 -57 52 -103 48 -111 -4 -6 -54
-87 -111 -179 -76 -123 -103 -175 -103 -199 0 -30 24 -57 238 -271 214 -214
241 -238 271 -238 24 0 76 27 199 103 92 57 173 107 180 111 7 4 49 -13 101
-43 155 -89 415 -193 544 -216 26 -5 39 -13 42 -29 3 -11 26 -106 50 -211 35
-149 49 -194 66 -207 19 -16 52 -18 359 -18 307 0 340 2 359 18 17 13 31 59
67 212 25 107 47 202 50 211 3 10 20 20 42 24 128 24 378 122 534 211 56 31
103 52 111 48 6 -4 87 -54 178 -110 111 -69 176 -104 195 -104 25 0 67 38 272
243 203 203 242 247 242 271 0 19 -35 85 -104 195 -56 91 -106 172 -110 179
-4 7 14 50 43 101 89 155 193 415 216 544 5 26 13 39 29 43 11 2 106 25 211
49 151 34 193 48 207 65 16 20 18 51 18 360 0 307 -2 340 -18 359 -17 21 -44
29 -418 116 -16 3 -24 18 -34 62 -32 147 -117 359 -206 515 -31 56 -52 103
-48 111 4 6 54 87 110 178 78 124 104 175 104 200 0 30 -22 56 -227 262 -126
126 -241 235 -258 242 -17 8 -38 10 -50 5 -11 -4 -89 -51 -173 -104 -84 -52
-161 -100 -172 -106 -16 -8 -37 0 -118 45 -156 87 -410 189 -524 210 -21 4
-41 12 -46 19 -5 6 -29 99 -53 206 -34 149 -49 200 -66 218 -22 22 -23 22
-361 22 -309 0 -342 -2 -361 -17z m667 -323 c30 -134 50 -202 64 -217 13 -14
47 -27 96 -38 175 -39 397 -130 561 -229 56 -33 106 -56 122 -56 19 0 86 36
197 105 93 58 173 105 178 105 5 0 90 -81 188 -179 119 -119 177 -184 173
-194 -3 -8 -51 -88 -107 -177 -60 -96 -102 -173 -102 -189 0 -15 25 -67 58
-121 99 -162 197 -408 233 -582 7 -32 21 -64 32 -74 14 -12 91 -35 217 -65
l197 -46 0 -263 0 -263 -197 -46 c-111 -26 -206 -53 -217 -63 -11 -9 -24 -41
-31 -75 -34 -168 -156 -463 -257 -620 -20 -31 -36 -69 -36 -83 0 -14 42 -93
102 -189 56 -90 105 -170 108 -178 4 -10 -54 -75 -173 -194 -98 -98 -183 -179
-188 -179 -5 0 -86 48 -180 107 -100 62 -182 106 -196 106 -14 0 -52 -16 -83
-36 -157 -101 -452 -223 -620 -257 -34 -7 -66 -20 -75 -31 -10 -11 -37 -106
-63 -217 l-46 -197 -263 0 -263 0 -46 197 c-25 109 -53 206 -62 216 -10 12
-53 28 -110 42 -189 45 -403 135 -576 242 -38 22 -79 41 -93 41 -14 0 -94 -43
-189 -102 -90 -56 -170 -105 -178 -108 -10 -4 -75 54 -194 173 -98 98 -179
183 -179 188 0 5 48 86 106 179 62 100 106 180 106 196 1 15 -15 53 -36 85
-100 156 -222 451 -256 619 -7 33 -20 66 -31 75 -11 10 -107 37 -217 63 l-197
46 0 263 0 263 197 46 c111 26 206 53 217 63 11 9 24 41 31 75 35 169 139 428
241 593 28 47 52 96 52 110 0 15 -44 96 -106 196 -59 94 -107 175 -107 180 0
19 358 367 372 361 8 -3 88 -50 177 -106 111 -69 172 -101 192 -101 17 0 54
15 87 37 152 98 447 219 615 253 32 6 66 20 75 31 11 11 34 89 61 206 23 104
44 194 46 201 4 10 62 12 266 10 l262 -3 45 -195z"/>
<path d="M2357 3905 c-576 -94 -1019 -521 -1134 -1093 -24 -120 -24 -384 0
-504 84 -418 354 -775 730 -965 108 -54 289 -110 417 -129 133 -19 314 -15
448 11 542 105 969 534 1079 1085 25 122 24 384 -1 505 -114 549 -517 958
-1061 1076 -122 27 -359 34 -478 14z m383 -139 c509 -77 906 -455 1016 -968
23 -104 25 -350 5 -453 -144 -735 -874 -1171 -1581 -944 -105 34 -259 114
-352 184 -538 404 -646 1169 -242 1708 267 356 714 539 1154 473z"/>
</g>
</svg>
