<svg width="24" height="24" viewBox="0 0 24 24" fill="none" xmlns="http://www.w3.org/2000/svg">
<path d="M9.22323 1.39249L2.29322 6.94248C1.51322 7.56248 1.01322 8.87248 1.18322 9.85248L2.51322 17.8125C2.75322 19.2325 4.54429 18.3825 5.55321 18.3825C6.28776 18.3825 11.5554 18.3825 14.3662 18.3825C15.3382 18.3825 16.1232 17.7845 16.1232 16.8125C16.1232 15.25 16.1232 10.5938 16.1232 8.85248C16.1232 7.11122 16.1232 7.59375 16.1232 5.94248C16.1232 4.29121 14.1532 2.26247 13.0832 1.40247C12.0132 0.542471 10.2832 0.542491 9.22323 1.39249Z" fill="url(#paint0_linear_8065_15607)"/>
<g filter="url(#filter0_b_8065_15607)">
<path d="M10.4882 2.81998L3.55823 8.36997C2.77823 8.98997 2.27823 10.3 2.44823 11.28L3.77824 19.24C4.01824 20.66 5.37823 21.81 6.81823 21.81H18.0182C19.4482 21.81 20.8182 20.65 21.0582 19.24L22.3882 11.28C22.5482 10.3 22.0482 8.98997 21.2782 8.36997L14.3482 2.82996C13.2782 1.96996 11.5482 1.96998 10.4882 2.81998Z" fill="#FFCBB9" fill-opacity="0.35"/>
</g>
<g filter="url(#filter1_b_8065_15607)">
<path d="M12.418 15.5C13.7987 15.5 14.918 14.3807 14.918 13C14.918 11.6193 13.7987 10.5 12.418 10.5C11.0373 10.5 9.91797 11.6193 9.91797 13C9.91797 14.3807 11.0373 15.5 12.418 15.5Z" fill="white"/>
<path d="M14.718 13C14.718 14.2703 13.6882 15.3 12.418 15.3C11.1477 15.3 10.118 14.2703 10.118 13C10.118 11.7297 11.1477 10.7 12.418 10.7C13.6882 10.7 14.718 11.7297 14.718 13Z" stroke="url(#paint1_linear_8065_15607)" stroke-width="0.4"/>
</g>
<defs>
<filter id="filter0_b_8065_15607" x="-7.58496" y="-7.81628" width="40.0031" height="39.6263" filterUnits="userSpaceOnUse" color-interpolation-filters="sRGB">
<feFlood flood-opacity="0" result="BackgroundImageFix"/>
<feGaussianBlur in="BackgroundImage" stdDeviation="5"/>
<feComposite in2="SourceAlpha" operator="in" result="effect1_backgroundBlur_8065_15607"/>
<feBlend mode="normal" in="SourceGraphic" in2="effect1_backgroundBlur_8065_15607" result="shape"/>
</filter>
<filter id="filter1_b_8065_15607" x="-5.08203" y="-4.5" width="35" height="35" filterUnits="userSpaceOnUse" color-interpolation-filters="sRGB">
<feFlood flood-opacity="0" result="BackgroundImageFix"/>
<feGaussianBlur in="BackgroundImage" stdDeviation="7.5"/>
<feComposite in2="SourceAlpha" operator="in" result="effect1_backgroundBlur_8065_15607"/>
<feBlend mode="normal" in="SourceGraphic" in2="effect1_backgroundBlur_8065_15607" result="shape"/>
</filter>
<linearGradient id="paint0_linear_8065_15607" x1="7.80328" y1="0.74733" x2="7.80328" y2="18.6259" gradientUnits="userSpaceOnUse">
<stop stop-color="#FF7F7F"/>
<stop offset="1" stop-color="#FF0D0D"/>
</linearGradient>
<linearGradient id="paint1_linear_8065_15607" x1="10.7139" y1="11.0825" x2="13.9034" y2="15.0327" gradientUnits="userSpaceOnUse">
<stop stop-color="white" stop-opacity="0.25"/>
<stop offset="1" stop-color="white" stop-opacity="0"/>
</linearGradient>
</defs>
</svg>
