<svg width="30" height="30" viewBox="0 0 30 30" fill="none" xmlns="http://www.w3.org/2000/svg">
<path fill-rule="evenodd" clip-rule="evenodd" d="M0 30H30V0H0V30Z" fill="black" fill-opacity="0.01"/>
<path fill-rule="evenodd" clip-rule="evenodd" d="M19.329 1.74306L28.5275 10.0877C28.9221 10.4465 28.9521 11.0581 28.5932 11.4527C28.5759 11.4746 28.5552 11.4931 28.5356 11.5127L19.3371 20.0315C18.9448 20.3938 18.3344 20.3708 17.9709 19.9796C17.8059 19.7996 17.7148 19.5654 17.7148 19.3219V2.45845C17.7148 1.92537 18.1463 1.49268 18.6806 1.49268C18.9206 1.49268 19.1513 1.58152 19.329 1.74306" fill="#5BC652"/>
<mask id="mask0" mask-type="alpha" maskUnits="userSpaceOnUse" x="0" y="1" width="24" height="21">
<path fill-rule="evenodd" clip-rule="evenodd" d="M0 1.49292H23.6914V21.5341H0V1.49292Z" fill="white"/>
</mask>
<g mask="url(#mask0)">
<path fill-rule="evenodd" clip-rule="evenodd" d="M0.00658738 19.3325C0.00658738 18.2756 -0.219566 14.1056 3.0689 10.7975C5.28313 8.56946 8.59697 8.18407 12.5604 8.00754V2.45869C12.5604 1.92561 12.9931 1.49292 13.5274 1.49292C13.7674 1.49292 13.9981 1.58177 14.1758 1.7433L23.3743 10.0879C23.77 10.4468 23.7989 11.0583 23.4412 11.4529C23.4216 11.4737 23.402 11.4933 23.3824 11.5129L14.1827 20.0306C13.7916 20.3941 13.18 20.3698 12.8189 19.9798C12.6527 19.7998 12.5604 19.5656 12.5604 19.3222V13.8045C10.0439 13.8748 8.25197 14.0341 6.6239 14.551C4.27928 15.2975 2.46774 17.4137 1.18697 20.9006C1.04736 21.2802 0.686203 21.5341 0.280049 21.5341H-0.000335693C-0.000335693 20.8983 0.00658738 19.8922 0.00658738 19.3325" fill="#009E35"/>
</g>
<path fill-rule="evenodd" clip-rule="evenodd" d="M29.9987 22.8007C29.9987 18.8257 26.776 15.603 22.7999 15.603C18.8237 15.603 15.601 18.8257 15.601 22.8007C15.601 26.7769 18.8237 29.9996 22.7999 29.9996C26.776 29.9996 29.9987 26.7769 29.9987 22.8007" fill="#5BC652"/>
<path fill-rule="evenodd" clip-rule="evenodd" d="M24.7061 22.5631C24.4927 22.4039 24.2573 22.2758 24 22.1801C23.7404 22.0843 23.4911 21.9966 23.2523 21.9158C23.0873 21.8639 22.9384 21.812 22.8058 21.7624C22.6719 21.7127 22.5577 21.6574 22.4619 21.5974C22.3661 21.5374 22.2923 21.4693 22.2427 21.3885C22.1919 21.3089 22.1677 21.2097 22.1677 21.0908C22.1677 20.9512 22.1988 20.837 22.2623 20.747C22.3258 20.6581 22.4031 20.5843 22.4965 20.5277C22.5888 20.4724 22.6938 20.4331 22.8092 20.4135C22.9258 20.3939 23.0411 20.3835 23.1531 20.3835C23.3723 20.3835 23.5996 20.4377 23.835 20.5474C24.0704 20.6581 24.2608 20.8058 24.4073 20.9904L25.4931 19.847C25.1804 19.5608 24.8181 19.3451 24.4015 19.1997C24.0496 19.0751 23.7046 19.0151 23.3631 18.9966V18.3493C23.3631 18.0597 23.1288 17.8254 22.8392 17.8254C22.5508 17.8254 22.3165 18.0597 22.3165 18.3493V19.082C22.2773 19.0912 22.2369 19.0947 22.1977 19.1051C21.8723 19.187 21.5804 19.3185 21.3219 19.4974C21.0634 19.6774 20.8534 19.9058 20.6942 20.1839C20.5361 20.4631 20.4554 20.7989 20.4554 21.1901C20.4554 21.5085 20.5073 21.7785 20.61 22.0012C20.7127 22.2227 20.8488 22.412 21.0184 22.5689C21.1869 22.7247 21.3796 22.8516 21.5965 22.952C21.8111 23.0512 22.0327 23.1377 22.2577 23.2104C22.4896 23.2831 22.6973 23.3524 22.8796 23.4135C23.0619 23.477 23.2142 23.5474 23.3365 23.6235C23.46 23.6997 23.5546 23.7851 23.6215 23.8774C23.6873 23.9708 23.7208 24.0827 23.7208 24.2154C23.7208 24.3551 23.6942 24.4739 23.6411 24.5743C23.5881 24.6735 23.5165 24.7531 23.4277 24.8131C23.3365 24.8731 23.2338 24.9158 23.1138 24.9424C22.995 24.9689 22.8715 24.9827 22.7458 24.9827C22.4665 24.9827 22.1861 24.9101 21.9034 24.7681C21.6219 24.6251 21.3946 24.4485 21.2215 24.2351L20.1081 25.3704C20.4196 25.6958 20.8108 25.9462 21.2815 26.1216C21.6173 26.2462 21.9623 26.3258 22.3165 26.3616V27.2535C22.3165 27.5431 22.5508 27.7785 22.8392 27.7785C23.1288 27.7785 23.3631 27.5431 23.3631 27.2535V26.3281C23.4934 26.3051 23.6238 26.2831 23.7508 26.2451C24.075 26.1527 24.3646 26.0108 24.6161 25.8181C24.8688 25.6254 25.0684 25.382 25.2184 25.0866C25.3673 24.7912 25.4434 24.4416 25.4434 24.0354C25.4434 23.6847 25.3731 23.3916 25.2334 23.1562C25.0938 22.9208 24.9184 22.7235 24.7061 22.5631" fill="white"/>
</svg>
