<svg width="26" height="26" viewBox="0 0 26 26" fill="none" xmlns="http://www.w3.org/2000/svg">
<g clip-path="url(#clip0)">
<path d="M23.6916 6.35733C23.4793 4.28189 23.1411 2.66594 22.6061 2.03077C20.4002 -0.580846 4.94795 -0.771967 3.19352 2.03077C2.76435 2.71744 2.46336 4.32767 2.26137 6.36077C1.60961 6.43744 1.10205 6.9862 1.10205 7.65799V10.2004C1.10205 10.7657 1.46026 11.2424 1.96038 11.4284C1.84193 15.4328 1.93807 19.6105 2.11545 21.6883C2.11545 23.2922 3.19295 23.0261 3.19295 23.0261H4.20292V24.7577C4.20292 25.4443 4.91075 26 5.78282 26C6.65603 26 7.36387 25.4443 7.36387 24.7577V23.0261H19.1138V24.7577C19.1138 25.4443 19.8211 26 20.6943 26C21.5664 26 22.2742 25.4443 22.2742 24.7577V23.0261H22.6061C22.6061 23.0261 23.8742 23.2001 23.9554 22.4447C23.9554 20.3727 24.0859 15.7807 23.9783 11.4461C24.5099 11.2796 24.8979 10.7898 24.8979 10.2004V7.65799C24.8984 6.97018 24.3663 6.41227 23.6916 6.35733ZM6.96732 2.40329H18.8323V4.19834H6.96732V2.40329ZM7.13669 20.9816C6.20512 20.9816 5.45036 20.2263 5.45036 19.2947C5.45036 18.3637 6.20512 17.6089 7.13669 17.6089C8.06827 17.6089 8.8236 18.3637 8.8236 19.2947C8.8236 20.2263 8.06884 20.9816 7.13669 20.9816ZM18.7688 20.9816C17.8378 20.9816 17.0813 20.2263 17.0813 19.2947C17.0813 18.3637 17.8372 17.6089 18.7688 17.6089C19.7004 17.6089 20.4551 18.3637 20.4551 19.2947C20.4557 20.2263 19.7004 20.9816 18.7688 20.9816ZM20.9129 13.5999H4.88672V5.19401H20.9129V13.5999Z" fill="white"/>
</g>
<defs>
<clipPath id="clip0">
<rect width="26" height="26" fill="white"/>
</clipPath>
</defs>
</svg>
