<svg width="24" height="24" viewBox="0 0 24 24" fill="none" xmlns="http://www.w3.org/2000/svg">
<path d="M4 5.77778C4 5.30628 4.1873 4.8541 4.5207 4.5207C4.8541 4.1873 5.30628 4 5.77778 4H8.69333C8.87982 4.00014 9.06153 4.05893 9.21276 4.16804C9.36399 4.27716 9.47707 4.43107 9.536 4.608L10.8676 8.60178C10.935 8.80475 10.927 9.02524 10.8451 9.2228C10.7631 9.42036 10.6127 9.58174 10.4213 9.67733L8.41511 10.6818C9.39851 12.8583 11.1417 14.6015 13.3182 15.5849L14.3227 13.5787C14.4183 13.3873 14.5796 13.2369 14.7772 13.1549C14.9748 13.073 15.1953 13.065 15.3982 13.1324L19.392 14.464C19.5691 14.523 19.7231 14.6362 19.8322 14.7876C19.9413 14.939 20 15.1209 20 15.3076V18.2222C20 18.6937 19.8127 19.1459 19.4793 19.4793C19.1459 19.8127 18.6937 20 18.2222 20H17.3333C9.96978 20 4 14.0302 4 6.66667V5.77778Z" stroke="black" stroke-linecap="round" stroke-linejoin="round"/>
</svg>
