<svg width="20" height="20" viewBox="0 0 20 20" fill="none" xmlns="http://www.w3.org/2000/svg">
<g clip-path="url(#clip0)">
<path d="M20 6.14418L14.4773 3.59863H5.52275L0 6.14418L1.33859 11.4315V14.9629L5.55413 16.402H14.4459L18.6614 14.9629V11.4315L20 6.14418ZM5.78064 4.77424H14.2194L18.6206 6.80288L17.6161 10.7704H2.3839L1.37946 6.80284L5.78064 4.77424ZM17.4858 14.122L14.2508 15.2264H5.74925L2.5142 14.122V11.9461H17.4858V14.122H17.4858Z" fill="black"/>
<path d="M7.06104 7.77246H8.23664V8.94807H7.06104V7.77246Z" fill="black"/>
<path d="M9.41223 7.77246H10.5878V8.94807H9.41223V7.77246Z" fill="black"/>
<path d="M11.7634 7.77246H12.939V8.94807H11.7634V7.77246Z" fill="black"/>
<path d="M8.23657 6.59668H9.41218V7.77229H8.23657V6.59668Z" fill="black"/>
<path d="M10.5879 6.59668H11.7635V7.77229H10.5879V6.59668Z" fill="black"/>
</g>
<defs>
<clipPath id="clip0">
<rect width="20" height="20" fill="white"/>
</clipPath>
</defs>
</svg>
