<svg width="24" height="24" viewBox="0 0 24 24" fill="none" xmlns="http://www.w3.org/2000/svg">
<path fill-rule="evenodd" clip-rule="evenodd" d="M19.6191 11.5237V7.71418C19.6191 5.87324 18.1267 4.38085 16.2857 4.38085H7.7143C5.87335 4.38085 4.38097 5.87324 4.38097 7.71418V16.2856C4.38097 18.1266 5.87335 19.6189 7.7143 19.6189H12.4762C13.2652 19.6189 13.9048 18.9794 13.9048 18.1904V16.2856C13.9048 14.4447 15.3972 12.9523 17.2381 12.9523H18.1905C18.9795 12.9523 19.6191 12.3127 19.6191 11.5237ZM19.5492 13.4792C19.1639 13.7474 18.6955 13.9047 18.1905 13.9047H17.2381C15.9231 13.9047 14.8572 14.9706 14.8572 16.2856V18.1904C14.8572 18.5925 14.7574 18.9714 14.5814 19.3037C17.1896 18.5004 19.1606 16.2437 19.5492 13.4792ZM7.7143 3.42847H16.2857C18.6527 3.42847 20.5714 5.34725 20.5714 7.71418V12.4761C20.5714 16.947 16.9471 20.5713 12.4762 20.5713H7.7143C5.34737 20.5713 3.42859 18.6525 3.42859 16.2856V7.71418C3.42859 5.34725 5.34737 3.42847 7.7143 3.42847Z" fill="#009E35"/>
</svg>
