<svg width="24" height="24" viewBox="0 0 24 24" fill="none" xmlns="http://www.w3.org/2000/svg">
<path d="M12 22C17.5228 22 22 17.5228 22 12C22 6.47715 17.5228 2 12 2C6.47715 2 2 6.47715 2 12C2 17.5228 6.47715 22 12 22Z" stroke="#009E35" stroke-linecap="round" stroke-linejoin="round"/>
<path d="M9 8.19935C9.24196 7.46604 9.71954 6.84769 10.3482 6.45382C10.9768 6.05995 11.7158 5.91597 12.4345 6.04739C13.1531 6.1788 13.805 6.57714 14.2745 7.17184C14.7441 7.76653 15.0011 8.51922 15 9.29657C15 11.491 11.9125 12.5882 11.9125 12.5882V15" stroke="#009E35" stroke-linecap="round" stroke-linejoin="round"/>
<circle cx="12" cy="18" r="1" fill="#009E35"/>
</svg>
