<svg width="32" height="32" viewBox="0 0 32 32" fill="none" xmlns="http://www.w3.org/2000/svg">
<path fill-rule="evenodd" clip-rule="evenodd" d="M26.1586 14.395V24.2541C26.1586 26.0074 24.7373 27.4287 22.984 27.4287H19.1745C18.8238 27.4287 18.5396 27.1444 18.5396 26.7938V19.1747C18.5396 18.824 18.2553 18.5398 17.9046 18.5398H14.0951C13.7445 18.5398 13.4602 18.824 13.4602 19.1747V26.7938C13.4602 27.1444 13.1759 27.4287 12.8253 27.4287H9.01575C7.26247 27.4287 5.84115 26.0074 5.84115 24.2541V14.395L5.60985 14.5855C5.33917 14.8084 4.93903 14.7696 4.71611 14.499C4.4932 14.2283 4.53192 13.8281 4.8026 13.6052L15.5963 4.71634C15.8307 4.52326 16.1691 4.52326 16.4035 4.71634L27.1972 13.6052C27.4678 13.8281 27.5066 14.2283 27.2836 14.499C27.0607 14.7696 26.6606 14.8084 26.3899 14.5855L26.1586 14.395ZM24.8973 13.3562L15.9999 6.02896L7.10248 13.3562C7.10808 13.3901 7.11099 13.4249 7.11099 13.4604V24.2541C7.11099 25.306 7.96378 26.1588 9.01575 26.1588H12.1904V19.1747C12.1904 18.1227 13.0431 17.2699 14.0951 17.2699H17.9046C18.9566 17.2699 19.8094 18.1227 19.8094 19.1747V26.1588H22.984C24.036 26.1588 24.8888 25.306 24.8888 24.2541V13.4604C24.8888 13.4249 24.8917 13.3901 24.8973 13.3562Z" fill="black"/>
</svg>
