<svg width="24" height="24" viewBox="0 0 24 24" fill="none" xmlns="http://www.w3.org/2000/svg">
<path fill-rule="evenodd" clip-rule="evenodd" d="M18.6666 5.33347H20.0951C20.3581 5.33347 20.5713 5.54667 20.5713 5.80966C20.5713 6.07266 20.3581 6.28585 20.0951 6.28585H18.6666V7.71442C18.6666 7.97742 18.4534 8.19061 18.1904 8.19061C17.9274 8.19061 17.7142 7.97742 17.7142 7.71442V6.28585H16.2856C16.0226 6.28585 15.8094 6.07266 15.8094 5.80966C15.8094 5.54667 16.0226 5.33347 16.2856 5.33347H17.7142V3.9049C17.7142 3.64191 17.9274 3.42871 18.1904 3.42871C18.4534 3.42871 18.6666 3.64191 18.6666 3.9049V5.33347ZM4.38085 14.8573H9.61894C9.88194 14.8573 10.0951 15.0705 10.0951 15.3335C10.0951 16.1225 10.7347 16.762 11.5237 16.762H12.4761C13.2651 16.762 13.9047 16.1225 13.9047 15.3335C13.9047 15.0705 14.1179 14.8573 14.3808 14.8573H19.6189V9.61919C19.6189 9.35619 19.8321 9.143 20.0951 9.143C20.3581 9.143 20.5713 9.35619 20.5713 9.61919V18.1906C20.5713 19.5056 19.5053 20.5716 18.1904 20.5716H5.80942C4.49446 20.5716 3.42847 19.5056 3.42847 18.1906V5.80966C3.42847 4.4947 4.49446 3.42871 5.80942 3.42871H14.3808C14.6438 3.42871 14.857 3.64191 14.857 3.9049C14.857 4.16789 14.6438 4.38109 14.3808 4.38109H5.80942C5.02044 4.38109 4.38085 5.02068 4.38085 5.80966V14.8573ZM4.38085 15.8097V18.1906C4.38085 18.9796 5.02044 19.6192 5.80942 19.6192H18.1904C18.9793 19.6192 19.6189 18.9796 19.6189 18.1906V15.8097H14.8094C14.5888 16.8964 13.628 17.7144 12.4761 17.7144H11.5237C10.3718 17.7144 9.41098 16.8964 9.19038 15.8097H4.38085Z" fill="black"/>
</svg>
