<svg width="100" height="100" viewBox="0 0 100 100" fill="none" xmlns="http://www.w3.org/2000/svg">
<g clip-path="url(#clip0)">
<path opacity="0.1" d="M92.1736 93.9414H7.82696C1.79513 93.9414 -1.96503 87.4027 1.07853 82.1884L43.2518 9.93589C46.2649 4.77378 53.7301 4.7644 56.7486 9.93589L98.9219 82.1886C101.963 87.398 98.2109 93.9414 92.1736 93.9414Z" fill="#FEA400"/>
<path d="M48.9796 13.2788L6.8064 85.5316C6.34527 86.3218 6.91031 87.3087 7.82691 87.3087H92.1736C93.0884 87.3087 93.6562 86.3232 93.1941 85.5316L51.0207 13.2788C50.5642 12.4968 49.4388 12.4921 48.9796 13.2788Z" fill="#FEA400"/>
<path d="M50.0213 69.9475C51.9705 69.9475 53.6172 71.5696 53.6172 73.4893C53.6172 75.3838 51.9705 76.9844 50.0213 76.9844C48.0153 76.9844 46.3832 75.4165 46.3832 73.4893C46.3832 71.5694 48.0493 69.9475 50.0213 69.9475Z" fill="white"/>
<path d="M50.0213 64.4793C48.0037 64.4793 46.5948 63.5021 46.5948 62.1031V42.3478C46.5948 41.1779 47.9717 39.9252 50.0213 39.9252C51.8692 39.9252 53.4903 41.0574 53.4903 42.3478V62.1031C53.4903 63.4799 52.0315 64.4793 50.0213 64.4793Z" fill="white"/>
</g>
<defs>
<clipPath id="clip0">
<rect width="100" height="100" fill="white"/>
</clipPath>
</defs>
</svg>
