<svg width="24" height="24" viewBox="0 0 24 24" fill="none" xmlns="http://www.w3.org/2000/svg">
<path d="M18.0133 19.0403L18.0128 19.0407C16.4192 20.6147 14.2565 21.5 12.0001 21.5C9.74375 21.5 7.58104 20.6147 5.98742 19.0407C4.39402 17.467 3.5 15.3339 3.5 13.111C3.5 11.1121 4.22293 9.18575 5.52727 7.6735C5.62553 7.82883 5.74633 8.00436 5.8922 8.19191C6.39499 8.83833 7.19836 9.63074 8.40377 10.226C8.55875 10.3025 8.74227 10.2936 8.88907 10.2024C9.03588 10.1111 9.12516 9.95054 9.12516 9.77769C9.12516 7.71152 9.62764 4.74676 11.9635 2.67041C13.0275 3.65359 14.0985 4.36659 15.0897 5.01249C15.1487 5.0509 15.2073 5.08904 15.2655 5.12695C16.2983 5.7991 17.219 6.39836 18.0117 7.18124L18.0122 7.18175C18.8024 7.95995 19.4288 8.88438 19.8556 9.90175L20.3167 9.70832L19.8556 9.90175C20.2824 10.9191 20.5013 12.0095 20.5 13.1104L20.5 13.1117C20.5015 14.2124 20.2827 15.3028 19.8561 16.3202C19.4294 17.3375 18.8033 18.262 18.0133 19.0403Z" stroke="black" stroke-linecap="round" stroke-linejoin="round"/>
<path d="M9.87891 16.121C10.2273 16.4695 10.6561 16.7268 11.1275 16.8702C11.5989 17.0136 12.0983 17.0386 12.5817 16.9431C13.0651 16.8476 13.5175 16.6345 13.8989 16.3226C14.2804 16.0107 14.5791 15.6097 14.7688 15.1549C14.9585 14.7001 15.0332 14.2056 14.9864 13.715C14.9396 13.2245 14.7727 12.753 14.5005 12.3423C14.2282 11.9316 13.859 11.5943 13.4255 11.3602C12.9919 11.1261 12.5074 11.0024 12.0147 11L10.9998 14H9C9 14.768 9.29297 15.536 9.87891 16.121Z" stroke="black" stroke-linecap="round" stroke-linejoin="round"/>
</svg>
