<svg width="24" height="24" viewBox="0 0 24 24" fill="none" xmlns="http://www.w3.org/2000/svg">
<path fill-rule="evenodd" clip-rule="evenodd" d="M16.8906 6.25741L18.2896 5.97111C18.886 5.84907 19.4936 6.12234 19.798 6.64954L20.5327 7.9221C20.8371 8.44929 20.7699 9.11211 20.366 9.56758L19.4195 10.635C19.5013 11.0823 19.5428 11.5386 19.5428 12.0001C19.5428 12.4616 19.5013 12.9179 19.4195 13.3652L20.366 14.4326C20.7699 14.8881 20.8371 15.5509 20.5327 16.0781L19.798 17.3507C19.4936 17.8779 18.886 18.1511 18.2896 18.0291L16.8906 17.7428C16.193 18.3374 15.3927 18.8013 14.5272 19.109L14.0764 20.4616C13.8839 21.0391 13.3434 21.4287 12.7347 21.4287H11.2652C10.6565 21.4287 10.116 21.0391 9.92352 20.4616L9.47265 19.109C8.60724 18.8013 7.80685 18.3374 7.10932 17.7428L5.71026 18.0291C5.11387 18.1511 4.50629 17.8779 4.20192 17.3507L3.46721 16.0781C3.16283 15.5509 3.22995 14.8881 3.63384 14.4326L4.58038 13.3652C4.49859 12.9179 4.45709 12.4616 4.45709 12.0001C4.45709 11.5386 4.49859 11.0823 4.58038 10.635L3.63384 9.56758C3.22995 9.11211 3.16283 8.44929 3.46721 7.9221L4.20192 6.64954C4.50629 6.12234 5.11387 5.84907 5.71026 5.97111L7.10932 6.25741C7.80685 5.66281 8.60724 5.19889 9.47265 4.8912L9.92352 3.53858C10.116 2.96107 10.6565 2.57153 11.2652 2.57153H12.7347C13.3434 2.57153 13.8839 2.96107 14.0764 3.53858L14.5272 4.8912C15.3927 5.19889 16.193 5.66281 16.8906 6.25741ZM14.0107 5.71187C13.8674 5.66608 13.7545 5.55462 13.7069 5.41188L13.1819 3.83674C13.1177 3.64424 12.9376 3.51439 12.7347 3.51439H11.2652C11.0623 3.51439 10.8822 3.64424 10.818 3.83674L10.2929 5.41188C10.2454 5.55462 10.1325 5.66608 9.98918 5.71187C9.08791 5.99981 8.26079 6.47962 7.56175 7.11512C7.45043 7.21632 7.2975 7.25831 7.15012 7.22815L5.52124 6.89483C5.32244 6.85415 5.11991 6.94524 5.01846 7.12097L4.28374 8.39353C4.18228 8.56926 4.20466 8.7902 4.33929 8.94202L5.44122 10.1847C5.54091 10.2971 5.58104 10.4503 5.54926 10.5972C5.45031 11.0544 5.39994 11.5239 5.39994 12.0001C5.39994 12.4764 5.45031 12.9458 5.54926 13.403C5.58104 13.5499 5.54091 13.7031 5.44122 13.8155L4.33929 15.0582C4.20466 15.21 4.18228 15.431 4.28374 15.6067L5.01846 16.8792C5.11991 17.055 5.32244 17.1461 5.52124 17.1054L7.15012 16.7721C7.2975 16.7419 7.45043 16.7839 7.56175 16.8851C8.26079 17.5206 9.08791 18.0004 9.98918 18.2883C10.1325 18.3341 10.2454 18.4456 10.2929 18.5883L10.818 20.1635C10.8822 20.356 11.0623 20.4858 11.2652 20.4858H12.7347C12.9376 20.4858 13.1177 20.356 13.1819 20.1635L13.7069 18.5883C13.7545 18.4456 13.8674 18.3341 14.0107 18.2883C14.912 18.0004 15.7391 17.5206 16.4381 16.8851C16.5495 16.7839 16.7024 16.7419 16.8498 16.7721L18.4787 17.1054C18.6774 17.1461 18.88 17.055 18.9814 16.8792L19.7161 15.6067C19.8176 15.431 19.7952 15.21 19.6606 15.0582L18.5587 13.8155C18.459 13.7031 18.4188 13.5499 18.4506 13.403C18.5496 12.9458 18.5999 12.4764 18.5999 12.0001C18.5999 11.5239 18.5496 11.0544 18.4506 10.5972C18.4188 10.4503 18.459 10.2971 18.5587 10.1847L19.6606 8.94202C19.7952 8.7902 19.8176 8.56926 19.7161 8.39353L18.9814 7.12097C18.88 6.94524 18.6774 6.85415 18.4787 6.89483L16.8498 7.22815C16.7024 7.25831 16.5495 7.21632 16.4381 7.11512C15.7391 6.47962 14.912 5.99981 14.0107 5.71187ZM11.9999 15.7715C9.91704 15.7715 8.22851 14.083 8.22851 12.0001C8.22851 9.91721 9.91704 8.22868 11.9999 8.22868C14.0828 8.22868 15.7714 9.91721 15.7714 12.0001C15.7714 14.083 14.0828 15.7715 11.9999 15.7715ZM11.9999 14.8287C13.5621 14.8287 14.8285 13.5623 14.8285 12.0001C14.8285 10.4379 13.5621 9.17154 11.9999 9.17154C10.4378 9.17154 9.17137 10.4379 9.17137 12.0001C9.17137 13.5623 10.4378 14.8287 11.9999 14.8287Z" fill="black"/>
</svg>
