<svg width="24" height="24" viewBox="0 0 24 24" fill="none" xmlns="http://www.w3.org/2000/svg">
<path fill-rule="evenodd" clip-rule="evenodd" d="M10.0953 3.90466C10.0953 4.16765 10.3085 4.38085 10.5714 4.38085H18.1905C18.9795 4.38085 19.6191 5.02044 19.6191 5.80942V18.1904C19.6191 18.9793 18.9795 19.6189 18.1905 19.6189H10.5714C10.3085 19.6189 10.0953 19.8321 10.0953 20.0951C10.0953 20.3581 10.3085 20.5713 10.5714 20.5713H18.1905C19.5055 20.5713 20.5714 19.5053 20.5714 18.1904V5.80942C20.5714 4.49446 19.5055 3.42847 18.1905 3.42847H10.5714C10.3085 3.42847 10.0953 3.64166 10.0953 3.90466ZM8.05102 14.9965L5.0544 11.9999H15.3334C15.5963 11.9999 15.8095 11.7867 15.8095 11.5237C15.8095 11.2607 15.5963 11.0475 15.3334 11.0475H5.0544L8.05102 8.0509C8.23698 7.86493 8.23698 7.56343 8.05102 7.37746C7.86506 7.1915 7.56355 7.1915 7.37759 7.37746L3.56806 11.187C3.3821 11.3729 3.3821 11.6745 3.56806 11.8604L7.37759 15.6699C7.56355 15.8559 7.86506 15.8559 8.05102 15.6699C8.23698 15.484 8.23698 15.1825 8.05102 14.9965Z" fill="black"/>
</svg>
