<svg width="114" height="114" viewBox="0 0 114 114" fill="none" xmlns="http://www.w3.org/2000/svg">
<path opacity="0.07" d="M56.9979 114C52.6145 114 48.2367 112.335 44.8906 109.012L40.7294 104.851C39.1163 103.243 36.9559 102.354 34.6644 102.348H28.8103C19.348 102.348 11.647 94.6472 11.647 85.1845V79.3245C11.6413 77.0387 10.7521 74.8782 9.13891 73.2536L5.04616 69.1664C-1.65728 62.5027 -1.68578 51.6092 4.98346 44.8999L9.14461 40.7329C10.7521 39.1197 11.6413 36.9592 11.647 34.6677V28.8191C11.647 19.3507 19.348 11.6495 28.8103 11.6495H34.6701C36.9559 11.6495 39.1106 10.7603 40.7351 9.13565L44.8336 5.04847C51.4972 -1.65518 62.3846 -1.68939 69.0994 4.98577L73.2606 9.14705C74.8795 10.7603 77.0341 11.6495 79.3199 11.6495H85.1797C94.6421 11.6495 102.343 19.3507 102.343 28.8191V34.6734C102.349 36.9592 103.238 39.1197 104.851 40.7443L108.944 44.8372C112.187 48.0636 113.983 52.3617 114 56.9505C114.011 61.5108 112.256 65.8032 109.058 69.0467C109.001 69.1037 108.95 69.1664 108.893 69.2178L104.845 73.265C103.238 74.8782 102.349 77.0387 102.343 79.3302V85.1845C102.343 94.6472 94.6421 102.348 85.1797 102.348H79.3199C77.0341 102.354 74.8738 103.243 73.2549 104.857L69.1565 108.949C65.8161 112.313 61.4042 114 56.9979 114Z" fill="#009E35"/>
<path d="M56.9983 104.997C53.3071 104.997 49.6207 103.595 46.803 100.797L43.299 97.2927C41.9406 95.9391 40.1214 95.1904 38.1918 95.1856H33.2622C25.2942 95.1856 18.8094 88.7007 18.8094 80.7327V75.7984C18.8046 73.8736 18.0558 72.0544 16.6974 70.6864L13.251 67.2448C7.60616 61.6336 7.58216 52.4607 13.1982 46.8111L16.7022 43.3024C18.0558 41.944 18.8046 40.1248 18.8094 38.1952V33.2704C18.8094 25.2976 25.2942 18.8128 33.2622 18.8128H38.1966C40.1214 18.8128 41.9358 18.064 43.3038 16.696L46.755 13.2544C52.3663 7.60955 61.5343 7.58075 67.1887 13.2016L70.6927 16.7056C72.0559 18.064 73.8703 18.8128 75.7951 18.8128H80.7295C88.6975 18.8128 95.1823 25.2976 95.1823 33.2704V38.2C95.1871 40.1248 95.9359 41.944 97.2943 43.312L100.741 46.7584C103.472 49.4752 104.984 53.0944 104.998 56.9584C105.008 60.7984 103.529 64.4128 100.837 67.144C100.789 67.192 100.745 67.2448 100.697 67.288L97.2895 70.6959C95.9359 72.0543 95.1871 73.8736 95.1823 75.8032V80.7327C95.1823 88.7007 88.6975 95.1856 80.7295 95.1856H75.7951C73.8703 95.1904 72.0511 95.9392 70.6879 97.2976L67.2367 100.744C64.4239 103.576 60.7087 104.997 56.9983 104.997Z" fill="#009E35"/>
<path d="M52.1862 70.0033C51.2771 70.0033 50.3679 69.6631 49.6739 68.9787L40.0427 59.4816C38.6547 58.1129 38.6547 55.8957 40.0427 54.531C41.4308 53.1622 43.6752 53.1582 45.0633 54.527L52.1862 61.5507L68.9402 45.0298C70.3282 43.6611 72.5726 43.6611 73.9607 45.0298C75.3487 46.3986 75.3487 48.6158 73.9607 49.9845L54.6985 68.9787C54.0045 69.6631 53.0953 70.0033 52.1862 70.0033Z" fill="white"/>
</svg>
