<svg width="25" height="24" viewBox="0 0 25 24" fill="none" xmlns="http://www.w3.org/2000/svg">
<path fill-rule="evenodd" clip-rule="evenodd" d="M22.9917 8.04112C22.8097 8.01834 22.6185 8.00808 22.4365 8.00808C20.4456 8.00808 23.3057 7.39018 22.1532 9L3.13255 14.9543C2.47606 15.1457 1.80833 14.7185 1.63654 13.9871L0.0403144 7.38831C-0.131476 6.65574 0.262211 5.90153 0.908471 5.71013L6.41702 4.06727L19.8688 0.0455682C20.5263 -0.145833 21.1931 0.282541 21.3751 1.01511L22.1532 4.23475L22.9621 7.61275C22.9917 7.75972 23.0122 7.90668 22.9917 8.04112Z" fill="#5BC652"/>
<path d="M23.1141 7.37896C22.9345 5.62283 22.6483 4.25549 22.1956 3.71805C20.3291 1.50824 7.2542 1.34652 5.76969 3.71805C5.40655 4.29907 5.15187 5.66156 4.98096 7.38186C4.42947 7.44674 4 7.91108 4 8.47951V10.6307C4 11.1091 4.3031 11.5124 4.72627 11.6698C4.62605 15.0581 4.70739 18.5931 4.85749 20.3512C4.85749 21.7084 5.76921 21.4832 5.76921 21.4832H6.62379V22.9483C6.62379 23.5294 7.22272 23.9995 7.96062 23.9995C8.69948 23.9995 9.29842 23.5294 9.29842 22.9483V21.4832H19.2406V22.9483C19.2406 23.5294 19.8391 23.9995 20.5779 23.9995C21.3158 23.9995 21.9148 23.5294 21.9148 22.9483V21.4832H22.1956C22.1956 21.4832 23.2686 21.6304 23.3373 20.9913C23.3373 19.2381 23.4477 15.3525 23.3567 11.6848C23.8065 11.5439 24.1348 11.1294 24.1348 10.6307V8.47951C24.1352 7.89752 23.685 7.42544 23.1141 7.37896ZM8.96288 4.03325H19.0024V5.55213H8.96288V4.03325ZM9.1062 19.7532C8.31795 19.7532 7.67931 19.1141 7.67931 18.3259C7.67931 17.5381 8.31795 16.8995 9.1062 16.8995C9.89445 16.8995 10.5336 17.5381 10.5336 18.3259C10.5336 19.1141 9.89493 19.7532 9.1062 19.7532ZM18.9487 19.7532C18.1609 19.7532 17.5208 19.1141 17.5208 18.3259C17.5208 17.5381 18.1604 16.8995 18.9487 16.8995C19.7369 16.8995 20.3756 17.5381 20.3756 18.3259C20.376 19.1141 19.7369 19.7532 18.9487 19.7532ZM20.7629 13.5073H7.20239V6.39461H20.7629V13.5073Z" fill="#009E35"/>
</svg>
