<svg width="24" height="24" viewBox="0 0 24 24" fill="none" xmlns="http://www.w3.org/2000/svg">
<path d="M12 3.47723C9.76701 3.47723 7.95166 5.29259 7.95166 7.52556C7.95166 9.71591 9.66474 11.4886 11.8977 11.5654C11.9659 11.5568 12.0341 11.5568 12.0852 11.5654C12.1023 11.5654 12.1108 11.5654 12.1278 11.5654C12.1363 11.5654 12.1363 11.5654 12.1449 11.5654C14.3267 11.4886 16.0398 9.71591 16.0483 7.52556C16.0483 5.29259 14.233 3.47723 12 3.47723Z" fill="#11243D"/>
<path d="M16.3296 13.8324C13.9518 12.2472 10.0739 12.2472 7.67899 13.8324C6.59659 14.5569 6 15.537 6 16.5853C6 17.6336 6.59659 18.6052 7.67047 19.3211C8.86365 20.1222 10.4318 20.5228 12 20.5228C13.5682 20.5228 15.1364 20.1222 16.3296 19.3211C17.4035 18.5967 18.0001 17.6251 18.0001 16.5682C17.9916 15.5199 17.4035 14.5483 16.3296 13.8324Z" fill="#11243D"/>
</svg>
