<svg width="24" height="24" viewBox="0 0 24 24" fill="none" xmlns="http://www.w3.org/2000/svg">
<path fill-rule="evenodd" clip-rule="evenodd" d="M15 9.1458H15.75C16.9926 9.1458 18 10.0912 18 11.2574V16.8884C18 18.0546 16.9926 19 15.75 19H8.25C7.00736 19 6 18.0546 6 16.8884V11.2574C6 10.0912 7.00736 9.1458 8.25 9.1458H9V7.81549C9 6.26054 10.3431 5 12 5C13.6569 5 15 6.26054 15 7.81549V9.1458ZM12 6.33032C11.1496 6.35333 10.479 7.01727 10.5 7.81549V9.1458H13.5V7.81549C13.521 7.01727 12.8504 6.35333 12 6.33032ZM12 16.1845C10.7574 16.1845 9.75 15.2391 9.75 14.0729C9.75 12.9067 10.7574 11.9613 12 11.9613C13.2426 11.9613 14.25 12.9067 14.25 14.0729C14.25 15.2391 13.2426 16.1845 12 16.1845ZM12.75 14.0729C12.75 14.4616 12.4142 14.7768 12 14.7768C11.5858 14.7768 11.25 14.4616 11.25 14.0729C11.25 13.6842 11.5858 13.369 12 13.369C12.4142 13.369 12.75 13.6842 12.75 14.0729Z" fill="#11243D"/>
</svg>
