<svg width="81" height="25" viewBox="0 0 81 25" fill="none" xmlns="http://www.w3.org/2000/svg">
<mask id="path-1-outside-1_420_23628" maskUnits="userSpaceOnUse" x="0" y="0.783691" width="27" height="19" fill="black">
<rect fill="white" y="0.783691" width="27" height="19"/>
<path d="M5.6549 18.6864C4.76019 18.6864 4.01863 18.4849 3.42216 18.0819C2.82569 17.6789 2.35012 17.1509 1.9995 16.498C1.64484 15.8451 1.39093 15.1358 1.23375 14.3701C1.07658 13.6043 1 12.8547 1 12.1172C1 11.5368 1.06449 10.896 1.18942 10.1948C1.31839 9.4935 1.51184 8.79627 1.7738 8.09904C2.03577 7.40584 2.37431 6.76504 2.78539 6.18469C3.19647 5.60434 3.6801 5.14086 4.2403 4.79023C4.8005 4.44363 5.4413 4.27034 6.16271 4.27034C6.67454 4.27034 7.10175 4.40333 7.44835 4.6653C7.79495 4.92726 8.07706 5.2658 8.29872 5.67688C8.51635 6.08796 8.67354 6.52726 8.76623 6.99476C8.85893 7.46227 8.90325 7.90156 8.90325 8.31264C8.90325 8.44161 8.8831 8.66327 8.83877 8.98166C8.79444 9.30005 8.73399 9.64261 8.64935 10.0013C8.56472 10.364 8.45993 10.6703 8.33097 10.9242C8.202 11.1781 8.05288 11.3071 7.88361 11.3071C7.83928 11.3071 7.81107 11.2869 7.78689 11.2426C7.76674 11.1983 7.75464 11.166 7.75464 11.1378C7.75464 11.0935 7.81107 10.9524 7.92392 10.7106C8.03676 10.4688 8.14558 10.1665 8.25439 9.79576C8.35918 9.42901 8.4156 9.04614 8.4156 8.64715C8.4156 8.34891 8.38336 7.99425 8.31887 7.58317C8.25439 7.17209 8.14558 6.76504 7.9884 6.36202C7.83122 5.959 7.62165 5.62449 7.35968 5.36252C7.09772 5.10056 6.76724 4.96756 6.37228 4.96756C5.71939 4.96756 5.135 5.12877 4.61914 5.45522C4.10327 5.78167 3.65188 6.2129 3.26901 6.75295C2.88614 7.293 2.57179 7.88141 2.32191 8.51818C2.07204 9.15496 1.88665 9.79576 1.75768 10.4406C1.62872 11.0854 1.56826 11.6779 1.56826 12.2179C1.56826 12.7983 1.62469 13.4391 1.73753 14.1323C1.85038 14.8255 2.04383 15.4864 2.32191 16.1111C2.6 16.7358 2.98287 17.2436 3.48261 17.6426C3.97833 18.0376 4.60301 18.2391 5.35263 18.2391C6.04583 18.2391 6.70679 18.0819 7.33147 17.7716C7.95615 17.4612 8.54054 17.0461 9.08461 16.5262C9.62869 16.0104 10.1284 15.4381 10.5718 14.8134C11.0191 14.1887 11.4101 13.5519 11.7526 12.899C12.0912 12.2461 12.3692 11.6376 12.5828 11.0693L14.1345 7.00685L14.4327 6.22096C14.4609 6.14842 14.473 6.0799 14.465 6.00736C14.4569 5.93481 14.4811 5.90257 14.5375 5.90257C14.6221 5.90257 14.6866 5.93884 14.7269 6.00736C14.7713 6.0799 14.7914 6.14842 14.7914 6.22096L14.3037 7.60332C14.1063 8.1998 13.9088 8.79627 13.7194 9.4008C13.5299 10.0053 13.3244 10.6018 13.1148 11.1983C12.9012 11.7786 12.6231 12.4073 12.2765 13.0804C11.93 13.7534 11.5229 14.4184 11.0554 15.0794C10.5879 15.7403 10.072 16.3408 9.50376 16.8849C8.9355 17.429 8.33097 17.8683 7.68613 18.1907C7.0413 18.5212 6.36422 18.6864 5.6549 18.6864ZM24.5566 17.5378C24.0891 17.5378 23.7103 17.3766 23.4201 17.0582C23.1299 16.7398 22.9002 16.3247 22.7309 15.8129C22.5617 15.301 22.4367 14.765 22.3602 14.1968C22.2836 13.6285 22.2352 13.0925 22.2231 12.5806C22.207 12.0688 22.203 11.6577 22.203 11.3474C22.203 10.4406 22.2352 9.52977 22.2997 8.61491C22.3642 7.70005 22.473 6.79728 22.6302 5.90257C22.3199 6.44262 22.0418 7.03506 21.7999 7.6799C21.5581 8.32473 21.3284 8.97763 21.1108 9.63455C20.8891 10.2955 20.6392 10.9121 20.3571 11.4965C20.2725 11.6658 20.1355 11.9237 19.942 12.2623C19.7486 12.6008 19.535 12.9514 19.2932 13.3141C19.0513 13.6769 18.8055 13.9791 18.5476 14.229C18.2937 14.4789 18.0639 14.5998 17.8665 14.5998C17.2861 14.5998 16.8186 14.4104 16.4639 14.0275C16.1093 13.6446 15.8393 13.165 15.6579 12.5806C15.4725 12.0003 15.3516 11.4078 15.2871 10.8033C15.2226 10.2028 15.1904 9.68695 15.1904 9.26377C15.1904 8.63909 15.2226 8.01844 15.2871 7.39375C15.3516 6.76907 15.3838 6.15245 15.3838 5.54388C15.3838 5.23356 15.3556 4.92726 15.2992 4.62902C15.2428 4.33079 15.2146 4.04061 15.2146 3.7585C15.2146 3.46026 15.3476 3.31114 15.6176 3.31114C15.8715 3.31114 16.0448 3.42399 16.1375 3.64968C16.2302 3.87537 16.2786 4.12928 16.2866 4.40333C16.2947 4.68142 16.2987 4.91114 16.2987 5.0925C16.2987 5.83003 16.2503 6.56756 16.1496 7.30509C16.0488 8.04262 16.0005 8.78821 16.0005 9.53783C16.0005 9.81994 16.0206 10.2068 16.065 10.6985C16.1093 11.1862 16.1899 11.6819 16.3108 12.1776C16.4317 12.6733 16.609 13.0965 16.8428 13.4431C17.0765 13.7897 17.3869 13.963 17.7657 13.963C17.935 13.963 18.1325 13.8502 18.3622 13.6245C18.5879 13.3988 18.8176 13.1247 19.0433 12.8063C19.269 12.4879 19.4705 12.1776 19.6478 11.8834C19.8251 11.5852 19.9501 11.3595 20.0186 11.2023C20.5143 10.1383 20.9778 9.06226 21.4131 7.97007C21.8443 6.87789 22.2392 5.77361 22.5939 4.65321C22.735 4.24212 22.8518 3.81895 22.9445 3.37563C23.0372 2.93633 23.1541 2.51719 23.2952 2.12223C23.3677 1.89654 23.5088 1.78369 23.7224 1.78369C23.9078 1.78369 24.0528 1.84414 24.1576 1.96505C24.2624 2.08596 24.3188 2.23105 24.3188 2.40031C24.3188 2.62601 24.2745 2.92827 24.1818 3.30308C24.0891 3.67789 23.9924 4.0527 23.8957 4.41945C23.7949 4.7862 23.7183 5.10056 23.6619 5.35446C23.4362 6.40232 23.2549 7.45824 23.1178 8.52221C22.9848 9.58619 22.9163 10.6542 22.9163 11.7343C22.9163 11.96 22.9284 12.2784 22.9486 12.6895C22.9687 13.1005 23.009 13.5479 23.0654 14.0275C23.1219 14.5111 23.2186 14.9706 23.3516 15.4099C23.4846 15.8492 23.6579 16.2078 23.8715 16.4819C24.0851 16.76 24.3551 16.897 24.6775 16.897C24.9314 16.897 25.1329 16.8043 25.274 16.6189C25.4151 16.4335 25.5319 16.2522 25.6246 16.0668C25.7173 15.8814 25.8181 15.7887 25.9309 15.7887C26.0156 15.7887 26.0599 15.8371 26.0599 15.9378C26.0599 16.1514 25.9833 16.3811 25.8261 16.627C25.669 16.8728 25.4795 17.0864 25.2538 17.2638C25.012 17.4491 24.7823 17.5378 24.5566 17.5378Z"/>
</mask>
<path d="M5.6549 18.6864C4.76019 18.6864 4.01863 18.4849 3.42216 18.0819C2.82569 17.6789 2.35012 17.1509 1.9995 16.498C1.64484 15.8451 1.39093 15.1358 1.23375 14.3701C1.07658 13.6043 1 12.8547 1 12.1172C1 11.5368 1.06449 10.896 1.18942 10.1948C1.31839 9.4935 1.51184 8.79627 1.7738 8.09904C2.03577 7.40584 2.37431 6.76504 2.78539 6.18469C3.19647 5.60434 3.6801 5.14086 4.2403 4.79023C4.8005 4.44363 5.4413 4.27034 6.16271 4.27034C6.67454 4.27034 7.10175 4.40333 7.44835 4.6653C7.79495 4.92726 8.07706 5.2658 8.29872 5.67688C8.51635 6.08796 8.67354 6.52726 8.76623 6.99476C8.85893 7.46227 8.90325 7.90156 8.90325 8.31264C8.90325 8.44161 8.8831 8.66327 8.83877 8.98166C8.79444 9.30005 8.73399 9.64261 8.64935 10.0013C8.56472 10.364 8.45993 10.6703 8.33097 10.9242C8.202 11.1781 8.05288 11.3071 7.88361 11.3071C7.83928 11.3071 7.81107 11.2869 7.78689 11.2426C7.76674 11.1983 7.75464 11.166 7.75464 11.1378C7.75464 11.0935 7.81107 10.9524 7.92392 10.7106C8.03676 10.4688 8.14558 10.1665 8.25439 9.79576C8.35918 9.42901 8.4156 9.04614 8.4156 8.64715C8.4156 8.34891 8.38336 7.99425 8.31887 7.58317C8.25439 7.17209 8.14558 6.76504 7.9884 6.36202C7.83122 5.959 7.62165 5.62449 7.35968 5.36252C7.09772 5.10056 6.76724 4.96756 6.37228 4.96756C5.71939 4.96756 5.135 5.12877 4.61914 5.45522C4.10327 5.78167 3.65188 6.2129 3.26901 6.75295C2.88614 7.293 2.57179 7.88141 2.32191 8.51818C2.07204 9.15496 1.88665 9.79576 1.75768 10.4406C1.62872 11.0854 1.56826 11.6779 1.56826 12.2179C1.56826 12.7983 1.62469 13.4391 1.73753 14.1323C1.85038 14.8255 2.04383 15.4864 2.32191 16.1111C2.6 16.7358 2.98287 17.2436 3.48261 17.6426C3.97833 18.0376 4.60301 18.2391 5.35263 18.2391C6.04583 18.2391 6.70679 18.0819 7.33147 17.7716C7.95615 17.4612 8.54054 17.0461 9.08461 16.5262C9.62869 16.0104 10.1284 15.4381 10.5718 14.8134C11.0191 14.1887 11.4101 13.5519 11.7526 12.899C12.0912 12.2461 12.3692 11.6376 12.5828 11.0693L14.1345 7.00685L14.4327 6.22096C14.4609 6.14842 14.473 6.0799 14.465 6.00736C14.4569 5.93481 14.4811 5.90257 14.5375 5.90257C14.6221 5.90257 14.6866 5.93884 14.7269 6.00736C14.7713 6.0799 14.7914 6.14842 14.7914 6.22096L14.3037 7.60332C14.1063 8.1998 13.9088 8.79627 13.7194 9.4008C13.5299 10.0053 13.3244 10.6018 13.1148 11.1983C12.9012 11.7786 12.6231 12.4073 12.2765 13.0804C11.93 13.7534 11.5229 14.4184 11.0554 15.0794C10.5879 15.7403 10.072 16.3408 9.50376 16.8849C8.9355 17.429 8.33097 17.8683 7.68613 18.1907C7.0413 18.5212 6.36422 18.6864 5.6549 18.6864ZM24.5566 17.5378C24.0891 17.5378 23.7103 17.3766 23.4201 17.0582C23.1299 16.7398 22.9002 16.3247 22.7309 15.8129C22.5617 15.301 22.4367 14.765 22.3602 14.1968C22.2836 13.6285 22.2352 13.0925 22.2231 12.5806C22.207 12.0688 22.203 11.6577 22.203 11.3474C22.203 10.4406 22.2352 9.52977 22.2997 8.61491C22.3642 7.70005 22.473 6.79728 22.6302 5.90257C22.3199 6.44262 22.0418 7.03506 21.7999 7.6799C21.5581 8.32473 21.3284 8.97763 21.1108 9.63455C20.8891 10.2955 20.6392 10.9121 20.3571 11.4965C20.2725 11.6658 20.1355 11.9237 19.942 12.2623C19.7486 12.6008 19.535 12.9514 19.2932 13.3141C19.0513 13.6769 18.8055 13.9791 18.5476 14.229C18.2937 14.4789 18.0639 14.5998 17.8665 14.5998C17.2861 14.5998 16.8186 14.4104 16.4639 14.0275C16.1093 13.6446 15.8393 13.165 15.6579 12.5806C15.4725 12.0003 15.3516 11.4078 15.2871 10.8033C15.2226 10.2028 15.1904 9.68695 15.1904 9.26377C15.1904 8.63909 15.2226 8.01844 15.2871 7.39375C15.3516 6.76907 15.3838 6.15245 15.3838 5.54388C15.3838 5.23356 15.3556 4.92726 15.2992 4.62902C15.2428 4.33079 15.2146 4.04061 15.2146 3.7585C15.2146 3.46026 15.3476 3.31114 15.6176 3.31114C15.8715 3.31114 16.0448 3.42399 16.1375 3.64968C16.2302 3.87537 16.2786 4.12928 16.2866 4.40333C16.2947 4.68142 16.2987 4.91114 16.2987 5.0925C16.2987 5.83003 16.2503 6.56756 16.1496 7.30509C16.0488 8.04262 16.0005 8.78821 16.0005 9.53783C16.0005 9.81994 16.0206 10.2068 16.065 10.6985C16.1093 11.1862 16.1899 11.6819 16.3108 12.1776C16.4317 12.6733 16.609 13.0965 16.8428 13.4431C17.0765 13.7897 17.3869 13.963 17.7657 13.963C17.935 13.963 18.1325 13.8502 18.3622 13.6245C18.5879 13.3988 18.8176 13.1247 19.0433 12.8063C19.269 12.4879 19.4705 12.1776 19.6478 11.8834C19.8251 11.5852 19.9501 11.3595 20.0186 11.2023C20.5143 10.1383 20.9778 9.06226 21.4131 7.97007C21.8443 6.87789 22.2392 5.77361 22.5939 4.65321C22.735 4.24212 22.8518 3.81895 22.9445 3.37563C23.0372 2.93633 23.1541 2.51719 23.2952 2.12223C23.3677 1.89654 23.5088 1.78369 23.7224 1.78369C23.9078 1.78369 24.0528 1.84414 24.1576 1.96505C24.2624 2.08596 24.3188 2.23105 24.3188 2.40031C24.3188 2.62601 24.2745 2.92827 24.1818 3.30308C24.0891 3.67789 23.9924 4.0527 23.8957 4.41945C23.7949 4.7862 23.7183 5.10056 23.6619 5.35446C23.4362 6.40232 23.2549 7.45824 23.1178 8.52221C22.9848 9.58619 22.9163 10.6542 22.9163 11.7343C22.9163 11.96 22.9284 12.2784 22.9486 12.6895C22.9687 13.1005 23.009 13.5479 23.0654 14.0275C23.1219 14.5111 23.2186 14.9706 23.3516 15.4099C23.4846 15.8492 23.6579 16.2078 23.8715 16.4819C24.0851 16.76 24.3551 16.897 24.6775 16.897C24.9314 16.897 25.1329 16.8043 25.274 16.6189C25.4151 16.4335 25.5319 16.2522 25.6246 16.0668C25.7173 15.8814 25.8181 15.7887 25.9309 15.7887C26.0156 15.7887 26.0599 15.8371 26.0599 15.9378C26.0599 16.1514 25.9833 16.3811 25.8261 16.627C25.669 16.8728 25.4795 17.0864 25.2538 17.2638C25.012 17.4491 24.7823 17.5378 24.5566 17.5378Z" fill="#11243D"/>
<path d="M5.6549 18.6864C4.76019 18.6864 4.01863 18.4849 3.42216 18.0819C2.82569 17.6789 2.35012 17.1509 1.9995 16.498C1.64484 15.8451 1.39093 15.1358 1.23375 14.3701C1.07658 13.6043 1 12.8547 1 12.1172C1 11.5368 1.06449 10.896 1.18942 10.1948C1.31839 9.4935 1.51184 8.79627 1.7738 8.09904C2.03577 7.40584 2.37431 6.76504 2.78539 6.18469C3.19647 5.60434 3.6801 5.14086 4.2403 4.79023C4.8005 4.44363 5.4413 4.27034 6.16271 4.27034C6.67454 4.27034 7.10175 4.40333 7.44835 4.6653C7.79495 4.92726 8.07706 5.2658 8.29872 5.67688C8.51635 6.08796 8.67354 6.52726 8.76623 6.99476C8.85893 7.46227 8.90325 7.90156 8.90325 8.31264C8.90325 8.44161 8.8831 8.66327 8.83877 8.98166C8.79444 9.30005 8.73399 9.64261 8.64935 10.0013C8.56472 10.364 8.45993 10.6703 8.33097 10.9242C8.202 11.1781 8.05288 11.3071 7.88361 11.3071C7.83928 11.3071 7.81107 11.2869 7.78689 11.2426C7.76674 11.1983 7.75464 11.166 7.75464 11.1378C7.75464 11.0935 7.81107 10.9524 7.92392 10.7106C8.03676 10.4688 8.14558 10.1665 8.25439 9.79576C8.35918 9.42901 8.4156 9.04614 8.4156 8.64715C8.4156 8.34891 8.38336 7.99425 8.31887 7.58317C8.25439 7.17209 8.14558 6.76504 7.9884 6.36202C7.83122 5.959 7.62165 5.62449 7.35968 5.36252C7.09772 5.10056 6.76724 4.96756 6.37228 4.96756C5.71939 4.96756 5.135 5.12877 4.61914 5.45522C4.10327 5.78167 3.65188 6.2129 3.26901 6.75295C2.88614 7.293 2.57179 7.88141 2.32191 8.51818C2.07204 9.15496 1.88665 9.79576 1.75768 10.4406C1.62872 11.0854 1.56826 11.6779 1.56826 12.2179C1.56826 12.7983 1.62469 13.4391 1.73753 14.1323C1.85038 14.8255 2.04383 15.4864 2.32191 16.1111C2.6 16.7358 2.98287 17.2436 3.48261 17.6426C3.97833 18.0376 4.60301 18.2391 5.35263 18.2391C6.04583 18.2391 6.70679 18.0819 7.33147 17.7716C7.95615 17.4612 8.54054 17.0461 9.08461 16.5262C9.62869 16.0104 10.1284 15.4381 10.5718 14.8134C11.0191 14.1887 11.4101 13.5519 11.7526 12.899C12.0912 12.2461 12.3692 11.6376 12.5828 11.0693L14.1345 7.00685L14.4327 6.22096C14.4609 6.14842 14.473 6.0799 14.465 6.00736C14.4569 5.93481 14.4811 5.90257 14.5375 5.90257C14.6221 5.90257 14.6866 5.93884 14.7269 6.00736C14.7713 6.0799 14.7914 6.14842 14.7914 6.22096L14.3037 7.60332C14.1063 8.1998 13.9088 8.79627 13.7194 9.4008C13.5299 10.0053 13.3244 10.6018 13.1148 11.1983C12.9012 11.7786 12.6231 12.4073 12.2765 13.0804C11.93 13.7534 11.5229 14.4184 11.0554 15.0794C10.5879 15.7403 10.072 16.3408 9.50376 16.8849C8.9355 17.429 8.33097 17.8683 7.68613 18.1907C7.0413 18.5212 6.36422 18.6864 5.6549 18.6864ZM24.5566 17.5378C24.0891 17.5378 23.7103 17.3766 23.4201 17.0582C23.1299 16.7398 22.9002 16.3247 22.7309 15.8129C22.5617 15.301 22.4367 14.765 22.3602 14.1968C22.2836 13.6285 22.2352 13.0925 22.2231 12.5806C22.207 12.0688 22.203 11.6577 22.203 11.3474C22.203 10.4406 22.2352 9.52977 22.2997 8.61491C22.3642 7.70005 22.473 6.79728 22.6302 5.90257C22.3199 6.44262 22.0418 7.03506 21.7999 7.6799C21.5581 8.32473 21.3284 8.97763 21.1108 9.63455C20.8891 10.2955 20.6392 10.9121 20.3571 11.4965C20.2725 11.6658 20.1355 11.9237 19.942 12.2623C19.7486 12.6008 19.535 12.9514 19.2932 13.3141C19.0513 13.6769 18.8055 13.9791 18.5476 14.229C18.2937 14.4789 18.0639 14.5998 17.8665 14.5998C17.2861 14.5998 16.8186 14.4104 16.4639 14.0275C16.1093 13.6446 15.8393 13.165 15.6579 12.5806C15.4725 12.0003 15.3516 11.4078 15.2871 10.8033C15.2226 10.2028 15.1904 9.68695 15.1904 9.26377C15.1904 8.63909 15.2226 8.01844 15.2871 7.39375C15.3516 6.76907 15.3838 6.15245 15.3838 5.54388C15.3838 5.23356 15.3556 4.92726 15.2992 4.62902C15.2428 4.33079 15.2146 4.04061 15.2146 3.7585C15.2146 3.46026 15.3476 3.31114 15.6176 3.31114C15.8715 3.31114 16.0448 3.42399 16.1375 3.64968C16.2302 3.87537 16.2786 4.12928 16.2866 4.40333C16.2947 4.68142 16.2987 4.91114 16.2987 5.0925C16.2987 5.83003 16.2503 6.56756 16.1496 7.30509C16.0488 8.04262 16.0005 8.78821 16.0005 9.53783C16.0005 9.81994 16.0206 10.2068 16.065 10.6985C16.1093 11.1862 16.1899 11.6819 16.3108 12.1776C16.4317 12.6733 16.609 13.0965 16.8428 13.4431C17.0765 13.7897 17.3869 13.963 17.7657 13.963C17.935 13.963 18.1325 13.8502 18.3622 13.6245C18.5879 13.3988 18.8176 13.1247 19.0433 12.8063C19.269 12.4879 19.4705 12.1776 19.6478 11.8834C19.8251 11.5852 19.9501 11.3595 20.0186 11.2023C20.5143 10.1383 20.9778 9.06226 21.4131 7.97007C21.8443 6.87789 22.2392 5.77361 22.5939 4.65321C22.735 4.24212 22.8518 3.81895 22.9445 3.37563C23.0372 2.93633 23.1541 2.51719 23.2952 2.12223C23.3677 1.89654 23.5088 1.78369 23.7224 1.78369C23.9078 1.78369 24.0528 1.84414 24.1576 1.96505C24.2624 2.08596 24.3188 2.23105 24.3188 2.40031C24.3188 2.62601 24.2745 2.92827 24.1818 3.30308C24.0891 3.67789 23.9924 4.0527 23.8957 4.41945C23.7949 4.7862 23.7183 5.10056 23.6619 5.35446C23.4362 6.40232 23.2549 7.45824 23.1178 8.52221C22.9848 9.58619 22.9163 10.6542 22.9163 11.7343C22.9163 11.96 22.9284 12.2784 22.9486 12.6895C22.9687 13.1005 23.009 13.5479 23.0654 14.0275C23.1219 14.5111 23.2186 14.9706 23.3516 15.4099C23.4846 15.8492 23.6579 16.2078 23.8715 16.4819C24.0851 16.76 24.3551 16.897 24.6775 16.897C24.9314 16.897 25.1329 16.8043 25.274 16.6189C25.4151 16.4335 25.5319 16.2522 25.6246 16.0668C25.7173 15.8814 25.8181 15.7887 25.9309 15.7887C26.0156 15.7887 26.0599 15.8371 26.0599 15.9378C26.0599 16.1514 25.9833 16.3811 25.8261 16.627C25.669 16.8728 25.4795 17.0864 25.2538 17.2638C25.012 17.4491 24.7823 17.5378 24.5566 17.5378Z" stroke="#11243D" stroke-width="0.6" mask="url(#path-1-outside-1_420_23628)"/>
<path d="M25.1057 13.5231L25.1056 13.5233C25.0037 14.1352 24.9545 14.7117 24.9545 15.2608C24.9545 15.4258 24.9713 15.6577 24.9995 15.956C25.0292 16.2701 25.106 16.5536 25.2273 16.8051C25.2929 16.9409 25.3817 17.0518 25.4975 17.1281C25.614 17.2048 25.7484 17.2405 25.8944 17.2405C26.186 17.2405 26.4573 17.0717 26.701 16.7817C26.9514 16.5017 27.1948 16.15 27.432 15.7248C27.6678 15.3019 27.8914 14.8587 28.0988 14.3951L28.099 14.3946C28.305 13.9302 28.4871 13.5053 28.6452 13.1122C28.664 13.0654 28.6823 13.0199 28.7001 12.9759C28.7073 13.3106 28.7397 13.6665 28.797 14.0459C28.864 14.4901 28.999 14.8727 29.2006 15.1986L29.2011 15.1994C29.4187 15.5466 29.7455 15.7251 30.1664 15.7251C30.443 15.7251 30.7326 15.595 31.0348 15.3642C31.3365 15.1379 31.6347 14.8431 31.9298 14.4906C32.2241 14.1391 32.4938 13.7713 32.7388 13.3915L32.7392 13.3909C32.9837 13.0078 33.1806 12.6554 33.333 12.3299C33.4841 12.0074 33.5688 11.7365 33.5688 11.5328C33.5688 11.4552 33.5545 11.3687 33.5005 11.2992C33.4408 11.2224 33.3545 11.1934 33.2697 11.1934C33.2056 11.1934 33.1558 11.2255 33.1277 11.247C33.0959 11.2715 33.0654 11.3033 33.0366 11.3375C32.9785 11.4064 32.9115 11.5045 32.8357 11.6274C32.6863 11.8698 32.5046 12.1685 32.2908 12.5234C32.0785 12.876 31.8544 13.2282 31.6143 13.5803C31.3774 13.9277 31.1342 14.2175 30.8892 14.4509C30.6486 14.6801 30.4421 14.7722 30.2712 14.7722C30.0747 14.7722 29.956 14.7014 29.8819 14.5703C29.7874 14.4032 29.7247 14.2127 29.6987 13.9975L29.6988 13.9975L29.6984 13.9949C29.6671 13.7677 29.6555 13.573 29.6555 13.4109C29.6555 12.9538 29.7028 12.4801 29.8017 11.9854L29.8019 11.9843C29.8984 11.4815 29.995 11.0068 30.0877 10.5514C30.1818 10.0932 30.2278 9.69177 30.2278 9.35248C30.2278 9.18893 30.19 9.03821 30.0866 8.92865C30.0136 8.85122 29.9202 8.80728 29.8162 8.78771C29.8219 8.75673 29.8248 8.72463 29.8248 8.69152C29.8248 8.37277 29.6407 8.09975 29.3381 7.87067C29.0409 7.64563 28.7477 7.52187 28.4617 7.52187C28.0933 7.52187 27.75 7.71893 27.4284 8.06997C27.1119 8.41159 26.8229 8.82947 26.5565 9.32134C26.2919 9.80971 26.0678 10.2864 25.8802 10.7513C25.694 11.2129 25.5672 11.5683 25.4928 11.8162C25.3334 12.3474 25.2072 12.9179 25.1057 13.5231ZM26.5595 15.6048L26.5591 15.6055C26.4506 15.7701 26.3522 15.8848 26.2652 15.9568C26.178 16.0291 26.1131 16.0498 26.0677 16.0498C26.0676 16.0498 26.0674 16.0498 26.0672 16.0498C26.0652 16.05 26.061 16.0504 26.0499 16.0378C26.0336 16.0192 26.0112 15.9803 25.99 15.9078C25.9454 15.7553 25.9189 15.5901 25.9113 15.4116C25.9032 15.2214 25.8993 15.0998 25.8993 15.0472C25.8993 14.0257 26.0424 13.0361 26.3207 12.0701L26.3207 12.0701L26.321 12.069C26.3756 11.8739 26.4745 11.5847 26.6232 11.1866C26.7701 10.7975 26.9489 10.3962 27.1676 9.9828L27.1678 9.98233C27.3819 9.57391 27.6064 9.22398 27.8406 8.93511C28.0685 8.65403 28.28 8.54328 28.4697 8.54328C28.6517 8.54328 28.7388 8.58732 28.7821 8.63888L28.7821 8.6389L28.784 8.64118C28.8612 8.72941 28.9271 8.82462 28.978 8.91889C29.0141 8.98822 29.0618 9.04965 29.1257 9.09367C29.1564 9.11479 29.189 9.13061 29.2229 9.14148C29.1823 9.239 29.1339 9.36672 29.078 9.52389C28.949 9.88669 28.7877 10.3423 28.5982 10.8866C28.405 11.43 28.1958 12.0094 27.9705 12.6169C27.7421 13.2259 27.5059 13.7904 27.2618 14.3186C27.0137 14.8429 26.7795 15.2748 26.5595 15.6048Z" fill="#11243D" stroke="#11243D" stroke-width="0.3"/>
<path d="M36.607 8.60698L36.7194 8.50774C36.6332 8.40995 36.5168 8.3522 36.3853 8.3522C36.27 8.3522 36.1554 8.39714 36.0463 8.46605C35.9361 8.53562 35.8215 8.63596 35.7034 8.76257C35.4716 9.01085 35.2374 9.30703 35.0004 9.65021C34.7652 9.99087 34.554 10.3158 34.3668 10.625C34.2632 10.7962 34.1783 10.9388 34.1106 11.0542C34.0344 10.9341 33.9411 10.7982 33.8304 10.6465C33.6392 10.3847 33.427 10.1474 33.1936 9.93487L33.1936 9.93485L33.1915 9.93301C32.9482 9.71954 32.6965 9.58947 32.4317 9.58947C32.3584 9.58947 32.2873 9.60586 32.2225 9.64372C32.1582 9.68131 32.1083 9.7353 32.0698 9.79851C32.0008 9.91177 31.9633 10.0311 31.9633 10.1626C31.9633 10.249 31.9863 10.3302 32.0357 10.4028C32.0837 10.4733 32.1514 10.5277 32.2292 10.5715L32.2291 10.5716L32.235 10.5746C32.5902 10.7541 32.869 10.954 33.076 11.1722C33.2641 11.3743 33.4425 11.6341 33.6101 11.9512C33.4595 12.1385 33.3087 12.4063 33.1535 12.7485C32.9744 13.1433 32.7994 13.5747 32.6366 14.0467C32.4698 14.5187 32.3395 14.9626 32.2376 15.3783C32.1356 15.7945 32.0842 16.1342 32.0842 16.3934C32.0842 16.5005 32.0974 16.6335 32.1178 16.7842L32.2663 16.7642L32.1178 16.7842C32.1303 16.877 32.1619 16.9685 32.2304 17.037C32.3019 17.1085 32.3943 17.1358 32.4881 17.1358C32.5653 17.1358 32.6427 17.1192 32.7091 17.074C32.7769 17.0278 32.819 16.9614 32.8412 16.8884L32.8416 16.8886L32.8442 16.8766C32.8653 16.7796 32.8799 16.687 32.8799 16.5989C32.8799 15.928 33.024 15.2767 33.3211 14.6435L33.3213 14.6431C33.5736 14.1015 33.8315 13.5768 34.0905 13.0711C34.0982 13.0905 34.1059 13.1099 34.1136 13.1293C34.2341 13.4317 34.353 13.7302 34.468 14.0291L34.468 14.0291L34.4684 14.0302C34.6331 14.4479 34.7898 14.8658 34.9468 15.2925L34.9463 15.2927L34.9516 15.3042C34.9839 15.3733 35.0209 15.4336 35.0621 15.489C35.1235 15.5785 35.2186 15.6245 35.3213 15.6245C35.4202 15.6245 35.5218 15.6019 35.5988 15.5308C35.6782 15.4577 35.7051 15.3578 35.7051 15.2609C35.7051 15.0928 35.6551 14.8573 35.5704 14.559L35.5703 14.5584C35.4849 14.2618 35.3832 13.9364 35.2611 13.5943C35.1395 13.254 35.0179 12.9336 34.8961 12.6332C34.7957 12.3855 34.7126 12.1853 34.6436 12.0397C34.6984 11.9582 34.7856 11.8312 34.9043 11.6591C35.0624 11.4353 35.239 11.1822 35.4406 10.8931L35.4685 10.853L35.4686 10.853L35.4693 10.8519C35.6777 10.5473 35.8903 10.2505 36.1031 9.96139L36.1031 9.9614L36.1039 9.96029C36.3142 9.66906 36.5569 9.32523 36.8279 8.92481L36.8537 8.88672V8.84073C36.8537 8.71309 36.8035 8.60225 36.7191 8.50733L36.607 8.60698ZM36.607 8.60698C36.6715 8.67953 36.7037 8.7561 36.7037 8.84073M36.607 8.60698C36.5465 8.53847 36.4699 8.5022 36.3853 8.5022C36.2322 8.5022 36.0387 8.6231 35.813 8.86492C35.5873 9.10673 35.3576 9.3969 35.1239 9.73544C34.8901 10.074 34.6805 10.3964 34.4951 10.7027C34.3696 10.9101 34.2718 11.0749 34.1992 11.1998L36.7037 8.84073M36.7037 8.84073C36.4337 9.23973 36.1919 9.5823 35.9823 9.87247C35.7687 10.1626 35.5551 10.4609 35.3455 10.7672L36.7037 8.84073Z" fill="#11243D" stroke="#11243D" stroke-width="0.3"/>
<path d="M40.9869 8.60698L41.0993 8.50774C41.0131 8.40995 40.8967 8.3522 40.7652 8.3522C40.6499 8.3522 40.5353 8.39714 40.4262 8.46605C40.316 8.53562 40.2014 8.63596 40.0832 8.76257C39.8515 9.01085 39.6173 9.30703 39.3803 9.65021C39.1451 9.99087 38.9338 10.3158 38.7467 10.625C38.6431 10.7962 38.5581 10.9388 38.4905 11.0542C38.4143 10.9341 38.321 10.7982 38.2103 10.6465C38.0191 10.3847 37.8069 10.1474 37.5735 9.93487L37.5735 9.93485L37.5714 9.93301C37.3281 9.71954 37.0764 9.58947 36.8115 9.58947C36.7383 9.58947 36.6671 9.60586 36.6024 9.64372C36.538 9.68131 36.4881 9.7353 36.4497 9.79851C36.3807 9.91177 36.3432 10.0311 36.3432 10.1626C36.3432 10.249 36.3661 10.3302 36.4155 10.4028C36.4636 10.4733 36.5312 10.5277 36.609 10.5715L36.609 10.5716L36.6149 10.5746C36.97 10.7541 37.2489 10.954 37.4559 11.1722C37.644 11.3743 37.8224 11.6341 37.99 11.9512C37.8394 12.1385 37.6886 12.4063 37.5334 12.7485C37.3543 13.1433 37.1793 13.5747 37.0165 14.0467C36.8497 14.5187 36.7194 14.9626 36.6175 15.3783C36.5155 15.7945 36.4641 16.1342 36.4641 16.3934C36.4641 16.5005 36.4773 16.6335 36.4977 16.7842L36.6463 16.7641L36.4977 16.7842C36.5102 16.877 36.5418 16.9685 36.6103 17.037C36.6818 17.1085 36.7742 17.1358 36.868 17.1358C36.9456 17.1358 37.0223 17.1191 37.0883 17.0734C37.1549 17.0274 37.1954 16.9625 37.2192 16.894L37.2222 16.8855L37.2241 16.8766C37.2452 16.7797 37.2598 16.6871 37.2598 16.5989C37.2598 15.928 37.4039 15.2767 37.701 14.6435L37.7012 14.6431C37.9534 14.1015 38.2114 13.5768 38.4704 13.0711C38.4781 13.0905 38.4858 13.1099 38.4935 13.1293C38.614 13.4317 38.7329 13.7302 38.8479 14.0291L38.8479 14.0291L38.8483 14.0302C39.013 14.4479 39.1697 14.8658 39.3267 15.2925L39.3262 15.2927L39.3315 15.3042C39.3638 15.3733 39.4008 15.4336 39.442 15.489C39.5034 15.5785 39.5985 15.6245 39.7012 15.6245C39.8001 15.6245 39.9016 15.6019 39.9787 15.5308C40.0581 15.4577 40.085 15.3578 40.085 15.2609C40.085 15.0928 40.035 14.8573 39.9503 14.559L39.9502 14.5584C39.8648 14.2618 39.7631 13.9364 39.641 13.5943C39.5194 13.254 39.3978 12.9336 39.276 12.6332C39.1756 12.3855 39.0925 12.1853 39.0235 12.0397C39.0783 11.9582 39.1654 11.8312 39.2842 11.6591C39.4423 11.4353 39.6189 11.1822 39.8204 10.8931L39.8484 10.853L39.8484 10.853L39.8492 10.8519C40.0576 10.5473 40.2701 10.2505 40.483 9.96139L40.483 9.9614L40.4838 9.96029C40.6941 9.66906 40.9368 9.32523 41.2078 8.92481L41.2336 8.88672V8.84073C41.2336 8.71309 41.1833 8.60225 41.099 8.50733L40.9869 8.60698ZM40.9869 8.60698C41.0513 8.67953 41.0836 8.7561 41.0836 8.84073M40.9869 8.60698C40.9264 8.53847 40.8498 8.5022 40.7652 8.5022C40.612 8.5022 40.4186 8.6231 40.1929 8.86492C39.9672 9.10673 39.7375 9.3969 39.5037 9.73544C39.27 10.074 39.0604 10.3964 38.875 10.7027C38.7495 10.9101 38.6517 11.0749 38.5791 11.1998L41.0836 8.84073M41.0836 8.84073C40.8136 9.23973 40.5717 9.5823 40.3622 9.87247C40.1486 10.1626 39.935 10.4609 39.7254 10.7672L41.0836 8.84073Z" fill="#11243D" stroke="#11243D" stroke-width="0.3"/>
<path d="M40.8949 15.0314L40.8949 15.0314C40.9682 14.9377 41.0606 14.8794 41.1682 14.8532C41.1973 14.3393 41.244 13.8252 41.3116 13.3109C41.3395 13.0987 41.3668 12.8866 41.3941 12.6754C41.4375 12.3386 41.4806 12.0041 41.5252 11.6747C41.5543 11.4426 41.6278 11.0308 41.7487 10.4428C41.8701 9.85208 42.0276 9.16112 42.2173 8.37435C42.4073 7.58591 42.6256 6.77355 42.868 5.94535C43.1106 5.11243 43.3615 4.33946 43.6247 3.61851C43.8887 2.89566 44.1585 2.30572 44.4352 1.84736C44.5743 1.61682 44.7147 1.43516 44.8584 1.30964C45.0024 1.18385 45.16 1.10586 45.3293 1.10586C45.6595 1.10586 45.9125 1.26954 46.0771 1.56588C46.227 1.8357 46.3329 2.1419 46.3919 2.47502C46.449 2.79744 46.4788 3.06506 46.4788 3.27903C46.4788 3.47101 46.4663 3.65792 46.4457 3.84738C46.4253 4.03518 46.4008 4.21867 46.3723 4.40588L46.3713 4.41249L46.3712 4.41246C46.2856 4.84442 46.1798 5.26742 46.0623 5.68909L46.0619 5.69037C45.9401 6.11269 45.8019 6.53136 45.6433 6.94628M40.8949 15.0314L41.1856 18.6577C41.214 19.2388 41.2709 19.8232 41.3479 20.4147C41.4251 21.0079 41.5268 21.5619 41.6575 22.0804C41.7889 22.6018 41.9595 23.0305 42.1776 23.3598C42.4024 23.6993 42.6941 23.8945 43.0563 23.8945C43.3979 23.8945 43.6759 23.7626 43.8751 23.5112L43.8752 23.5112L43.8776 23.508C44.062 23.2621 44.1944 22.9553 44.2746 22.6007C44.3526 22.256 44.4064 21.9135 44.4272 21.5775M40.8949 15.0314L40.8943 15.0321C40.8057 15.1468 40.7582 15.2838 40.7582 15.4301C40.7582 15.7391 40.8838 16.0054 41.1211 16.2204C41.1218 16.4219 41.1258 16.7224 41.133 17.1215C41.1411 17.5704 41.1573 18.0838 41.1856 18.6576L40.8949 15.0314ZM45.6433 6.94628C45.5848 7.1089 45.4784 7.36642 45.3214 7.72065C45.1629 8.07839 44.972 8.47628 44.7449 8.91028C44.5176 9.34447 44.2781 9.7668 44.0261 10.1732C43.773 10.5814 43.521 10.9252 43.2616 11.1972C43.0483 11.4208 42.8324 11.5785 42.6142 11.6247C42.5183 12.2244 42.4149 12.8172 42.3007 13.3996C42.1864 13.9826 42.1269 14.5882 42.1224 15.2168C42.2443 15.3064 42.361 15.4006 42.4695 15.5018C42.576 15.6012 42.6733 15.7063 42.7638 15.8168C43.0636 15.7798 43.3612 15.6672 43.6607 15.477C43.9889 15.266 44.3024 15.0075 44.5891 14.7129L44.5891 14.7129C44.8856 14.4084 45.1566 14.1134 45.399 13.8194C45.4592 13.7463 45.5171 13.6764 45.5724 13.6095C45.7444 13.4016 45.8925 13.2226 46.0133 13.0686C46.0963 12.9628 46.1705 12.8791 46.2344 12.8204C46.2663 12.7912 46.299 12.765 46.3317 12.7453C46.3613 12.7275 46.4073 12.7048 46.4618 12.7048C46.5076 12.7048 46.5537 12.719 46.593 12.7508C46.6288 12.7798 46.65 12.8161 46.6634 12.8463L46.6663 12.8529L46.6686 12.8598C46.6817 12.8991 46.6965 12.9504 46.6965 13.0039C46.6965 13.2823 46.5319 13.6107 46.2504 13.9778C45.9667 14.3479 45.6265 14.7206 45.2225 15.1002C44.8209 15.4774 44.4337 15.8118 44.049 16.0983M45.6433 6.94628C45.6435 6.94579 45.6437 6.9453 45.6438 6.94481L45.5027 6.89413L45.6428 6.9477C45.6429 6.94723 45.6431 6.94675 45.6433 6.94628ZM44.049 16.0983C43.7648 16.3122 43.523 16.4728 43.3249 16.5733C43.7342 17.1705 44.0215 17.8108 44.1894 18.4936C44.3697 19.2271 44.4597 19.9847 44.4597 20.7621C44.4597 20.9805 44.4474 21.2543 44.4272 21.5775M44.049 16.0983C44.0491 16.0983 44.0492 16.0982 44.0493 16.0981L43.9591 15.9782L44.0487 16.0986C44.0488 16.0985 44.0489 16.0984 44.049 16.0983ZM44.4272 21.5775L44.2775 21.5682L44.4272 21.5774C44.4272 21.5774 44.4272 21.5775 44.4272 21.5775ZM43.0966 16.5102C43.1272 16.5521 43.1571 16.5942 43.1863 16.6366L43.2377 16.4492C43.1868 16.4744 43.1397 16.4947 43.0966 16.5102ZM43.0718 18.1112L43.0722 18.1121C43.2614 18.6445 43.384 19.1973 43.4473 19.7671C43.5112 20.3421 43.5431 20.9089 43.5431 21.4714C43.5431 21.6509 43.5314 21.8717 43.5113 22.1402C43.4881 22.3947 43.4383 22.6215 43.3602 22.8187C43.3243 22.9092 43.2832 22.9637 43.243 22.9955C43.2049 23.0255 43.1589 23.0423 43.0966 23.0423C43.0276 23.0423 42.9183 22.9831 42.8002 22.7042C42.688 22.4216 42.5858 22.0572 42.5026 21.6055C42.4186 21.1499 42.3466 20.658 42.2906 20.1297C42.2344 19.5996 42.1903 19.0862 42.1622 18.5855C42.1341 18.0834 42.1181 17.6458 42.11 17.2727C42.1049 17.0342 42.1014 16.8469 42.0996 16.7095L42.2526 16.7433C42.6182 17.1437 42.8945 17.6019 43.0718 18.1112ZM43.9613 8.6057L43.9611 8.60612C43.7224 9.09939 43.4768 9.51502 43.2285 9.86172C43.0773 10.073 42.937 10.2215 42.8099 10.3182C42.8706 9.82563 42.9674 9.27372 43.0982 8.66678L43.0982 8.66678L43.0984 8.66569C43.2506 7.9328 43.443 7.18305 43.6678 6.41221C43.8923 5.64235 44.1407 4.90931 44.4169 4.21291C44.6892 3.52627 44.9682 2.93573 45.2574 2.43634C45.2714 2.4258 45.296 2.41073 45.3371 2.39278C45.3978 2.36622 45.4264 2.36102 45.4382 2.36102C45.4838 2.36102 45.502 2.37371 45.5125 2.385C45.5267 2.40037 45.5468 2.4361 45.555 2.51292C45.5753 2.70824 45.5864 2.83698 45.5864 2.91228C45.5864 3.18721 45.5668 3.47001 45.5235 3.76075C45.4795 4.05737 45.4315 4.34496 45.3757 4.62392L45.3755 4.62491C45.3327 4.84694 45.2458 5.17549 45.113 5.62217C44.9814 6.06488 44.8135 6.54887 44.6167 7.07907C44.4164 7.60368 44.2006 8.11508 43.9613 8.6057Z" fill="#11243D" stroke="#11243D" stroke-width="0.3"/>
<path d="M51.3064 13.1195C51.5614 13.0769 51.8219 12.9966 52.0833 12.8887L52.0833 12.8887L52.0852 12.8879C52.3471 12.7757 52.5758 12.6492 52.765 12.5073C52.9679 12.3551 53.091 12.1618 53.091 11.9319C53.091 11.8628 53.0762 11.7836 53.021 11.7206C52.9625 11.654 52.883 11.6328 52.812 11.6328C52.7345 11.6328 52.6611 11.6602 52.595 11.6979C52.5284 11.736 52.4604 11.7897 52.391 11.8547C52.2746 11.9639 52.1091 12.0779 51.8881 12.2042C51.6951 12.3107 51.4086 12.3734 51.0153 12.3744L51.0143 12.3742C51.1214 11.7798 51.1766 11.1783 51.1766 10.5697C51.1766 10.3398 51.1336 10.0492 51.056 9.70639L51.0561 9.70639L51.0558 9.70513C50.9734 9.35515 50.8623 9.00151 50.7186 8.64023C50.5723 8.27237 50.3866 7.95855 50.1597 7.70165C49.9219 7.43245 49.6329 7.28823 49.3017 7.28823C49.1261 7.28823 48.9702 7.34512 48.8524 7.47412C48.7723 7.56184 48.7117 7.6604 48.6653 7.76968C48.3338 7.83305 48.0556 8.06618 47.8291 8.42159C47.5863 8.80254 47.3799 9.27491 47.208 9.82744C47.0329 10.3773 46.8905 10.9469 46.7767 11.532C46.6591 12.1163 46.5777 12.6489 46.5288 13.1298C46.4804 13.6058 46.4555 13.9549 46.4555 14.1768C46.4555 14.3859 46.4722 14.638 46.509 14.9405C46.5464 15.2482 46.6131 15.5529 46.7177 15.8542C46.8236 16.1592 46.9697 16.4235 47.1629 16.6387C47.3684 16.8676 47.6305 16.9867 47.9435 16.9867C48.3523 16.9867 48.7295 16.8283 49.0633 16.5293L49.064 16.5285C49.3877 16.2343 49.6716 15.8704 49.9123 15.4387C50.1493 15.0138 50.3541 14.5798 50.5183 14.1406L50.5184 14.1402C50.6582 13.7627 50.766 13.4366 50.8408 13.1577C50.9719 13.1653 51.1287 13.152 51.3064 13.1195ZM51.3064 13.1195C51.3068 13.1194 51.3072 13.1193 51.3076 13.1193L51.2805 12.9717L51.3052 13.1197C51.3056 13.1196 51.306 13.1195 51.3064 13.1195ZM47.5522 12.479L47.5522 12.4789C47.644 11.7609 47.7875 11.0591 47.9829 10.3734C48.0974 9.97952 48.226 9.61734 48.37 9.28574C48.3699 9.30127 48.3698 9.31684 48.3698 9.33243C48.3698 10.0064 48.5072 10.6628 48.7765 11.3048C49.0349 11.9211 49.4232 12.4197 49.9444 12.797C49.8959 12.9712 49.814 13.2148 49.6969 13.5325C49.558 13.9097 49.3868 14.3039 49.1831 14.7193C48.9813 15.1309 48.769 15.4763 48.5509 15.7567C48.329 16.0369 48.1502 16.1346 48.008 16.1346C47.8906 16.1346 47.7755 16.0665 47.6766 15.8548C47.5714 15.6254 47.5024 15.3669 47.4677 15.0816C47.4317 14.7855 47.4164 14.5708 47.4164 14.4387C47.4164 13.8495 47.4602 13.195 47.5522 12.479ZM49.3507 8.16035L49.3508 8.16035L49.3513 8.15871C49.3625 8.12523 49.3726 8.10812 49.3783 8.1004C49.4327 8.10481 49.524 8.15481 49.643 8.36303C49.7647 8.576 49.8695 8.83468 49.96 9.13758C50.0514 9.44374 50.1224 9.73205 50.1695 10.003C50.218 10.2816 50.2398 10.4633 50.2398 10.5617C50.2398 10.9516 50.2137 11.337 50.1631 11.7176C49.8891 11.351 49.6807 10.9287 49.5425 10.4515C49.3686 9.84669 49.2824 9.26831 49.2824 8.71581C49.2824 8.68105 49.2861 8.60125 49.2942 8.47127C49.3017 8.3518 49.3201 8.24899 49.3507 8.16035Z" fill="#11243D" stroke="#11243D" stroke-width="0.3"/>
<path d="M53.1416 16.4211L53.1416 16.4211C53.0636 16.3208 53.0254 16.2033 53.0254 16.0751C53.0254 15.5305 53.0498 14.9861 53.0985 14.4337L53.0985 14.4336C53.1465 13.8939 53.1705 13.3543 53.1705 12.8187C53.1705 12.4669 53.1585 12.0178 53.1384 11.4741C53.1184 10.936 53.0666 10.4012 52.9907 9.87383C52.9157 9.35269 52.7873 8.96998 52.6188 8.71367L52.6137 8.70586L52.6139 8.70572C52.6066 8.69286 52.6014 8.68356 52.5975 8.67657C52.5896 8.66252 52.587 8.65784 52.5827 8.65246C52.5347 8.59245 52.5297 8.52635 52.5297 8.48621C52.5297 8.41633 52.5485 8.34863 52.5905 8.29001C52.6317 8.23252 52.6885 8.19317 52.7496 8.16698C52.8463 8.12553 52.9394 8.10246 53.0223 8.10246C53.2925 8.10246 53.4937 8.26345 53.6239 8.52391C53.7459 8.76776 53.8339 9.07401 53.8918 9.43796C53.949 9.7975 53.9899 10.1694 54.0103 10.5497C54.0306 10.9259 54.0428 11.2714 54.0428 11.5774V11.5792V11.581V11.5828V11.5845V11.5863V11.5881V11.5899V11.5917V11.5935V11.5952V11.597V11.5988V11.6005V11.6023V11.6041V11.6058V11.6076V11.6093V11.6111V11.6128V11.6146V11.6163V11.6181V11.6198V11.6216V11.6233V11.625V11.6268V11.6285V11.6302V11.632V11.6337V11.6354V11.6371V11.6388V11.6406V11.6423V11.644V11.6457V11.6474V11.6491V11.6508V11.6525V11.6542V11.6559V11.6576V11.6593V11.661V11.6627V11.6644V11.666V11.6677V11.6694V11.6711V11.6727V11.6744V11.6761V11.6778V11.6794V11.6811V11.6827V11.6844V11.6861V11.6877V11.6894V11.691V11.6927V11.6943V11.696V11.6976V11.6992V11.7009V11.7025V11.7041V11.7058V11.7074V11.709V11.7106V11.7123V11.7139V11.7155V11.7171V11.7187V11.7203V11.7219V11.7235V11.7251V11.7267V11.7283V11.7299V11.7315V11.7331V11.7347V11.7363V11.7379V11.7395V11.7411V11.7426V11.7442V11.7458V11.7474V11.7489V11.7505V11.7521V11.7536V11.7552V11.7567V11.7583V11.7599V11.7614V11.763V11.7645V11.7661V11.7676V11.7691V11.7707V11.7722V11.7738V11.7753V11.7768V11.7783V11.7799V11.7814V11.7829V11.7844V11.7859V11.7875V11.789V11.7905V11.792V11.7935V11.795V11.7965V11.798V11.7995V11.801V11.8025V11.804V11.8055V11.807V11.8084V11.8099V11.8114V11.8129V11.8143V11.8158V11.8173V11.8188V11.8202V11.8217V11.8231V11.8246V11.8261V11.8275V11.829V11.8304V11.8319V11.8333V11.8348V11.8362V11.8376V11.8391V11.8405V11.8419V11.8434V11.8448V11.8462V11.8477V11.8491V11.8505V11.8519V11.8533V11.8547V11.8562V11.8576V11.859V11.8604V11.8618V11.8632V11.8646V11.866V11.8674V11.8687V11.8701V11.8715V11.8729V11.8743V11.8757V11.877V11.8784V11.8798V11.8812V11.8825V11.8839V11.8853V11.8866V11.888V11.8893V11.8907V11.8921V11.8934V11.8948V11.8961V11.8974V11.8988V11.9001V11.9015V11.9028V11.9041V11.9055V11.9068V11.9081V11.9094V11.9108V11.9121V11.9134V11.9147V11.916V11.9173V11.9186V11.92V11.9213V11.9226V11.9239V11.9252V11.9265V11.9277V11.929V11.9303V11.9316V11.9329V11.9342V11.9355V11.9367V11.938V11.9393V11.9406V11.9418V11.9431V11.9444V11.9456V11.9469V11.9481V11.9494V11.9506V11.9519V11.9531V11.9544V11.9556V11.9569V11.9581V11.9594V11.9606V11.9618V11.9631V11.9643V11.9655V11.9667V11.968V11.9692V11.9704V11.9716V11.9728V11.974V11.9753V11.9765V11.9777V11.9789V11.9801V11.9813V11.9825V11.9837V11.9848V11.986V11.9872V11.9884V11.9896V11.9908V11.9919V11.9931V11.9943V11.9955V11.9966V11.9978V11.999V12.0001V12.0013V12.0024V12.0036V12.0048V12.0059V12.0071V12.0082V12.0094V12.0105V12.0116V12.0128V12.0139V12.015V12.0162V12.0173V12.0184V12.0196V12.0207V12.0218V12.0229V12.024V12.0251V12.0263V12.0274V12.0285V12.0296V12.0307V12.0318V12.0329V12.034V12.0351V12.0362V12.0373V12.0383V12.0394V12.0405V12.0416V12.0427V12.0437V12.0448V12.0459V12.047V12.048V12.0491V12.0502V12.0512V12.0523V12.0533V12.0544V12.0554V12.0565V12.0575V12.0586V12.0596V12.0607V12.0617V12.0627V12.0638V12.0648V12.0658V12.0669V12.0679V12.0689V12.0699V12.071V12.072V12.073V12.074V12.075V12.076V12.077V12.078V12.079V12.08V12.081V12.082V12.083V12.084V12.085V12.086V12.087V12.0879V12.0889V12.0899V12.0909V12.0918V12.0928V12.0938V12.0947V12.0957V12.0967V12.0976V12.0986V12.0995V12.1005V12.1014V12.1024V12.1033V12.1043V12.1052V12.1062V12.1071V12.108V12.109V12.1099V12.1108V12.1117V12.1127V12.1136V12.1145V12.1154V12.1163V12.1173V12.1182V12.1191V12.12V12.1209V12.1218V12.1227V12.1236V12.1245V12.1254V12.1263V12.1271V12.128V12.1289V12.1298V12.1307V12.1315V12.1324V12.1333V12.1342V12.135V12.1359V12.1368V12.1376V12.1378C54.0528 12.1086 54.0629 12.0789 54.0733 12.0486C54.2152 11.635 54.3853 11.1774 54.5876 10.6718M53.1416 16.4211L54.727 10.727M53.1416 16.4211L53.1443 16.4244C53.2312 16.5299 53.3514 16.5838 53.4938 16.5838C53.6251 16.5838 53.746 16.5525 53.8509 16.4847C53.9552 16.4171 54.0342 16.3195 54.092 16.2015L54.1073 16.1703V16.1356C54.1073 15.5696 54.1898 14.953 54.3489 14.2888M53.1416 16.4211L53.9573 16.1356M54.5876 10.6718C54.5876 10.6716 54.5877 10.6715 54.5878 10.6713L54.727 10.727M54.5876 10.6718C54.5875 10.6719 54.5874 10.6721 54.5874 10.6723L54.727 10.727M54.5876 10.6718C54.7869 10.1634 55.0064 9.6797 55.242 9.21262L55.2422 9.21215C55.4789 8.74691 55.7177 8.35916 55.9591 8.05111C56.1999 7.74389 56.4604 7.54629 56.7462 7.54629C56.8873 7.54629 57.0142 7.59139 57.1203 7.68302C57.2233 7.77196 57.2985 7.89758 57.3542 8.04687C57.46 8.33025 57.5268 8.63253 57.5642 8.95242C57.6007 9.26517 57.6176 9.50548 57.6176 9.6711C57.6176 9.77669 57.6092 9.94662 57.5972 10.1786L57.5971 10.1812L57.5971 10.1812C57.5807 10.4193 57.5516 10.6469 57.4961 10.8568M54.727 10.727C54.9245 10.2232 55.1422 9.74364 55.3759 9.28016C55.6097 8.82072 55.8434 8.44188 56.0772 8.14364C56.3109 7.84541 56.5326 7.69629 56.7462 7.69629C56.9598 7.69629 57.1129 7.82929 57.2137 8.09931C57.3144 8.36934 57.3789 8.65951 57.4152 8.96984C57.4515 9.28016 57.4676 9.51392 57.4676 9.6711C57.4676 9.77185 57.4595 9.93709 57.4474 10.1708C57.4313 10.4046 57.4031 10.6222 57.3507 10.8197M57.4961 10.8568C57.4962 10.8563 57.4963 10.8559 57.4964 10.8554L57.3507 10.8197M57.4961 10.8568C57.4689 10.9672 57.4267 11.0675 57.3601 11.1425C57.2887 11.2228 57.1941 11.2679 57.0847 11.2679C57.0258 11.2679 56.9688 11.2504 56.92 11.2133C56.8731 11.1777 56.8417 11.1303 56.8205 11.0822C56.7796 10.9894 56.7654 10.8686 56.7654 10.7351C56.7654 10.615 56.774 10.5041 56.7867 10.3988C56.799 10.2962 56.8058 10.2288 56.8058 10.1829C56.8058 10.1219 56.7995 9.98695 56.7894 9.76816C56.7882 9.74359 56.787 9.71797 56.7858 9.69127C56.77 9.43436 56.7425 9.19292 56.6923 8.9613L56.6918 8.95896L56.6918 8.95895C56.6687 8.8437 56.6432 8.77089 56.6208 8.73062C56.6198 8.72884 56.6188 8.72719 56.6179 8.72565C56.6105 8.72986 56.6011 8.73608 56.5896 8.74524C56.5532 8.77411 56.5072 8.82336 56.4535 8.89928L56.4511 8.90269L56.4511 8.90266C56.3357 9.05653 56.2185 9.24354 56.0998 9.45728M57.4961 10.8568C57.4959 10.8573 57.4958 10.8577 57.4957 10.8582L57.3507 10.8197M57.3507 10.8197C57.3024 11.0172 57.2137 11.1179 57.0847 11.1179C56.9719 11.1179 56.9154 10.989 56.9154 10.7351C56.9154 10.6222 56.9235 10.5174 56.9356 10.4167C56.9477 10.3159 56.9558 10.2394 56.9558 10.1829C56.9558 10.1182 56.9493 9.9795 56.9393 9.76409C56.9381 9.73823 56.9369 9.71126 56.9356 9.68319C56.9195 9.42122 56.8913 9.17135 56.8389 8.92953C56.7905 8.68772 56.722 8.56682 56.6374 8.56682C56.5527 8.56682 56.4479 8.64742 56.3311 8.81266C56.2102 8.97387 56.0893 9.16732 55.9683 9.38495C55.8474 9.60661 55.7427 9.81618 55.65 10.0217C55.5573 10.2273 55.4968 10.3724 55.4686 10.457C55.255 10.9809 55.0333 11.5774 54.7996 12.2424C54.5658 12.9074 54.3684 13.5804 54.2031 14.2535M54.2031 14.2535C54.0419 14.9265 53.9573 15.5552 53.9573 16.1356M54.2031 14.2535L54.3488 14.2892C54.3488 14.2891 54.3489 14.2889 54.3489 14.2888M54.2031 14.2535L56.0998 9.45728M53.9573 16.1356C53.8605 16.333 53.7074 16.4338 53.4938 16.4338C53.393 16.4338 53.3165 16.3975 53.26 16.329L53.9573 16.1356ZM54.3489 14.2888C54.513 13.6203 54.7091 12.952 54.9411 12.2921C55.1744 11.6285 55.3952 11.0345 55.6075 10.5136L55.6078 10.5137L55.6109 10.5044C55.6364 10.4279 55.6939 10.2892 55.7867 10.0834C55.8776 9.88183 55.9806 9.67582 56.0998 9.45728M54.3489 14.2888L56.0998 9.45728M56.6042 8.70655C56.6042 8.70647 56.6047 8.70689 56.6057 8.70802C56.6047 8.70719 56.6042 8.70663 56.6042 8.70655Z" fill="#11243D" stroke="#11243D" stroke-width="0.3"/>
<path d="M58.6525 8.76261C58.5894 9.44619 58.532 10.1356 58.4746 10.8275C58.4098 11.6093 58.3774 12.3873 58.3774 13.1572C58.3774 13.3773 58.394 13.6524 58.4223 13.988C58.4513 14.3323 58.5135 14.6719 58.6085 15.0149C58.7055 15.3648 58.851 15.6639 59.0536 15.9018C59.2704 16.1608 59.5641 16.2856 59.9138 16.2856C60.2095 16.2856 60.502 16.1286 60.7951 15.869L60.7951 15.869L60.7977 15.8667C61.0853 15.5999 61.3662 15.2688 61.6489 14.8631C61.9304 14.4592 62.1873 14.0393 62.4235 13.6035C62.6598 13.1676 62.8525 12.7539 62.9966 12.3627C63.1389 11.9763 63.2194 11.6575 63.2194 11.4162V11.3517V11.1528L63.0282 11.2075C62.9761 11.2223 62.936 11.2577 62.9116 11.2817C62.8829 11.3099 62.8532 11.3456 62.8231 11.3861C62.7626 11.4675 62.6908 11.5811 62.6089 11.7243C62.442 12.0133 62.2554 12.3622 62.0416 12.7737C61.83 13.181 61.5983 13.5845 61.3466 13.9841C61.097 14.3802 60.8445 14.7114 60.5974 14.9821C60.3521 15.2464 60.1434 15.3488 59.9622 15.3488C59.8958 15.3488 59.8432 15.3326 59.7988 15.3036C59.7532 15.2739 59.7082 15.2254 59.6667 15.1491L59.6661 15.1478C59.5766 14.9867 59.5121 14.7794 59.4694 14.5278C59.4296 14.2689 59.3983 14.0131 59.3866 13.7589C59.3744 13.4966 59.3666 13.2903 59.3666 13.1371C59.3666 12.335 59.3986 11.5213 59.4708 10.6957L59.4708 10.6951C59.5367 9.90115 59.6174 9.11108 59.7131 8.33566C60.303 8.10728 60.8852 7.89755 61.4596 7.7099L61.4599 7.7098C62.0486 7.51619 62.6778 7.38943 63.3478 7.33393L63.3478 7.33396L63.3507 7.33366C63.5101 7.31732 63.675 7.29674 63.8409 7.26771C64.0124 7.23769 64.1756 7.1905 64.3262 7.13026L64.4204 7.09255V6.99099C64.4204 6.93009 64.3912 6.88342 64.3594 6.85363C64.3304 6.82643 64.2967 6.81007 64.2693 6.79955C64.214 6.77837 64.1431 6.76568 64.0649 6.75722L64.0649 6.75717L64.0609 6.75685C63.9091 6.74454 63.7557 6.7362 63.5934 6.7362H63.5924H63.5915H63.5906H63.5897H63.5888H63.5879H63.587H63.586H63.5851H63.5842H63.5833H63.5824H63.5815H63.5806H63.5797H63.5788H63.5779H63.577H63.5761H63.5752H63.5743H63.5734H63.5725H63.5716H63.5707H63.5698H63.5689H63.5681H63.5672H63.5663H63.5654H63.5645H63.5636H63.5627H63.5619H63.561H63.5601H63.5592H63.5584H63.5575H63.5566H63.5557H63.5549H63.554H63.5531H63.5523H63.5514H63.5505H63.5497H63.5488H63.548H63.5471H63.5462H63.5454H63.5445H63.5437H63.5428H63.542H63.5411H63.5403H63.5394H63.5386H63.5377H63.5369H63.536H63.5352H63.5343H63.5335H63.5327H63.5318H63.531H63.5302H63.5293H63.5285H63.5277H63.5268H63.526H63.5252H63.5243H63.5235H63.5227H63.5219H63.521H63.5202H63.5194H63.5186H63.5178H63.5169H63.5161H63.5153H63.5145H63.5137H63.5129H63.5121H63.5113H63.5105H63.5097H63.5088H63.508H63.5072H63.5064H63.5056H63.5048H63.504H63.5032H63.5024H63.5017H63.5009H63.5001H63.4993H63.4985H63.4977H63.4969H63.4961H63.4953H63.4946H63.4938H63.493H63.4922H63.4914H63.4907H63.4899H63.4891H63.4883H63.4876H63.4868H63.486H63.4852H63.4845H63.4837H63.4829H63.4822H63.4814H63.4807H63.4799H63.4791H63.4784H63.4776H63.4769H63.4761H63.4753H63.4746H63.4738H63.4731H63.4723H63.4716H63.4708H63.4701H63.4694H63.4686H63.4679H63.4671H63.4664H63.4657H63.4649H63.4642H63.4634H63.4627H63.462H63.4612H63.4605H63.4598H63.4591H63.4583H63.4576H63.4569H63.4562H63.4554H63.4547H63.454H63.4533H63.4525H63.4518H63.4511H63.4504H63.4497H63.449H63.4483H63.4476H63.4468H63.4461H63.4454H63.4447H63.444H63.4433H63.4426H63.4419H63.4412H63.4405H63.4398H63.4391H63.4384H63.4377H63.437H63.4364H63.4357H63.435H63.4343H63.4336H63.4329H63.4322H63.4316H63.4309H63.4302H63.4295H63.4288H63.4282H63.4275H63.4268H63.4261H63.4255H63.4248H63.4241H63.4234H63.4228H63.4221H63.4214H63.4208H63.4201H63.4195H63.4188H63.4181H63.4175H63.4168H63.4162H63.4155H63.4149H63.4142H63.4136H63.4129H63.4123H63.4116H63.411H63.4103H63.4097H63.409H63.4084H63.4077H63.4071H63.4065H63.4058H63.4052H63.4046H63.4039H63.4033H63.4027H63.402H63.4014H63.4008H63.4001H63.3995H63.3989H63.3983H63.3976H63.397H63.3964H63.3958H63.3952H63.3945H63.3939H63.3933H63.3927H63.3921H63.3915H63.3909H63.3903H63.3896H63.389H63.3884H63.3878H63.3872H63.3866H63.386H63.3854H63.3848H63.3842H63.3836H63.383H63.3824H63.3818H63.3813H63.3807H63.3801H63.3795H63.3789H63.3783H63.3777H63.3771H63.3766H63.376H63.3754H63.3748H63.3742H63.3737H63.3731H63.3725H63.3719H63.3714H63.3708H63.3702H63.3697H63.3691H63.3685H63.368H63.3674H63.3668H63.3663H63.3657H63.3652H63.3646H63.364H63.3635H63.3629H63.3624H63.3618H63.3613H63.3607H63.3602H63.3596H63.3591H63.3585H63.358H63.3574H63.3569H63.3564H63.3558H63.3553H63.3547H63.3542H63.3537H63.3531H63.3526H63.3521H63.3515H63.351H63.3505H63.35H63.3494H63.3489H63.3484H63.3479H63.3473H63.3468H63.3463H63.3458H63.3453H63.3447H63.3442H63.3437H63.3432H63.3427H63.3422H63.3417H63.3412H63.3406H63.3401H63.3396H63.3391H63.3386H63.3381H63.3376H63.3371H63.3366H63.3361H63.3356H63.3351H63.3347H63.3342H63.3337H63.3332H63.3327H63.3322H63.3317H63.3312H63.3307H63.3303H63.3298H63.3293H63.3288H63.3283H63.3279H63.3274H63.3269H63.3264H63.326H63.3255H63.325H63.3245H63.3241H63.3236H63.3231H63.3227H63.3222H63.3218H63.3213H63.3208H63.3204H63.3199H63.3195H63.319H63.3185H63.3181H63.3176H63.3172H63.3167H63.3163H63.3158H63.3154H63.3149H63.3145H63.3141H63.3136H63.3132H63.3127H63.3123H63.3119H63.3114H63.311H63.3105H63.3101H63.3097H63.3092H63.3088H63.3084H63.308H63.3075H63.3071H63.3067H63.3063H63.3058H63.3054H63.305H63.3046H63.3042H63.3037H63.3033H63.3029H63.3025H63.3021H63.3017H63.3013H63.3009H63.3004H63.3H63.2996H63.2992H63.2988H63.2984H63.298H63.2976H63.2972H63.2968H63.2964H63.296H63.2956H63.2952H63.2948H63.2945H63.2941H63.2937H63.2933H63.2929H63.2925H63.2921H63.2918H63.2914H63.291H63.2906H63.2902H63.2899H63.2895H63.2891H63.2887H63.2884H63.288H63.2876H63.2872H63.2869H63.2865H63.2861H63.2858H63.2854H63.285H63.2847H63.2843H63.284H63.2836H63.2832H63.2829H63.2825H63.2822H63.2818H63.2815H63.2811H63.2808H63.2804H63.2801H63.2797H63.2794H63.279H63.2787H63.2783H63.278H63.2777H63.2773H63.277H63.2767H63.2763H63.276H63.2756H63.2753H63.275C62.6294 6.7362 62.0111 6.7934 61.4284 6.90829C60.9215 7.00756 60.3997 7.13452 59.8578 7.28903C59.8628 7.26525 59.8681 7.24033 59.8736 7.21427C59.8998 7.09109 59.9314 6.94247 59.9678 6.76834C60.048 6.39964 60.1402 6.01047 60.2447 5.59261C60.3496 5.17283 60.4385 4.80533 60.5112 4.49416L60.5112 4.49416L60.5116 4.49235C60.5459 4.33706 60.5724 4.21384 60.5904 4.12353C60.5993 4.07845 60.6064 4.04041 60.6113 4.0101C60.6157 3.9831 60.62 3.95266 60.62 3.92803C60.62 3.77143 60.5379 3.64556 60.4085 3.55239L60.4085 3.55235L60.4052 3.55008C60.2878 3.47026 60.1621 3.41934 60.0226 3.41934C59.9048 3.41934 59.8169 3.49282 59.7562 3.56906C59.6937 3.64744 59.638 3.75539 59.5856 3.88323L59.5856 3.88323L59.5848 3.8852C59.4849 4.13913 59.3863 4.46026 59.2926 4.83912C59.199 5.21777 59.1177 5.61195 59.0447 6.01732C58.9721 6.42105 58.9114 6.78483 58.8629 7.10457C58.8224 7.35072 58.7935 7.539 58.7767 7.66596C58.6862 7.69844 58.5614 7.74535 58.4045 7.80635C58.184 7.89212 57.9422 7.99451 57.6919 8.11763C57.4344 8.24224 57.2154 8.37659 57.0362 8.51737L57.0362 8.51736L57.0345 8.51873C56.8551 8.66396 56.725 8.83148 56.725 9.03028C56.725 9.18028 56.7926 9.31157 56.9016 9.43008C57.0121 9.55012 57.142 9.62763 57.2982 9.62763C57.3861 9.62763 57.4632 9.60152 57.5273 9.5517C57.5677 9.52024 57.6048 9.48795 57.638 9.45473L57.6381 9.45483L57.6424 9.45013C57.8135 9.2638 58.0031 9.11217 58.2116 8.99086C58.3531 8.9096 58.5001 8.83351 58.6525 8.76261Z" fill="#11243D" stroke="#11243D" stroke-width="0.3"/>
<path d="M69.0768 13.3915C69.1448 13.2513 69.198 13.1262 69.2345 13.0173C69.2704 12.9102 69.2931 12.8098 69.2931 12.7218C69.2931 12.6497 69.2796 12.569 69.2294 12.5035C69.1736 12.4309 69.0928 12.4026 69.0142 12.4026C68.9543 12.4026 68.907 12.4296 68.8768 12.4521C68.8451 12.4758 68.8167 12.5062 68.7913 12.5379C68.7402 12.6017 68.6857 12.691 68.6276 12.8009C68.5161 13.012 68.3761 13.26 68.2149 13.5421L68.2145 13.5429C68.0578 13.8209 67.8903 14.0584 67.712 14.2638C67.5399 14.462 67.3963 14.5305 67.2731 14.5305C67.22 14.5305 67.1812 14.518 67.1505 14.4976C67.1191 14.4767 67.0867 14.4413 67.0573 14.3811L67.0574 14.3811L67.0567 14.3797C66.989 14.2443 66.936 14.0667 66.9013 13.8507C66.8663 13.633 66.8508 13.4233 66.8508 13.2256V13.2244V13.2232V13.222V13.2208V13.2196V13.2184V13.2172V13.216V13.2148V13.2136V13.2124V13.2112V13.2101V13.2089V13.2077V13.2065V13.2053V13.2041V13.203V13.2018V13.2006V13.1994V13.1982V13.1971V13.1959V13.1947V13.1936V13.1924V13.1912V13.1901V13.1889V13.1877V13.1866V13.1854V13.1842V13.1831V13.1819V13.1808V13.1796V13.1785V13.1773V13.1762V13.175V13.1739V13.1727V13.1716V13.1704V13.1693V13.1681V13.167V13.1659V13.1647V13.1636V13.1624V13.1613V13.1602V13.159V13.1579V13.1568V13.1557V13.1545V13.1534V13.1523V13.1512V13.15V13.1489V13.1478V13.1467V13.1456V13.1444V13.1433V13.1422V13.1411V13.14V13.1389V13.1378V13.1367V13.1356V13.1345V13.1334V13.1323V13.1312V13.1301V13.129V13.1279V13.1268V13.1257V13.1246V13.1235V13.1224V13.1213V13.1202V13.1191V13.1181V13.117V13.1159V13.1148V13.1137V13.1126V13.1116V13.1105V13.1094V13.1083V13.1073V13.1062V13.1051V13.1041V13.103V13.1019V13.1009V13.0998V13.0987V13.0977V13.0966V13.0956V13.0945V13.0934V13.0924V13.0913V13.0903V13.0892V13.0882V13.0871V13.0861V13.085V13.084V13.0829V13.0819V13.0809V13.0798V13.0788V13.0777V13.0767V13.0757V13.0746V13.0736V13.0726V13.0715V13.0705V13.0695V13.0685V13.0674V13.0664V13.0654V13.0644V13.0633V13.0623V13.0613V13.0603V13.0593V13.0583V13.0573V13.0562V13.0552V13.0542V13.0532V13.0522V13.0512V13.0502V13.0492V13.0482V13.0472V13.0462V13.0452V13.0442V13.0432V13.0422V13.0412V13.0402V13.0392V13.0382V13.0373V13.0363V13.0353V13.0343V13.0333V13.0323V13.0314V13.0304V13.0294V13.0284V13.0274V13.0265V13.0255V13.0245V13.0235V13.0226V13.0216V13.0206V13.0197V13.0187V13.0177V13.0168V13.0158V13.0149V13.0139V13.0129V13.012V13.011V13.0101V13.0091V13.0082V13.0072V13.0063V13.0053V13.0044V13.0034V13.0025V13.0016V13.0006V12.9997V12.9987V12.9978V12.9969V12.9959V12.995V12.9941V12.9931V12.9922V12.9913V12.9903V12.9894V12.9885V12.9876V12.9866V12.9857V12.9848V12.9839V12.983V12.982V12.9811V12.9802V12.9793V12.9784V12.9775V12.9766V12.9756V12.9747V12.9738V12.9729V12.972V12.9711V12.9702V12.9693V12.9684V12.9675V12.9666V12.9657V12.9648V12.9639V12.963V12.9622V12.9613V12.9604V12.9595V12.9586V12.9577V12.9568V12.956V12.9551V12.9542V12.9533V12.9524V12.9516V12.9507V12.9498V12.9489V12.9481V12.9472V12.9463V12.9455V12.9446V12.9437V12.9429V12.942V12.9411V12.9403V12.9394V12.9386V12.9377V12.9368V12.936V12.9351V12.9343V12.9334V12.9326V12.9317V12.9309V12.93V12.9292V12.9283V12.9275V12.9267V12.9258V12.925V12.9241V12.9233V12.9225V12.9216V12.9208V12.92V12.9191V12.9183V12.9175V12.9166V12.9158V12.915V12.9142V12.9133V12.9125V12.9117V12.9109V12.9101V12.9092V12.9084V12.9076V12.9068V12.906V12.9052V12.9044V12.9036V12.9028V12.9019V12.9011V12.9003V12.8995V12.8987V12.8979V12.8971V12.8963V12.8955V12.8947V12.8939V12.8931V12.8924V12.8916V12.8908V12.89V12.8892V12.8884V12.8876V12.8868V12.8861V12.8853V12.8845V12.8837V12.8829V12.8822V12.8814V12.8806V12.8798V12.8791V12.8783V12.8775V12.8768V12.876V12.8752V12.8745V12.8737V12.8729V12.8722V12.8714V12.8706V12.8699V12.8691V12.8684V12.8676V12.8669V12.8661V12.8654V12.8646V12.8639V12.8631V12.8624V12.8616V12.8609V12.8601V12.8594V12.8586V12.8579V12.8572V12.8564V12.8557V12.8549V12.8542V12.8535V12.8528V12.852V12.8513V12.8506V12.8498V12.8491V12.8484V12.8477V12.8469V12.8462V12.8455V12.8448V12.8441V12.8433V12.8426V12.8419V12.8412V12.8405V12.8398V12.8391V12.8383V12.8376V12.8369V12.8362V12.8355V12.8348V12.8341V12.8334V12.8327V12.832V12.8313V12.8306V12.8299V12.8292V12.8285V12.8278V12.8272V12.8265V12.8258V12.8251V12.8244V12.8237V12.823V12.8224V12.8217V12.821V12.8203V12.8196V12.819V12.8183V12.8176V12.8169V12.8163V12.8156V12.8149V12.8142V12.8136V12.8129V12.8122V12.8116V12.8109V12.8103V12.8096V12.8089V12.8083V12.8076V12.807V12.8063V12.8056V12.805V12.8043V12.8037V12.803V12.8024V12.8017V12.8011V12.8005V12.7998V12.7992V12.7985V12.7979V12.7972V12.7966V12.796V12.7953V12.7947V12.7941V12.7934V12.7928V12.7922V12.7915V12.7909V12.7903V12.7896V12.789V12.7884V12.7878V12.7872V12.7865V12.7859V12.7853V12.7847V12.7841V12.7834V12.7828V12.7822V12.7816V12.781V12.7804V12.7798V12.7792V12.7786V12.778V12.7774V12.7768V12.7761V12.7755V12.7749V12.7743V12.7738V12.7732V12.7726V12.772V12.7714V12.7708V12.7702V12.3027C66.8508 11.7144 66.8985 11.1179 66.998 10.5092C67.0996 9.88724 67.1491 9.35085 67.1491 8.90118C67.1491 8.75737 67.12 8.62104 67.0356 8.51895C66.9467 8.41139 66.8188 8.36831 66.6807 8.36831C66.5775 8.36831 66.4826 8.40022 66.4021 8.46465C66.3241 8.52707 66.267 8.61387 66.2244 8.71313L66.2242 8.71302L66.2211 8.72153C66.1044 9.0467 66.0287 9.37363 65.9993 9.70608C65.9714 10.0203 65.9277 10.3626 65.8639 10.7251L65.8639 10.7254C65.8021 11.0804 65.6739 11.4711 65.4799 11.9026L65.4799 11.9026L65.4793 11.904C65.4244 12.0294 65.3093 12.2678 65.1313 12.6318C64.9639 12.9743 64.7746 13.3388 64.5693 13.7341C64.5585 13.755 64.5476 13.7759 64.5366 13.797C64.3212 14.208 64.1107 14.5612 63.9093 14.8533C63.8096 14.9981 63.7246 15.099 63.6541 15.1623C63.5799 15.2288 63.5416 15.2358 63.5331 15.2358C63.5255 15.2358 63.5162 15.2346 63.4999 15.2192C63.4803 15.2005 63.454 15.1633 63.426 15.0951C63.368 14.9536 63.3261 14.7819 63.299 14.5689L63.299 14.5685C63.2714 14.3558 63.2556 14.1505 63.2477 13.9648C63.2396 13.7747 63.2357 13.6531 63.2357 13.6004C63.2357 13.0981 63.2832 12.6043 63.3818 12.119C63.4323 11.8708 63.4817 11.6227 63.531 11.375L63.5311 11.3748C63.5805 11.1269 63.6298 10.8793 63.6801 10.6318L63.6801 10.6316C63.7829 10.1218 63.8322 9.61207 63.8322 9.0906C63.8322 8.96359 63.8141 8.82539 63.7745 8.68035C63.7493 8.58797 63.7004 8.50497 63.6191 8.44704C63.5392 8.39009 63.4434 8.36831 63.3437 8.36831C63.2829 8.36831 63.2202 8.37984 63.1634 8.41226C63.1049 8.44572 63.0629 8.49574 63.037 8.55491C63.0068 8.62384 62.977 8.70145 62.9619 8.79189L62.9608 8.79893L62.9603 8.80605C62.9573 8.84839 62.9543 8.8904 62.9514 8.93211C62.9384 9.11539 62.9258 9.2929 62.9159 9.46761C62.8999 9.67917 62.88 9.89768 62.8523 10.1196C62.7965 10.5542 62.7208 10.9844 62.6213 11.4101C62.5193 11.8467 62.4418 12.287 62.3848 12.7309L62.3848 12.7309L62.3845 12.7335C62.368 12.8824 62.3597 13.0267 62.3517 13.1665L62.3516 13.1687L62.3516 13.1689C62.3434 13.3167 62.3393 13.4605 62.3393 13.6044C62.3393 13.7678 62.3518 13.9823 62.3719 14.2447C62.3928 14.5156 62.4386 14.7902 62.5132 15.0763C62.5856 15.3658 62.6976 15.6131 62.8429 15.8158L62.8429 15.8158L62.8442 15.8175C63.0088 16.0402 63.2344 16.1565 63.5089 16.1565C63.7757 16.1565 64.0299 16.0127 64.263 15.7546C64.4955 15.5174 64.7119 15.2163 64.9135 14.8542C65.1132 14.4956 65.3008 14.1204 65.4722 13.7245C65.6368 13.3443 65.7828 12.9937 65.91 12.6655V12.6662V12.6683V12.6705V12.6727V12.6748V12.677V12.6792V12.6813V12.6835V12.6857V12.6879V12.69V12.6922V12.6944V12.6966V12.6988V12.701V12.7032V12.7053V12.7075V12.7097C65.91 13.0968 65.943 13.4916 66.0086 13.8938C66.0715 14.3086 66.194 14.6579 66.3665 14.9468C66.5566 15.2652 66.8531 15.423 67.2288 15.423C67.4483 15.423 67.671 15.2805 67.8971 15.0626L67.8971 15.0626L67.8981 15.0616C68.1231 14.8408 68.3428 14.5794 68.5533 14.2739C68.7616 13.9717 68.9394 13.6787 69.0768 13.3915ZM69.0768 13.3915C69.0768 13.3913 69.0769 13.3912 69.077 13.3911L68.9416 13.3264L69.0766 13.3918C69.0766 13.3917 69.0767 13.3916 69.0768 13.3915ZM62.5014 13.1772C62.4933 13.3223 62.4893 13.4634 62.4893 13.6044C62.4893 13.7616 62.5014 13.9712 62.5215 14.2332C62.5417 14.4951 62.586 14.7611 62.6585 15.0392L62.5014 13.1772ZM62.5014 13.1772L62.5014 13.1768M62.5014 13.1772L62.5014 13.1768M62.5014 13.1768C62.5094 13.0359 62.5175 12.895 62.5336 12.75L62.5014 13.1768Z" fill="#11243D" stroke="#11243D" stroke-width="0.3"/>
<path d="M76.2153 12.5204L76.2169 12.5341C76.2281 12.6312 76.2355 12.695 76.2355 12.722C76.2355 12.863 76.1589 13.1129 76.0017 13.4675C75.8445 13.8222 75.6511 14.197 75.4173 14.596C75.1836 14.995 74.9418 15.3335 74.6959 15.6156C74.446 15.8978 74.2244 16.0429 74.0269 16.0429C73.7448 16.0429 73.5352 15.93 73.3982 15.7043C73.2652 15.4786 73.1765 15.2207 73.1322 14.9265M76.2153 12.5204L69.9685 16.5104C70.0168 16.4539 70.0571 16.3975 70.0854 16.3411C70.1539 16.1839 70.2788 15.8816 70.4561 15.4262M76.2153 12.5204C76.1992 12.4116 76.1589 12.3592 76.0863 12.3592C76.0581 12.3592 76.034 12.3754 76.0219 12.4116M76.2153 12.5204L73.7367 12.0167C73.6722 12.6696 73.64 13.3265 73.64 13.9955C73.64 14.0801 73.6521 14.2413 73.6723 14.4751C73.6924 14.7088 73.7367 14.9305 73.8012 15.1361C73.8657 15.3416 73.9665 15.4423 74.1075 15.4423C74.2204 15.4423 74.3695 15.3134 74.5549 15.0595C74.7403 14.8056 74.9297 14.5033 75.1272 14.1567C75.3246 13.8101 75.502 13.4796 75.6591 13.1693C75.8163 12.859 75.9211 12.6373 75.9775 12.5084M73.1322 14.9265C73.0879 14.6363 73.0677 14.3905 73.0677 14.193C73.0677 13.7255 73.0919 13.258 73.1403 12.7905C73.1886 12.323 73.2128 11.8555 73.2128 11.388C73.2128 11.3436 73.2088 11.2388 73.2007 11.0696C73.1927 10.9003 73.1846 10.7351 73.1685 10.5819C73.1524 10.4247 73.1201 10.3482 73.0637 10.3482C72.9226 10.3482 72.7413 10.5255 72.5196 10.8801C72.2979 11.2348 72.0642 11.6822 71.8184 12.2182C71.5685 12.7582 71.3267 13.3144 71.0849 13.8867C70.843 14.459 70.6335 14.9748 70.4561 15.4262M73.1322 14.9265L72.9839 14.9491C72.9839 14.9491 72.9839 14.949 72.9839 14.949M73.1322 14.9265L72.9839 14.9488C72.9839 14.9489 72.9839 14.9489 72.9839 14.949M70.4561 15.4262L70.5959 15.4807C70.5959 15.4807 70.5959 15.4808 70.5959 15.4808M70.4561 15.4262L70.5957 15.4811C70.5958 15.481 70.5958 15.4809 70.5959 15.4808M76.0219 12.4116L75.8848 12.3507C75.8841 12.3522 75.8834 12.3539 75.8826 12.3557M76.0219 12.4116L75.8796 12.3642C75.8805 12.3613 75.8815 12.3585 75.8826 12.3557M76.0219 12.4116C76.0143 12.4286 76.0067 12.4448 75.9996 12.46C75.9915 12.4773 75.984 12.4934 75.9775 12.5084M75.8826 12.3557C75.8965 12.3183 75.9198 12.2813 75.9563 12.2531C75.9963 12.2223 76.0425 12.2092 76.0863 12.2092C76.165 12.2092 76.2378 12.2406 76.2896 12.3059C76.3346 12.3627 76.3541 12.4336 76.3637 12.4985L76.3644 12.5032L76.3643 12.5032C76.3653 12.5116 76.3662 12.5198 76.3672 12.5279C76.3772 12.6144 76.3855 12.6858 76.3855 12.722C76.3855 12.8152 76.361 12.9301 76.3207 13.0593C76.2797 13.191 76.2189 13.3478 76.1389 13.5283C75.9791 13.8888 75.783 14.2687 75.5468 14.6718C75.309 15.0777 75.0618 15.4241 74.809 15.7142L74.8082 15.7151C74.5549 16.0011 74.2944 16.1929 74.0269 16.1929C73.6967 16.1929 73.4364 16.0562 73.27 15.7822L73.269 15.7805L73.269 15.7805C73.1251 15.5364 73.0307 15.2598 72.9839 14.949M75.8826 12.3557C75.8784 12.3648 75.8727 12.3772 75.8666 12.3903C75.8565 12.4119 75.8456 12.4354 75.8397 12.4493L75.9775 12.5084M72.9839 14.949C72.9388 14.6536 72.9177 14.4 72.9177 14.193C72.9177 13.7203 72.9422 13.2476 72.9911 12.775C73.0389 12.3126 73.0628 11.8503 73.0628 11.388C73.0628 11.348 73.059 11.2473 73.0509 11.0767C73.0428 10.9066 73.0349 10.7457 73.0193 10.5976L73.0193 10.5972C73.0162 10.567 73.0126 10.5418 73.0087 10.5211M73.0087 10.5211C73.0398 10.5014 73.0578 10.4982 73.0637 10.4982C73.0401 10.4982 73.0184 10.4889 73.0038 10.4763C72.9956 10.4693 72.9925 10.4637 72.9925 10.4636C72.9925 10.4636 72.993 10.4645 72.994 10.4667C72.9969 10.4734 73.0016 10.4869 73.0065 10.51C73.0072 10.5136 73.0079 10.5173 73.0087 10.5211ZM73.0087 10.5211C72.9875 10.5345 72.9603 10.5556 72.9267 10.5884C72.8483 10.6651 72.7548 10.7868 72.6468 10.9596C72.4297 11.307 72.1989 11.7482 71.9547 12.2807L71.9545 12.2812C71.7056 12.8191 71.4645 13.3736 71.223 13.9451C70.9817 14.5161 70.7727 15.0307 70.5959 15.4808M70.5959 15.4808C70.4182 15.9371 70.2925 16.2413 70.2229 16.401L70.2197 16.4083L70.2195 16.4082C70.184 16.4792 70.1355 16.5459 70.0824 16.608L70.08 16.6107L70.08 16.6107C70.0106 16.6878 69.8987 16.7329 69.7791 16.7329C69.6299 16.7329 69.508 16.6687 69.4306 16.5461C69.3654 16.4429 69.3348 16.3258 69.3348 16.2C69.3348 15.4005 69.3795 14.5967 69.4729 13.7889C69.5649 12.9927 69.6089 12.2045 69.6089 11.4162C69.6089 11.3344 69.605 11.1716 69.5969 10.9213M69.5969 10.9213L69.7468 10.9164L69.5969 10.9213C69.5969 10.9213 69.5969 10.9213 69.5969 10.9213ZM69.5969 10.9213C69.5889 10.6768 69.5769 10.4095 69.553 10.1228L69.5528 10.1208L69.5528 10.1208C69.5329 9.83389 69.5051 9.57623 69.4696 9.34748C69.452 9.23409 69.4332 9.14756 69.4137 9.08509C69.404 9.054 69.3949 9.03134 69.3869 9.01551C69.3825 9.00676 69.3791 9.00134 69.377 8.99832C69.3184 8.95134 69.2637 8.90035 69.2097 8.84216L69.2056 8.83779L69.2057 8.83772C69.1303 8.7497 69.0971 8.64067 69.0971 8.5265C69.0971 8.38517 69.1684 8.2711 69.2838 8.19816C69.3838 8.135 69.4962 8.10244 69.6098 8.10244C69.7537 8.10244 69.8866 8.13507 70.0014 8.20786C70.1163 8.28064 70.2031 8.38721 70.2653 8.51881C70.3784 8.75804 70.4545 9.04041 70.4923 9.36349C70.5292 9.67975 70.5457 9.98381 70.5457 10.2756C70.5457 11.316 70.5188 12.3586 70.4669 13.4055C70.467 13.4053 70.4671 13.4051 70.4672 13.4049L70.4674 13.4044C70.6378 13.0068 70.8444 12.5572 71.0871 12.0597C71.33 11.5617 71.5814 11.0792 71.8452 10.6164C72.1093 10.1533 72.3583 9.76529 72.5883 9.45313C72.7049 9.2948 72.8161 9.17009 72.9217 9.08353C73.0245 8.99933 73.1396 8.9367 73.2612 8.9367C73.3945 8.9367 73.515 8.97998 73.6155 9.06584C73.7133 9.14934 73.7848 9.2666 73.8368 9.40455L73.8371 9.4053C73.9325 9.66254 73.9835 9.88325 73.9835 10.062C73.9835 10.7198 73.951 11.3776 73.886 12.0314C73.822 12.6793 73.79 13.3313 73.79 13.9955C73.79 14.0722 73.8013 14.226 73.8217 14.4622C73.8409 14.6853 73.8832 14.8962 73.9443 15.0912C73.9727 15.1815 74.0044 15.2329 74.0317 15.2602C74.0549 15.2834 74.0774 15.2923 74.1075 15.2923C74.1075 15.2923 74.1153 15.2922 74.1329 15.2836C74.1511 15.2746 74.1755 15.2587 74.2063 15.2323C74.2684 15.179 74.3442 15.0936 74.4337 14.971C74.6146 14.7232 74.801 14.4262 74.9968 14.0825C75.1931 13.7379 75.3693 13.4096 75.5253 13.1015C75.6819 12.7924 75.7853 12.5736 75.8401 12.4482L75.9775 12.5084" fill="#11243D" stroke="#11243D" stroke-width="0.3"/>
<path d="M75.4902 12.8226C75.4822 12.9878 75.4782 13.1692 75.4782 13.3667C75.4782 13.7898 75.5104 14.2493 75.5829 14.7369M75.4902 12.8226L76.2036 12.1737C76.5421 12.0004 76.921 11.7425 77.3401 11.3959C77.7593 11.0493 78.1179 10.6583 78.4242 10.2271C78.7265 9.79588 78.8797 9.37271 78.8797 8.96163C78.8797 8.64727 78.7668 8.40949 78.5492 8.24828M75.4902 12.8226C75.495 12.7265 75.4999 12.6375 75.5064 12.5575L75.4902 12.8226ZM75.5829 14.7369L75.4345 14.7588C75.5092 15.2648 75.6513 15.7001 75.8696 16.0598C76.1011 16.4454 76.4431 16.6441 76.8807 16.6441C77.2135 16.6441 77.5536 16.4783 77.8903 16.1798C78.2273 15.8884 78.5571 15.5166 78.8802 15.0708C79.2024 14.6263 79.496 14.1613 79.7612 13.6719C80.0255 13.1838 80.2383 12.7301 80.3984 12.303C80.5573 11.8795 80.6417 11.5364 80.6417 11.283C80.6417 11.1964 80.6251 11.1038 80.5672 11.0304C80.5041 10.9505 80.4134 10.9194 80.3225 10.9194C80.1902 10.9194 80.0828 10.9746 80.0095 11.0812L80.0093 11.0811L80.0059 11.0867C79.9633 11.1547 79.9215 11.2282 79.8885 11.3133L79.8884 11.3133L79.8866 11.3185C79.8197 11.5112 79.7084 11.7937 79.5519 12.159C79.3959 12.5228 79.2162 12.9103 79.0045 13.3176L79.0045 13.3176L79.004 13.3187C78.7973 13.7241 78.5665 14.1141 78.3233 14.4849C78.0784 14.8522 77.8321 15.1485 77.5809 15.3804C77.3376 15.605 77.1062 15.7033 76.8847 15.7033C76.673 15.7033 76.5478 15.6255 76.4731 15.4848C76.379 15.3074 76.3195 15.098 76.3007 14.8621C76.2807 14.6092 76.269 14.4004 76.269 14.2372C76.269 13.8958 76.273 13.5544 76.281 13.2089H76.281L76.281 13.2072C76.2847 12.8926 76.3052 12.5782 76.3426 12.2702C76.6749 12.0918 77.0394 11.8392 77.4357 11.5115C77.8653 11.1562 78.2329 10.7555 78.5465 10.314L78.5471 10.3132C78.8619 9.8641 79.0297 9.41141 79.0297 8.96163C79.0297 8.60677 78.8996 8.32118 78.6385 8.12774L78.5492 8.24828M75.5829 14.7369L75.4346 14.759C75.361 14.2642 75.3282 13.7974 75.3282 13.3667C75.3282 13.1672 75.3322 12.9834 75.3404 12.8153L75.3404 12.8151C75.3451 12.7217 75.3499 12.6324 75.3565 12.5502C75.2919 12.5402 75.23 12.5189 75.1776 12.4796C75.0902 12.4141 75.0541 12.3178 75.0541 12.218V12.1899L75.0643 12.1637C75.1074 12.0529 75.1859 11.9744 75.2836 11.9109L75.2852 11.9098L75.2852 11.9099C75.3395 11.8756 75.3949 11.8475 75.4496 11.8262C75.5254 11.2232 75.6566 10.6097 75.8464 9.98218C76.043 9.33226 76.3106 8.74341 76.646 8.21641V8.1314C76.646 8.02873 76.678 7.93149 76.7534 7.85607C76.8137 7.79582 76.8913 7.75988 76.9751 7.73971C77.0336 7.67926 77.093 7.61229 77.156 7.53612C77.2563 7.41467 77.3852 7.34463 77.5376 7.34463C77.6975 7.34463 77.8331 7.41137 77.9267 7.546L77.8036 7.63165M75.5829 14.7369L77.8036 7.63165M78.5492 8.24828C78.3693 8.11416 78.1761 8.01721 77.9653 7.95528C77.9868 7.90954 78.0005 7.86098 78.0042 7.81037M78.5492 8.24828L78.6388 8.12802C78.4437 7.98252 78.2333 7.87726 78.0042 7.81037M78.0042 7.81037C78.0052 7.79604 78.0055 7.78155 78.0048 7.76691C78.0014 7.686 77.9724 7.61164 77.9267 7.546L77.8036 7.63165M78.0042 7.81037L77.8036 7.63165M77.0117 10.7748L77.0117 10.7748L77.0108 10.7755C76.8484 10.9306 76.6851 11.0696 76.5219 11.1919C76.6017 10.8045 76.7082 10.4148 76.845 10.0226L76.845 10.0226L76.8454 10.0213C77.0081 9.54071 77.2082 9.09617 77.4486 8.69033C77.5361 8.70979 77.6386 8.74611 77.7579 8.80006C77.8231 8.82958 77.8626 8.86402 77.8863 8.89862C77.9094 8.93247 77.9236 8.97562 77.9236 9.03417C77.9236 9.33097 77.8396 9.63215 77.6651 9.93944C77.4868 10.2534 77.2703 10.5316 77.0117 10.7748Z" fill="#11243D" stroke="#11243D" stroke-width="0.3"/>
</svg>
