<svg width="24" height="25" viewBox="0 0 24 25" fill="none" xmlns="http://www.w3.org/2000/svg">
<path d="M1 5.875C1 3.11358 3.23858 0.875 6 0.875H14.75C17.5114 0.875 19.75 3.11358 19.75 5.875V12.13C19.75 14.1851 18.1928 15.9057 16.148 16.1102L5.39802 17.1852C3.04327 17.4207 1 15.5715 1 13.205V5.875Z" fill="#11243D"/>
<path d="M16.19 3H7.81C4.17 3 2 5.17 2 8.81V17.18C2 20.83 4.17 23 7.81 23H16.18C19.82 23 21.99 20.83 21.99 17.19V8.81C22 5.17 19.83 3 16.19 3Z" fill="#BCC2CA"/>
<path d="M17 9.25H7C6.59 9.25 6.25 8.91 6.25 8.5C6.25 8.09 6.59 7.75 7 7.75H17C17.41 7.75 17.75 8.09 17.75 8.5C17.75 8.91 17.41 9.25 17 9.25Z" fill="#11243D"/>
<path d="M17 13.75H7C6.59 13.75 6.25 13.41 6.25 13C6.25 12.59 6.59 12.25 7 12.25H17C17.41 12.25 17.75 12.59 17.75 13C17.75 13.41 17.41 13.75 17 13.75Z" fill="#11243D"/>
<path d="M17 18.25H7C6.59 18.25 6.25 17.91 6.25 17.5C6.25 17.09 6.59 16.75 7 16.75H17C17.41 16.75 17.75 17.09 17.75 17.5C17.75 17.91 17.41 18.25 17 18.25Z" fill="#11243D"/>
</svg>
