<svg width="20" height="20" viewBox="0 0 20 20" fill="none" xmlns="http://www.w3.org/2000/svg">
<path d="M16.1167 12.0751L15.2833 10.6917C15.1083 10.3834 14.95 9.80008 14.95 9.45842V7.35008C14.95 5.39175 13.8 3.70008 12.1417 2.90841C11.7083 2.14175 10.9083 1.66675 9.99166 1.66675C9.08333 1.66675 8.26666 2.15841 7.83333 2.93341C6.20833 3.74175 5.08333 5.41675 5.08333 7.35008V9.45842C5.08333 9.80008 4.92499 10.3834 4.74999 10.6834L3.90833 12.0751C3.57499 12.6334 3.49999 13.2501 3.70833 13.8167C3.90833 14.3751 4.38333 14.8084 4.99999 15.0167C6.61666 15.5667 8.31666 15.8334 10.0167 15.8334C11.7167 15.8334 13.4167 15.5667 15.0333 15.0251C15.6167 14.8334 16.0667 14.3917 16.2833 13.8167C16.5 13.2417 16.4417 12.6084 16.1167 12.0751Z" fill="white"/>
<path opacity="0.5" d="M12.3584 16.6751C12.0084 17.6417 11.0834 18.3334 10 18.3334C9.34169 18.3334 8.69169 18.0667 8.23336 17.5917C7.96669 17.3417 7.76669 17.0084 7.65002 16.6667C7.75836 16.6834 7.86669 16.6917 7.98336 16.7084C8.17502 16.7334 8.37502 16.7584 8.57502 16.7751C9.05002 16.8167 9.53336 16.8417 10.0167 16.8417C10.4917 16.8417 10.9667 16.8167 11.4334 16.7751C11.6084 16.7584 11.7834 16.7501 11.95 16.7251C12.0834 16.7084 12.2167 16.6917 12.3584 16.6751Z" fill="white"/>
</svg>
