<svg width="24" height="24" viewBox="0 0 24 24" fill="none" xmlns="http://www.w3.org/2000/svg">
<path fill-rule="evenodd" clip-rule="evenodd" d="M17.9256 16.6634L18.9652 17.6662C19.1166 17.8122 19.2018 18.0109 19.2018 18.2181C19.2018 18.4254 19.1166 18.6241 18.9652 18.7701C18.8151 18.9172 18.6107 19 18.3975 19C18.1842 19 17.9798 18.9172 17.8297 18.7701L15.6705 16.6634L15.1987 16.2048L14.1272 15.1632L14.0712 15.1087L12.0674 13.1636C12.0451 13.1648 12.0226 13.1654 12 13.1654C11.3375 13.1654 10.8005 12.6433 10.8005 11.9993C10.8005 11.9779 10.8011 11.9566 10.8022 11.9355L8.2255 9.43409L6.82606 8.1126L5.03477 6.33247C4.83192 6.13529 4.7527 5.84789 4.82695 5.57853C4.9012 5.30918 5.11763 5.09879 5.39472 5.02661C5.67182 4.95444 5.96747 5.03145 6.17032 5.22863L7.53777 6.5579L8.71331 7.7006L11.9344 10.835C11.9561 10.8339 11.978 10.8333 12 10.8333C12.6625 10.8333 13.1995 11.3554 13.1995 11.9993C13.1995 12.0212 13.1989 12.0428 13.1977 12.0643L16.3263 15.1087L17.9256 16.6634ZM9.27308 7.14868L11.5122 9.32526C11.6734 9.29782 11.8364 9.28223 12 9.27862C13.5458 9.27862 14.7989 10.4967 14.7989 11.9993C14.7952 12.1584 14.7791 12.3169 14.7509 12.4735L16.8941 14.5568L17.5658 15.2098C18.4797 14.3853 19.2638 13.4345 19.8929 12.388C20.0357 12.1475 20.0357 11.8512 19.8929 11.6107C19.3811 10.7478 16.5662 6.41797 11.7841 6.5579C10.8984 6.58344 10.0242 6.75971 9.20111 7.07872L9.27308 7.14868ZM13.5994 15.7151L14.631 16.7567L14.7989 16.92C13.9758 17.239 13.1016 17.4153 12.2159 17.4408H12.016C7.30587 17.4408 4.61094 13.2353 4.10714 12.388C3.96429 12.1475 3.96429 11.8512 4.10714 11.6107C4.72642 10.5663 5.49964 9.61558 6.40222 8.78889L7.64973 9.97046L9.24909 11.5252C9.22086 11.6818 9.20482 11.8403 9.20111 11.9993C9.20104 12.7277 9.5014 13.4257 10.035 13.9371C10.5685 14.4484 11.2908 14.7305 12.04 14.7201C12.2036 14.7165 12.3666 14.7009 12.5278 14.6734L13.5434 15.6607L13.5994 15.7151Z" fill="#11243D"/>
</svg>
