<svg width="32" height="32" viewBox="0 0 32 32" fill="none" xmlns="http://www.w3.org/2000/svg">
<path d="M31.9999 9.87508V21.125C31.9999 21.6425 31.5799 22.0625 31.0624 22.0625C30.5455 22.0625 30.1249 22.4832 30.1249 23C30.1249 23.5175 29.7049 23.9375 29.1874 23.9375H2.81249C2.29499 23.9375 1.87499 23.5175 1.87499 23C1.87499 22.4832 1.45437 22.0625 0.937496 22.0625C0.419998 22.0625 0 21.6425 0 21.125V9.87508C0 9.35758 0.419998 8.93758 0.937496 8.93758C1.45437 8.93758 1.87499 8.51696 1.87499 8.00009C1.87499 7.48259 2.29499 7.06259 2.81249 7.06259H29.1874C29.7049 7.06259 30.1249 7.48259 30.1249 8.00009C30.1249 8.51696 30.5455 8.93758 31.0624 8.93758C31.5799 8.93758 31.9999 9.35758 31.9999 9.87508Z" fill="#FFE278"/>
<path d="M31.9999 9.87508V21.125C31.9999 21.6425 31.5799 22.0625 31.0624 22.0625C30.5455 22.0625 30.1249 22.4832 30.1249 23C30.1249 23.5175 29.7049 23.9375 29.1874 23.9375H10.5V7.06259H29.1874C29.7049 7.06259 30.1249 7.48259 30.1249 8.00009C30.1249 8.51696 30.5455 8.93758 31.0624 8.93758C31.5799 8.93758 31.9999 9.35758 31.9999 9.87508Z" fill="#ECB455"/>
<path d="M18.2448 1.68637L17.0092 0.596372C15.8077 -0.472437 13.945 -0.0331882 13.1698 1.34512L10.4998 6.08885L7.83048 1.34574C7.04824 -0.0442507 5.18218 -0.463312 3.993 0.593872L2.75175 1.68824C1.39094 2.89961 1.74194 5.10636 3.39425 5.8401C6.76667 7.35272 5.47968 6.77541 8.7936 8.26197L7.47486 9.43446C5.94174 10.7976 5.06237 12.7557 5.06237 14.8069V16.5001C5.06237 17.0176 5.48237 17.4376 5.99986 17.4376C6.51736 17.4376 6.93736 17.0176 6.93736 16.5001V14.8069C6.93736 13.2907 7.58736 11.8432 8.72048 10.8363L9.56235 10.0876V23.9375H11.4373V10.0876L12.2792 10.8363C13.4123 11.8432 14.0623 13.2907 14.0623 14.8069V16.5001C14.0623 17.0176 14.4823 17.4376 14.9998 17.4376C15.5173 17.4376 15.9373 17.0176 15.9373 16.5001V14.8069C15.9373 12.7557 15.058 10.7976 13.5248 9.43446L12.2061 8.26197C12.8535 7.97153 16.9398 6.13854 17.6023 5.84135C19.2556 5.10748 19.6128 2.90211 18.2448 1.68637ZM4.15925 4.12823C3.74219 3.94286 3.66062 3.38999 3.99487 3.09261L5.23612 1.99762C5.52737 1.73806 6.00099 1.91774 6.19611 2.26512L8.28736 5.9801L4.15925 4.12823ZM16.838 4.12948L12.7123 5.9801L14.8036 2.26449C15.0016 1.91299 15.4755 1.74049 15.7661 2.00012L17.0023 3.09011C17.3404 3.3913 17.2578 3.94267 16.838 4.12948Z" fill="#FF6378"/>
<path d="M18.245 1.68637L17.0094 0.596372C15.8079 -0.472437 13.9451 -0.0331882 13.17 1.34512L10.5 6.08885V23.9375H11.4375V10.0876L12.2794 10.8363C13.4125 11.8432 14.0625 13.2907 14.0625 14.8069V16.5001C14.0625 17.0176 14.4825 17.4376 15 17.4376C15.5175 17.4376 15.9375 17.0176 15.9375 16.5001V14.8069C15.9375 12.7557 15.0581 10.7976 13.525 9.43446L12.2062 8.26197C12.8537 7.97153 16.94 6.13854 17.6025 5.84135C19.2557 5.10748 19.6129 2.90211 18.245 1.68637ZM16.8381 4.12948L12.7125 5.9801L14.8037 2.26449C15.0018 1.91299 15.4756 1.74049 15.7662 2.00012L17.0025 3.09011C17.3405 3.3913 17.258 3.94267 16.8381 4.12948Z" fill="#EA1C81"/>
<path d="M27.3096 17.4726L24.0853 23L26.3015 26.7994C26.6656 27.4246 26.2124 28.2094 25.4921 28.2094C25.1696 28.2094 24.8559 28.0431 24.6815 27.7444L22.9996 24.8607L21.3178 27.7444C21.1434 28.0431 20.8296 28.2094 20.5071 28.2094C19.7869 28.2094 19.3335 27.4248 19.6978 26.7994L21.914 23L18.6897 17.4726C18.429 17.0251 18.5803 16.4513 19.0272 16.1901C19.4746 15.9294 20.0484 16.0807 20.3096 16.5276L22.9996 21.1394L25.6896 16.5276C25.9509 16.0807 26.5252 15.9294 26.9721 16.1901C27.419 16.4513 27.5702 17.0251 27.3096 17.4726V17.4726Z" fill="#F1F1FA"/>
<path d="M27.31 17.4726L24.0856 23L26.3019 26.7994C26.666 27.4246 26.2128 28.2094 25.4925 28.2094C25.17 28.2094 24.8562 28.0431 24.6819 27.7444L23 24.8607V21.1394L25.69 16.5276C25.9512 16.0807 26.5256 15.9294 26.9725 16.1901C27.4193 16.4513 27.5706 17.0251 27.31 17.4726Z" fill="#D6D6FA"/>
<path d="M19.5 32C17.8726 32 16.5625 30.621 16.5625 29C16.5625 27.3803 17.8802 26.0625 19.5 26.0625C21.1197 26.0625 22.4375 27.3803 22.4375 29C22.4375 30.6209 21.1274 32 19.5 32ZM19.5 27.9375C18.9141 27.9375 18.4375 28.4141 18.4375 29C18.4375 29.5993 18.934 30.125 19.5 30.125C20.066 30.125 20.5625 29.5993 20.5625 29C20.5625 28.4141 20.0859 27.9375 19.5 27.9375Z" fill="#CDE840"/>
<path d="M26.5 32C24.8726 32 23.5625 30.621 23.5625 29C23.5625 27.3803 24.8802 26.0625 26.5 26.0625C28.1197 26.0625 29.4375 27.3803 29.4375 29C29.4375 30.6209 28.1274 32 26.5 32ZM26.5 27.9375C25.9141 27.9375 25.4375 28.4141 25.4375 29C25.4375 29.5993 25.934 30.125 26.5 30.125C27.066 30.125 27.5625 29.5993 27.5625 29C27.5625 28.4141 27.0859 27.9375 26.5 27.9375Z" fill="#00DA80"/>
<path d="M23 16.9376C22.4822 16.9376 22.0625 16.5178 22.0625 16.0001V14.0001C22.0625 13.4823 22.4822 13.0626 23 13.0626C23.5178 13.0626 23.9375 13.4823 23.9375 14.0001V16.0001C23.9375 16.5178 23.5178 16.9376 23 16.9376Z" fill="#FF8659"/>
<path d="M23.9375 7.06259V10.0001C23.9375 10.5176 23.5175 10.9376 23 10.9376C22.4825 10.9376 22.0625 10.5176 22.0625 10.0001V7.06259H23.9375Z" fill="#FF8659"/>
</svg>
