<svg width="24" height="24" viewBox="0 0 24 24" fill="none" xmlns="http://www.w3.org/2000/svg">
<path fill-rule="evenodd" clip-rule="evenodd" d="M8.875 4C8.66789 4 8.5 4.16789 8.5 4.375V5.52976C8.5 5.73687 8.66789 5.90476 8.875 5.90476H15.125C15.3321 5.90476 15.5 5.73687 15.5 5.52976V4.375C15.5 4.16789 15.3321 4 15.125 4H8.875ZM6.5 7.23214C6.5 7.02504 6.66789 6.85714 6.875 6.85714H17.125C17.3321 6.85714 17.5 7.02504 17.5 7.23214V8.3869C17.5 8.59401 17.3321 8.7619 17.125 8.7619H6.875C6.66789 8.7619 6.5 8.59401 6.5 8.3869V7.23214ZM4.5 11.2143C4.5 10.3859 5.17157 9.71429 6 9.71429H18C18.8284 9.71429 19.5 10.3859 19.5 11.2143V17.5C19.5 18.3284 18.8284 19 18 19H6C5.17157 19 4.5 18.3284 4.5 17.5V11.2143ZM10.9885 16.2088L13.7389 14.3762C13.8813 14.2813 13.9178 14.0918 13.8205 13.953C13.7988 13.9221 13.7714 13.8953 13.7397 13.874L10.9893 12.0298C10.8472 11.9345 10.6527 11.9696 10.555 12.1081C10.5192 12.1589 10.5 12.219 10.5 12.2806V15.9575C10.5 16.1256 10.6398 16.2619 10.8123 16.2619C10.8752 16.2619 10.9366 16.2434 10.9885 16.2088Z" fill="#11243D"/>
</svg>
