<svg width="32" height="24" viewBox="0 0 32 24" fill="none" xmlns="http://www.w3.org/2000/svg">
<path d="M30.521 23.2652H1.47929C0.936043 23.2652 0.495605 22.8249 0.495605 22.2815V1.71831C0.495605 1.17506 0.93598 0.734619 1.47929 0.734619H30.5211C31.0644 0.734619 31.5048 1.17499 31.5048 1.71831V22.2815C31.5047 22.8248 31.0643 23.2652 30.521 23.2652Z" fill="#FE255F"/>
<path d="M31.5044 1.71823V22.282C31.5044 22.8251 31.0644 23.2651 30.5206 23.2651H1.47936C0.935606 23.2651 0.495605 22.8251 0.495605 22.282V20.4063C2.60873 21.067 4.85623 21.4232 7.18686 21.4232C18.9812 21.4232 28.6462 12.3064 29.5187 0.735107H30.5206C31.0644 0.735107 31.5044 1.17511 31.5044 1.71823Z" fill="#E01152"/>
<path d="M31.5045 14.7488V22.2819C31.5045 22.825 31.0645 23.265 30.5208 23.265H16.4526C22.4301 22.2394 27.7014 19.1469 31.5045 14.7488Z" fill="#C40047"/>
<path d="M23.4707 23.5891H21.2861C20.8787 23.5891 20.5483 23.2588 20.5483 22.8514V1.14864C20.5483 0.741201 20.8787 0.410889 21.2861 0.410889H23.4707C23.8781 0.410889 24.2084 0.741201 24.2084 1.14864V22.8513C24.2084 23.2588 23.8781 23.5891 23.4707 23.5891Z" fill="#FFC751"/>
<path d="M24.2086 5.13564V1.14864C24.2086 0.741389 23.8781 0.410889 23.4708 0.410889H22.7341C23.0307 0.852076 23.2043 1.38376 23.2043 1.95526C23.2043 3.44701 22.0253 4.66333 20.5483 4.72333V5.13564H24.2086Z" fill="#FFAF40"/>
<path d="M24.2086 15.8318V22.8513C24.2086 23.2585 23.8781 23.589 23.4708 23.589H21.2861C20.8788 23.589 20.5483 23.2585 20.5483 22.8513V22.028C22.163 21.7152 23.7222 19.194 24.1913 15.9553C24.1973 15.9139 24.2032 15.8731 24.2086 15.8318Z" fill="#FFAF40"/>
<path d="M0 8.61811V6.43355C0 6.02611 0.330312 5.6958 0.73775 5.6958H31.2623C31.6697 5.6958 32 6.02611 32 6.43355V8.61811C32 9.02555 31.6697 9.35586 31.2623 9.35586H0.73775C0.330312 9.35586 0 9.02555 0 8.61811H0Z" fill="#FFC751"/>
<path d="M17.8648 5.6958H15.7271C15.7379 5.80105 15.7433 5.9078 15.7433 6.01599C15.7433 7.6223 14.5604 8.95224 13.0181 9.18143C13.1464 9.29061 13.3127 9.35605 13.4942 9.35605H17.8648V5.6958H17.8648Z" fill="#FFAF40"/>
<path d="M14.1822 14.8564C14.0409 14.4529 14.2279 14.0057 14.6171 13.8288C15.9112 13.2407 17.0245 12.3357 17.866 11.1809C18.6847 10.0576 19.2036 8.76394 19.3868 7.40269C19.4439 6.97844 19.8167 6.66881 20.2444 6.68731L22.0042 6.76337C22.4892 6.78431 22.8501 7.21487 22.7922 7.69681C22.5538 9.67881 21.8134 11.5631 20.626 13.1923C19.401 14.8733 17.7702 16.1798 15.8735 17.0079C15.4337 17.1999 14.9236 16.9716 14.7649 16.5187L14.1822 14.8564Z" fill="#FFAF40"/>
<path d="M22.7924 7.69674C22.5537 9.67874 21.8135 11.5634 20.626 13.1925C19.4011 14.8733 17.7701 16.1801 15.8736 17.0079C15.4335 17.2001 14.9238 16.9716 14.765 16.5187L14.5278 15.8425C17.5687 15.6412 19.9728 13.1105 19.9728 10.0184C19.9728 9.0978 19.7597 8.22693 19.3796 7.45236C19.3821 7.43599 19.3847 7.41905 19.3868 7.40268C19.4436 6.97849 19.8166 6.66911 20.2443 6.68755L22.0045 6.76336C22.4892 6.78443 22.8503 7.21524 22.7924 7.69674Z" fill="#FF993A"/>
<path d="M30.5736 14.8564C30.7149 14.4529 30.5279 14.0057 30.1387 13.8288C28.8446 13.2407 27.7313 12.3357 26.8897 11.1809C26.0711 10.0576 25.5522 8.76394 25.369 7.40269C25.3119 6.97844 24.9391 6.66881 24.5114 6.68731L22.7516 6.76337C22.2666 6.78431 21.9057 7.21487 21.9636 7.69681C22.202 9.67881 22.9424 11.5631 24.1298 13.1923C25.3548 14.8733 26.9856 16.1798 28.8823 17.0079C29.3221 17.1999 29.8322 16.9716 29.9909 16.5187L30.5736 14.8564Z" fill="#FFAF40"/>
<path d="M30.5741 14.8564L29.9911 16.5187C29.8804 16.8343 29.5997 17.0407 29.2902 17.072C29.0664 13.7063 26.2832 11.0414 22.8699 11.0051C22.4073 9.95536 22.1014 8.84224 21.9636 7.69674C21.9057 7.21518 22.2669 6.78436 22.7515 6.76336L24.5117 6.68755C24.9394 6.66911 25.3124 6.97855 25.3692 7.40268C25.5526 8.7643 26.0716 10.0578 26.8902 11.1807C27.7314 12.3359 28.8451 13.2411 30.1391 13.8287C30.528 14.006 30.7155 14.4532 30.5741 14.8564Z" fill="#FF993A"/>
<path d="M26.462 10.0172L24.5857 9.35665C23.9276 9.12496 23.4873 8.50315 23.4873 7.80547V5.85103C23.4873 5.15328 23.9276 4.53153 24.5857 4.29985L26.462 3.63935C27.5317 3.26278 28.6526 4.05647 28.6526 5.19053V8.46597C28.6526 9.60003 27.5317 10.3937 26.462 10.0172Z" fill="#FF993A"/>
<path d="M18.2946 10.0172L20.1708 9.35666C20.8289 9.12498 21.2693 8.50323 21.2693 7.80548V5.85104C21.2693 5.15329 20.8289 4.53153 20.1708 4.29985L18.2946 3.63935C17.2249 3.26278 16.104 4.05647 16.104 5.19054V8.46598C16.104 9.60004 17.2248 10.3937 18.2946 10.0172Z" fill="#FF993A"/>
<path d="M21.2691 5.85139V7.80508C21.2691 8.50345 20.8295 9.12508 20.1705 9.35639L18.2947 10.0174C17.2697 10.3781 16.1974 9.66333 16.1108 8.60533C16.2895 8.6382 16.4737 8.65464 16.6623 8.65464C18.3978 8.65464 19.8055 7.24695 19.8055 5.51146C19.8055 4.98083 19.674 4.48089 19.4415 4.04346L20.1706 4.30002C20.8295 4.53139 21.2691 5.15302 21.2691 5.85139Z" fill="#F97C15"/>
<path d="M22.8342 9.48167H21.9218C21.1339 9.48167 20.4951 8.84292 20.4951 8.05499V5.60174C20.4951 4.8138 21.1339 4.17505 21.9219 4.17505H22.8342C23.6222 4.17505 24.2609 4.8138 24.2609 5.60174V8.05499C24.2609 8.84292 23.6221 9.48167 22.8342 9.48167Z" fill="#FFE059"/>
<path d="M28.6526 5.19028V8.46616C28.6526 9.59978 27.531 10.3935 26.4621 10.0175L24.5851 9.35635C24.379 9.28397 24.1948 9.17328 24.0381 9.03403C24.1115 9.03953 24.1861 9.04172 24.2606 9.04172C26.1496 9.04172 27.6812 7.51016 27.6812 5.62115C27.6812 4.84059 27.4192 4.12028 26.9785 3.54471C27.8643 3.52821 28.6526 4.23978 28.6526 5.19028Z" fill="#F97C15"/>
<path d="M24.2606 6.26025V8.05494C24.2606 8.84319 23.6225 9.48125 22.8342 9.48125H21.9221C21.1338 9.48125 20.4946 8.84319 20.4946 8.05488V7.99019C20.8345 8.13819 21.2094 8.22044 21.6041 8.22044C22.854 8.22044 23.9109 7.39494 24.2606 6.26025Z" fill="#FFC751"/>
<path d="M32 6.43355V8.6183C32 9.02555 31.6695 9.35605 31.2623 9.35605H28.5483C29.8645 8.94243 30.8187 7.7128 30.8187 6.26043C30.8187 6.06761 30.8019 5.87924 30.7695 5.6958H31.2623C31.6695 5.6958 32 6.0263 32 6.43355Z" fill="#FFAF40"/>
<path d="M20.5483 18.18V14.6844C20.5483 14.0643 21.0511 13.5615 21.6712 13.5615C22.2913 13.5615 22.7941 14.0643 22.7941 14.6844V18.18C22.7941 18.8001 22.2913 19.3029 21.6712 19.3029C21.0511 19.3028 20.5483 18.8001 20.5483 18.18Z" fill="#FFE059"/>
<path d="M3.41682 5.70532H6.91245C7.53257 5.70532 8.03532 6.20807 8.03532 6.8282C8.03532 7.44832 7.53257 7.95107 6.91245 7.95107H3.41682C2.7967 7.95107 2.29395 7.44832 2.29395 6.8282C2.29395 6.20801 2.79663 5.70532 3.41682 5.70532Z" fill="#FFE059"/>
<path d="M3.41682 0.734619H10.0374C10.6576 0.734619 11.1603 1.23737 11.1603 1.85749C11.1603 2.47762 10.6576 2.98037 10.0374 2.98037H3.41682C2.7967 2.98037 2.29395 2.47762 2.29395 1.85749C2.29395 1.23737 2.79663 0.734619 3.41682 0.734619Z" fill="#FC709B"/>
<path d="M17.5874 6.01608C18.1321 6.01608 18.5737 5.57449 18.5737 5.02977C18.5737 4.48504 18.1321 4.04346 17.5874 4.04346C17.0427 4.04346 16.6011 4.48504 16.6011 5.02977C16.6011 5.57449 17.0427 6.01608 17.5874 6.01608Z" fill="#FFC751"/>
<path d="M13.0836 2.83824C13.6645 2.83824 14.1354 2.36733 14.1354 1.78643C14.1354 1.20553 13.6645 0.734619 13.0836 0.734619C12.5027 0.734619 12.0317 1.20553 12.0317 1.78643C12.0317 2.36733 12.5027 2.83824 13.0836 2.83824Z" fill="#FC709B"/>
<path d="M11.1416 21.0005H3.23145C2.7137 21.0005 2.29395 20.5807 2.29395 20.063V16.8347C2.29395 16.317 2.7137 15.8972 3.23145 15.8972H11.1416C11.6594 15.8972 12.0791 16.317 12.0791 16.8347V20.063C12.0791 20.5807 11.6594 21.0005 11.1416 21.0005Z" fill="#EEFDFF"/>
<path d="M12.0796 16.835V20.0631C12.0796 20.5806 11.6596 21.0006 11.1421 21.0006H3.23145C2.71395 21.0006 2.29395 20.5806 2.29395 20.0631V19.6056C2.95332 19.8056 3.6527 19.9125 4.37707 19.9125C7.20957 19.9125 9.65895 18.2762 10.8327 15.8975H11.1421C11.6596 15.8975 12.0796 16.3168 12.0796 16.835Z" fill="#B6F0FF"/>
<path d="M4.45707 14.6721H3.36732C2.77451 14.6721 2.29395 14.1916 2.29395 13.5988C2.29395 13.006 2.77451 12.5254 3.36732 12.5254H4.45713C5.04995 12.5254 5.53051 13.006 5.53051 13.5988C5.53045 14.1916 5.04988 14.6721 4.45707 14.6721Z" fill="#FFE059"/>
</svg>
