<svg width="56" height="59" viewBox="0 0 56 59" fill="none" xmlns="http://www.w3.org/2000/svg">
<path opacity="0.25" d="M50.9436 47.7488C51.5365 52.1334 44.7773 56.6381 35.8837 57.8994C26.99 59.1607 19.2229 56.6381 18.63 52.3136C18.0371 47.929 24.7962 43.4243 33.6899 42.163C42.6429 40.8416 50.3507 43.3642 50.9436 47.7488Z" fill="#3F2F36"/>
<path d="M43.2948 40.3011C40.1524 39.22 35.8834 38.8596 31.318 39.5203C26.7526 40.181 22.7208 41.6826 19.9934 43.6046L15.4873 44.2653L16.1988 49.2505C16.7917 53.635 24.4995 56.0976 33.4525 54.8363C42.3462 53.575 49.1054 49.0102 48.5124 44.6857L47.8009 39.6404L43.2948 40.3011Z" fill="#E6A930"/>
<path d="M47.801 39.6405C48.3939 44.025 41.6348 48.5297 32.7411 49.791C23.8474 51.0524 16.0803 48.5297 15.4874 44.2052C14.8945 39.8207 21.6537 35.316 30.5473 34.0547C39.441 32.7933 47.1488 35.316 47.801 39.6405Z" fill="#F3D438"/>
<path d="M42.9396 40.0009C43.2954 42.6437 38.4928 45.4666 32.208 46.3676C25.9231 47.2685 20.5276 45.827 20.1719 43.2443C19.8161 40.6016 24.6187 37.7786 30.9036 36.8777C37.1884 35.9767 42.5839 37.3582 42.9396 40.0009Z" fill="#E6A930"/>
<path d="M31.2593 39.2802C36.5362 38.5594 41.1609 39.4003 42.7618 41.2623C42.9396 40.8418 43.0582 40.4214 42.9989 40.0009C42.6432 37.3582 37.2477 35.9767 30.9628 36.8777C24.6187 37.7186 19.8161 40.6016 20.1719 43.1843C20.2312 43.6047 20.409 43.9651 20.7055 44.3254C21.7727 42.1632 25.9824 40.0009 31.2593 39.2802Z" fill="#BA651D"/>
<path d="M15.4873 44.2053C15.3688 43.3644 15.5466 42.5235 15.8431 41.7427C16.1988 41.022 16.6732 40.3012 17.2068 39.7006C18.3333 38.4994 19.697 37.5384 21.1793 36.7575C22.6023 35.9767 24.1438 35.3761 25.7447 34.8956C27.3456 34.4151 28.9464 34.0547 30.5473 33.8145C32.1481 33.6343 33.8083 33.5142 35.4684 33.5142C37.1286 33.5742 38.7294 33.6943 40.3303 34.0547C41.9312 34.4151 43.532 34.9557 44.955 35.7965C45.6665 36.217 46.3187 36.7575 46.8523 37.4182C47.3859 38.0789 47.7417 38.8597 47.8603 39.6405C47.6824 38.7997 47.3266 38.0789 46.793 37.4783C46.2001 36.8777 45.6072 36.3972 44.8957 35.9767C43.4727 35.1959 41.9312 34.7154 40.3303 34.355C38.7294 34.0547 37.1286 33.8745 35.5277 33.8745C33.9269 33.8745 32.2667 33.9947 30.6659 34.2349C29.065 34.4752 27.4641 34.7755 25.9226 35.256C24.381 35.7365 22.8394 36.3371 21.4164 37.0579C19.9935 37.7786 18.5705 38.6795 17.4439 39.8808C16.851 40.4214 16.3767 41.1421 16.021 41.8629C15.5466 42.5836 15.428 43.3644 15.4873 44.2053Z" fill="#FBF3A6"/>
<path d="M29.3024 50.2714C34.52 49.9711 40.3898 48.7699 44.6587 45.5265C44.7773 45.4664 44.6587 45.2863 44.5402 45.3463C39.9747 48.1693 34.5793 49.6108 29.3024 49.9711C29.1245 50.0312 29.1245 50.2714 29.3024 50.2714Z" fill="#D68726"/>
<path d="M43.7101 46.0073C43.6508 46.1274 43.7101 46.3677 43.7694 46.4878C43.8287 47.0284 43.9473 47.5089 44.0066 48.0495C44.1251 48.8903 44.303 49.7312 44.4809 50.512C44.4809 50.6321 44.6588 50.5721 44.5995 50.452C44.4809 49.6711 44.3623 48.8303 44.2437 48.0495C44.1844 47.569 44.0659 47.0284 44.0066 46.5479C44.0066 46.3677 44.0066 46.1274 43.888 46.0073C43.8287 46.0073 43.7694 46.0073 43.7101 46.0073Z" fill="#D68726"/>
<path d="M39.5 37.6586C39.4407 37.7186 39.5 37.8388 39.5 37.8988C39.5 38.1391 39.5593 38.3193 39.6186 38.5595C39.6779 38.9199 39.7371 39.2803 39.7964 39.7007C39.7964 39.7608 39.8557 39.7608 39.8557 39.7007C39.7964 39.3403 39.7964 38.9799 39.7371 38.5595C39.7371 38.3193 39.6779 38.1391 39.6186 37.8988C39.6186 37.8388 39.6186 37.6586 39.5 37.6586C39.5593 37.5985 39.5 37.5985 39.5 37.6586Z" fill="#A3591D"/>
<path d="M23.373 39.6408C23.3137 39.7008 23.373 39.8209 23.373 39.881C23.373 40.1213 23.4323 40.3014 23.4916 40.5417C23.5509 40.9021 23.6102 41.2624 23.6695 41.6829C23.6695 41.7429 23.7288 41.7429 23.7288 41.6829C23.6695 41.3225 23.6695 40.9621 23.6102 40.5417C23.6102 40.3014 23.5509 40.1213 23.4916 39.881C23.4916 39.8209 23.4916 39.6408 23.373 39.6408C23.4323 39.5807 23.4323 39.5807 23.373 39.6408Z" fill="#A3591D"/>
<path d="M21.6533 40.7217C21.594 40.7817 21.6533 40.9019 21.6533 40.9619C21.6533 41.2022 21.7126 41.3824 21.7719 41.6226C21.8312 41.983 21.8905 42.3434 21.9498 42.7638C21.9498 42.8239 22.0091 42.8239 22.0091 42.7638C21.9498 42.4034 21.9498 42.0431 21.8905 41.6226C21.8905 41.3824 21.8312 41.2022 21.7719 40.9619C21.7719 40.9019 21.7719 40.7817 21.6533 40.7217Z" fill="#A3591D"/>
<path d="M41.3384 47.1484C41.1605 47.3286 41.4569 48.2896 41.5162 48.5299C41.6348 49.1305 41.7534 49.7311 41.872 50.2717C41.872 50.3918 41.9906 50.3318 41.9906 50.2116C41.9313 49.611 41.8127 49.0704 41.6941 48.4698C41.6348 48.2296 41.5755 47.2085 41.3976 47.0884C41.3976 47.1484 41.3384 47.1484 41.3384 47.1484Z" fill="#D68726"/>
<path d="M33.927 51.5929C33.7491 51.713 34.0455 52.7341 34.0455 52.9143C34.1048 53.5149 34.2234 54.0555 34.342 54.6561C34.342 54.7161 34.4606 54.7161 34.4606 54.6561C34.4013 54.0555 34.342 53.5149 34.2827 52.9143C34.2827 52.7341 34.2234 51.713 34.0455 51.5929C33.9862 51.5328 33.9862 51.5328 33.927 51.5929Z" fill="#D68726"/>
<path d="M41.9316 50.6919C41.9909 51.1724 42.0502 51.5328 42.1688 51.9532C42.1688 52.0133 42.2281 52.0133 42.2281 51.9532C42.1688 51.5328 42.1095 51.1123 41.9909 50.752C42.0502 50.6919 41.9909 50.6919 41.9316 50.6919C41.9909 50.6919 41.9909 50.6919 41.9316 50.6919Z" fill="#D68726"/>
<path d="M33.5713 49.7911C33.6306 50.2716 33.6899 50.632 33.8085 51.0525C33.8085 51.1125 33.8677 51.1125 33.8677 51.0525C33.8085 50.632 33.7492 50.2116 33.6306 49.8512C33.6899 49.7911 33.6306 49.7311 33.5713 49.7911C33.6306 49.7311 33.6306 49.7311 33.5713 49.7911Z" fill="#D68726"/>
<path d="M45.6076 44.5654C45.5483 44.6856 45.6076 44.9258 45.6669 45.0459C45.7261 45.5865 45.8447 46.067 45.904 46.6076C46.0226 47.4484 46.2005 48.2893 46.3783 49.0701C46.3783 49.1902 46.5562 49.1302 46.4969 49.0101C46.3783 48.2292 46.2598 47.3884 46.1412 46.6076C46.0819 46.1271 45.9633 45.5865 45.904 45.106C45.904 44.9258 45.904 44.6856 45.7854 44.5654C45.6669 44.5654 45.6076 44.5654 45.6076 44.5654Z" fill="#D68726"/>
<path d="M24.7962 49.9713C24.559 50.3918 24.9741 51.593 25.0334 52.0735C25.1519 52.9144 25.2705 53.7553 25.3891 54.6562C25.3891 54.7163 25.5077 54.7163 25.5077 54.6562C25.4484 53.8153 25.3298 52.9745 25.2112 52.0735C25.1519 51.593 25.0927 51.1125 25.0334 50.632C25.0334 50.4518 25.0334 50.1515 24.9148 50.0314C24.8555 49.9113 24.7962 49.9113 24.7962 49.9713Z" fill="#D68726"/>
<path d="M22.0687 49.4308C21.8315 49.8512 22.2465 51.0525 22.3058 51.533C22.4244 52.3739 22.543 53.2148 22.6616 54.1157C22.6616 54.1758 22.7802 54.1758 22.7802 54.1157C22.7209 53.2748 22.6023 52.4339 22.4837 51.533C22.4244 51.0525 22.3651 50.572 22.3058 50.0915C22.3058 49.9113 22.3058 49.611 22.1872 49.4909C22.1279 49.3707 22.0687 49.3707 22.0687 49.4308Z" fill="#D68726"/>
<path d="M19.8753 48.8903C19.6381 49.3107 20.0532 50.512 20.1125 50.9925C20.231 51.8334 20.3496 52.6742 20.4682 53.5752C20.4682 53.6352 20.5868 53.6352 20.5868 53.5752C20.5275 52.7343 20.4089 51.8934 20.2903 50.9925C20.231 50.512 20.1718 50.0315 20.1125 49.551C20.1125 49.3708 20.1125 49.0705 19.9939 48.9503C19.9939 48.8302 19.9346 48.8302 19.8753 48.8903Z" fill="#D68726"/>
<path d="M18.0374 47.8691C17.8002 48.2896 18.2153 49.4908 18.2746 49.9713C18.3932 50.8122 18.5117 51.6531 18.6303 52.554C18.6303 52.6141 18.7489 52.6141 18.7489 52.554C18.6896 51.7131 18.571 50.8723 18.4524 49.9713C18.3932 49.4908 18.3339 49.0103 18.2746 48.5298C18.2746 48.3496 18.2746 48.0493 18.156 47.9292C18.0967 47.8691 18.0374 47.8691 18.0374 47.8691Z" fill="#D68726"/>
<path d="M16.7327 47.028C16.4956 47.4484 16.9106 48.6497 16.9699 49.1302C17.0885 49.971 17.207 50.8119 17.3256 51.7129C17.3256 51.7729 17.4442 51.7729 17.4442 51.7129C17.3849 50.872 17.2663 50.0311 17.1478 49.1302C17.0885 48.6497 17.0292 48.1692 16.9699 47.6887C16.9699 47.5085 16.9699 47.2082 16.8513 47.088C16.792 46.9679 16.7327 46.9679 16.7327 47.028Z" fill="#D68726"/>
<path d="M46.7931 43.1243C46.7338 43.2444 46.7931 43.4846 46.8524 43.6048C46.9117 44.1453 47.0303 44.6258 47.0896 45.1664C47.2082 46.0073 47.386 46.8481 47.5639 47.629C47.5639 47.7491 47.7418 47.689 47.6825 47.5689C47.5639 46.7881 47.4453 45.9472 47.3267 45.1664C47.2674 44.6859 47.1489 44.1453 47.0896 43.6648C47.0896 43.4846 47.0896 43.2444 46.971 43.1243C46.8524 43.1243 46.7931 43.1243 46.7931 43.1243Z" fill="#D68726"/>
<path d="M47.4455 42.0431C47.3862 42.1632 47.4455 42.4035 47.5047 42.5236C47.564 43.0041 47.6826 43.4846 47.7419 43.9651C47.8605 44.7459 48.0384 45.5267 48.157 46.3075C48.157 46.4277 48.2755 46.3676 48.2755 46.2475C48.157 45.4667 48.0384 44.7459 47.9198 44.0252C47.8605 43.5447 47.7419 43.0642 47.6826 42.5837C47.6826 42.4635 47.6826 42.1632 47.564 42.0431C47.5048 41.983 47.5047 41.983 47.4455 42.0431Z" fill="#D68726"/>
<path opacity="0.25" d="M55.3905 46.3071C54.9755 50.6917 47.3269 53.4546 38.374 52.4936C29.421 51.5326 22.5432 47.2081 22.9583 42.8235C23.4326 38.439 31.0219 35.6761 39.9748 36.6371C48.9871 37.6581 55.8648 41.9826 55.3905 46.3071Z" fill="#3F2F36"/>
<path d="M49.6985 37.2378C46.9118 35.436 42.88 34.0545 38.2553 33.574C33.6306 33.0935 29.4209 33.574 26.2785 34.7753L21.7724 34.2347L21.2388 39.2199C20.7644 43.6045 27.7015 47.929 36.6544 48.89C45.6074 49.851 53.256 47.0881 53.671 42.7035L54.2046 37.7183L49.6985 37.2378Z" fill="url(#paint0_linear_451_59061)"/>
<path d="M54.204 37.7183C53.7296 42.1028 46.1404 44.8657 37.1874 43.9047C28.2345 42.9437 21.3567 38.6192 21.7717 34.2346C22.2461 29.8501 29.8353 27.0872 38.7883 28.0482C47.8005 29.0092 54.6783 33.3337 54.204 37.7183Z" fill="url(#paint1_linear_451_59061)"/>
<path d="M49.463 36.8775C49.1666 39.5203 43.8304 41.0819 37.5455 40.4212C31.2014 39.7605 26.3395 37.0577 26.5767 34.415C26.8731 31.7722 32.2093 30.2106 38.4942 30.8713C44.8383 31.532 49.7595 34.2348 49.463 36.8775Z" fill="#E6A930"/>
<path d="M38.256 33.3338C43.5329 33.8744 47.8612 35.8565 48.9284 38.0788C49.2249 37.7184 49.4027 37.298 49.462 36.8775C49.7585 34.2348 44.8373 31.532 38.4932 30.8713C32.149 30.2106 26.8128 31.7722 26.5757 34.415C26.5164 34.8354 26.6349 35.2558 26.8721 35.6763C28.3544 33.8143 32.9791 32.7933 38.256 33.3338Z" fill="#BA651D"/>
<path d="M21.7725 34.2347C21.891 33.3938 22.1875 32.613 22.6618 31.9523C23.1954 31.2916 23.7884 30.7511 24.4999 30.2706C25.8635 29.3696 27.4644 28.769 29.0653 28.3486C30.6661 27.9281 32.267 27.7479 33.9271 27.6278C35.5873 27.5677 37.1881 27.6278 38.8483 27.7479C40.4492 27.9281 42.1093 28.2284 43.7102 28.6489C45.311 29.0693 46.8526 29.6099 48.3349 30.3907C49.8171 31.1114 51.2401 32.0124 52.3667 33.2136C52.9596 33.8143 53.4339 34.4749 53.7897 35.2558C54.1454 36.0366 54.264 36.8774 54.2047 37.6583C54.264 36.8174 54.0268 36.0366 53.6711 35.2558C53.256 34.535 52.7817 33.8743 52.1888 33.3338C51.003 32.1926 49.58 31.3517 48.157 30.691C46.6747 30.0303 45.1332 29.4898 43.5916 29.0693C41.9907 28.6489 40.4492 28.4086 38.789 28.2284C37.1881 28.0482 35.528 27.9882 33.9271 28.0482C32.3263 28.1083 30.7254 28.3486 29.1246 28.7089C27.5237 29.0693 25.9821 29.6099 24.6184 30.4508C23.9069 30.8712 23.314 31.4118 22.7804 32.0124C22.3061 32.6731 21.891 33.4539 21.7725 34.2347Z" fill="#F8E874"/>
<path d="M46.6747 33.7542C46.6154 33.8143 46.6154 33.8744 46.6154 33.9344C46.6154 34.1747 46.5561 34.4149 46.5561 34.6552C46.4968 35.0155 46.4968 35.436 46.4375 35.7964C46.4375 35.8564 46.4968 35.8564 46.4968 35.7964C46.5561 35.436 46.5561 35.0756 46.6154 34.7152C46.6154 34.475 46.6747 34.2347 46.6747 33.9945C46.734 33.9344 46.7933 33.8143 46.6747 33.7542C46.734 33.7542 46.6747 33.6942 46.6747 33.7542Z" fill="#A3591D"/>
<path d="M30.5477 31.7119C30.4884 31.772 30.4884 31.832 30.4884 31.8921C30.4884 32.1324 30.4291 32.3726 30.4291 32.6129C30.3698 32.9732 30.3698 33.3937 30.3105 33.754C30.3105 33.8141 30.3698 33.8141 30.3698 33.754C30.4291 33.3937 30.4291 33.0333 30.4884 32.6729C30.4884 32.4327 30.5477 32.1924 30.5477 31.9522C30.607 31.9522 30.6663 31.832 30.5477 31.7119C30.607 31.7119 30.607 31.7119 30.5477 31.7119Z" fill="#A3591D"/>
<path d="M28.5907 32.3728C28.5314 32.4329 28.5314 32.4929 28.5314 32.553C28.5314 32.7932 28.4721 33.0335 28.4721 33.2737C28.4128 33.6341 28.4128 34.0546 28.3535 34.4149C28.3535 34.475 28.4128 34.475 28.4128 34.4149C28.4721 34.0546 28.4721 33.6942 28.5314 33.3338C28.5314 33.0936 28.5907 32.8533 28.5907 32.6131C28.65 32.6131 28.7093 32.4329 28.5907 32.3728C28.65 32.3728 28.65 32.3728 28.5907 32.3728Z" fill="#A3591D"/>
<g opacity="0.25">
<g opacity="0.25">
<g opacity="0.25">
<path opacity="0.25" d="M48.8101 42.944C48.6915 43.0641 48.7508 43.2443 48.7508 43.4245C48.6915 43.965 48.6915 44.5056 48.6323 44.9861C48.573 45.827 48.5137 46.6679 48.5137 47.5087C48.5137 47.6289 48.6323 47.5688 48.6323 47.5087C48.6915 46.6679 48.7508 45.887 48.8101 45.0462C48.8694 44.5657 48.8694 44.0251 48.9287 43.5446C48.9287 43.3644 48.988 43.0641 48.9287 42.944C48.8694 42.8839 48.8101 42.8839 48.8101 42.944Z" fill="#D68726"/>
</g>
</g>
<g opacity="0.25">
<g opacity="0.25">
<path opacity="0.25" d="M46.2013 43.4243C45.9641 43.5444 46.0827 44.5655 46.0827 44.8058C46.0234 45.4064 46.0234 46.007 46.0234 46.6076C46.0234 46.7278 46.142 46.6677 46.142 46.6076C46.2013 46.007 46.2606 45.4664 46.2606 44.8658C46.2606 44.6256 46.4978 43.6045 46.2606 43.4243C46.2606 43.4243 46.2013 43.4243 46.2013 43.4243Z" fill="#D68726"/>
</g>
</g>
<g opacity="0.25">
<g opacity="0.25">
<path opacity="0.25" d="M37.9595 45.887C37.7224 46.0071 37.7817 47.0282 37.7817 47.2083C37.7224 47.809 37.6631 48.3495 37.6631 48.9502C37.6631 49.0102 37.7817 49.0703 37.7817 48.9502C37.841 48.4096 37.9003 47.869 37.9595 47.3285C37.9595 47.0882 38.256 46.0672 38.0188 45.887C38.0188 45.887 38.0188 45.887 37.9595 45.887Z" fill="#D68726"/>
</g>
</g>
<g opacity="0.25">
<g opacity="0.25">
<path opacity="0.25" d="M45.9628 46.9683C45.9628 47.0283 45.9628 47.0283 45.9628 46.9683C45.9035 47.0283 45.9035 47.0283 45.9628 46.9683C45.9035 47.3887 45.8442 47.8091 45.9035 48.2296C45.9035 48.2896 45.9628 48.2896 45.9628 48.2296C46.022 47.8091 46.022 47.3887 46.022 47.0283C46.022 47.0283 46.022 47.0283 45.9628 46.9683Z" fill="#D68726"/>
</g>
</g>
<g opacity="0.25">
<g opacity="0.25">
<path opacity="0.25" d="M38.078 44.0852C38.0187 44.0852 38.0187 44.0852 38.078 44.0852C38.0187 44.5056 37.9594 44.9261 38.0187 45.3465C38.0187 45.4066 38.078 45.4066 38.078 45.3465C38.1373 44.9261 38.1373 44.5056 38.1373 44.1453C38.1373 44.0852 38.1373 44.0852 38.078 44.0852Z" fill="#D68726"/>
</g>
</g>
<g opacity="0.25">
<g opacity="0.25">
<path opacity="0.25" d="M50.9439 41.9828C50.8253 42.1029 50.8846 42.2831 50.8846 42.4633C50.8253 43.0039 50.8253 43.5444 50.766 44.0249C50.7068 44.8658 50.6475 45.7067 50.6475 46.5475C50.6475 46.6677 50.766 46.6076 50.766 46.5475C50.8253 45.7067 50.8846 44.9259 50.9439 44.085C51.0032 43.6045 51.0032 43.0639 51.0625 42.5834C51.0625 42.4032 51.1218 42.1029 51.0625 41.9828C51.0032 41.9227 50.9439 41.9227 50.9439 41.9828Z" fill="#D68726"/>
</g>
</g>
<g opacity="0.25">
<g opacity="0.25">
<path opacity="0.25" d="M29.4809 42.1032C29.3623 42.2234 29.4216 42.4036 29.3623 42.5837C29.303 43.1243 29.2437 43.6649 29.1844 44.2054C29.1251 45.0463 29.0066 45.9472 28.9473 46.7881C28.9473 46.8482 29.0658 46.9082 29.0658 46.7881C29.1844 46.0073 29.2437 45.1664 29.3623 44.3856C29.4216 43.8451 29.4809 43.3045 29.5402 42.7639C29.5402 42.5837 29.6588 42.2834 29.5402 42.1633C29.5402 42.1032 29.4809 42.0432 29.4809 42.1032Z" fill="#D68726"/>
</g>
</g>
<g opacity="0.25">
<g opacity="0.25">
<path opacity="0.25" d="M26.9311 40.9016C26.8125 41.0217 26.8718 41.2019 26.8125 41.3821C26.7532 41.9227 26.6939 42.4632 26.6346 43.0038C26.5753 43.8447 26.4568 44.7456 26.3975 45.5865C26.3975 45.6466 26.516 45.7066 26.516 45.5865C26.6346 44.8057 26.6939 43.9648 26.8125 43.184C26.8718 42.6434 26.9311 42.1029 26.9904 41.5623C26.9904 41.3821 27.109 41.0818 26.9904 40.9617C27.0497 40.9016 26.9904 40.9016 26.9311 40.9016Z" fill="#D68726"/>
</g>
</g>
<g opacity="0.25">
<g opacity="0.25">
<path opacity="0.25" d="M24.9741 39.8806C24.8555 40.0007 24.9148 40.1809 24.8555 40.3611C24.7962 40.9017 24.7369 41.4422 24.6776 41.9828C24.6183 42.8237 24.4997 43.7246 24.4404 44.5655C24.4404 44.6255 24.559 44.6856 24.559 44.5655C24.6776 43.7847 24.7369 42.9438 24.8555 42.163C24.9148 41.6224 24.974 41.0818 25.0333 40.5413C25.0333 40.3611 25.1519 40.0608 25.0333 39.9407C25.0333 39.8806 24.9741 39.8205 24.9741 39.8806Z" fill="#D68726"/>
</g>
</g>
<g opacity="0.25">
<g opacity="0.25">
<path opacity="0.25" d="M23.3735 38.4392C23.2549 38.5593 23.3142 38.7395 23.2549 38.9197C23.1956 39.4603 23.1363 40.0008 23.077 40.5414C23.0177 41.3823 22.8991 42.2832 22.8398 43.1241C22.8398 43.1842 22.9584 43.2442 22.9584 43.1241C23.077 42.3433 23.1363 41.5024 23.2549 40.7216C23.3142 40.181 23.3735 39.6405 23.4328 39.0999C23.4328 38.9197 23.5513 38.6194 23.4328 38.4993C23.4328 38.4392 23.3735 38.4392 23.3735 38.4392Z" fill="#D68726"/>
</g>
</g>
<g opacity="0.25">
<g opacity="0.25">
<path opacity="0.25" d="M22.3656 37.298C22.2471 37.4181 22.3064 37.5983 22.2471 37.7785C22.1878 38.3191 22.1285 38.8596 22.0692 39.4002C22.0099 40.2411 21.8913 41.142 21.832 41.9829C21.832 42.0429 21.9506 42.103 21.9506 41.9829C22.0692 41.2021 22.1285 40.3612 22.2471 39.5804C22.3064 39.0398 22.3657 38.4992 22.4249 37.9587C22.4249 37.7785 22.5435 37.4782 22.4249 37.3581C22.4249 37.2379 22.3656 37.2379 22.3656 37.298Z" fill="#D68726"/>
</g>
</g>
<g opacity="0.25">
<g opacity="0.25">
<path opacity="0.25" d="M52.4263 40.8418C52.3078 40.9619 52.367 41.1421 52.367 41.3223C52.3078 41.8629 52.3078 42.4034 52.2485 42.8839C52.1892 43.7248 52.1299 44.5657 52.1299 45.4065C52.1299 45.5267 52.2485 45.4666 52.2485 45.4065C52.3078 44.5657 52.367 43.7849 52.4263 42.944C52.4856 42.4635 52.4856 41.9229 52.5449 41.4424C52.5449 41.2622 52.6042 40.9619 52.5449 40.8418C52.4856 40.8418 52.4263 40.8418 52.4263 40.8418Z" fill="#D68726"/>
</g>
</g>
<g opacity="0.25">
<g opacity="0.25">
<path opacity="0.25" d="M53.3746 39.9408C53.256 40.0609 53.3153 40.2411 53.3153 40.3612C53.256 40.8417 53.256 41.3222 53.1967 41.8628C53.1374 42.6436 53.0781 43.4244 53.0781 44.2052C53.0781 44.3253 53.1967 44.2653 53.1967 44.2052C53.256 43.4244 53.3153 42.7036 53.3746 41.9228C53.4339 41.4423 53.4339 40.9618 53.4932 40.5414C53.4932 40.4213 53.5525 40.1209 53.4932 39.9408C53.4339 39.9408 53.3746 39.8807 53.3746 39.9408Z" fill="#D68726"/>
</g>
</g>
</g>
<path d="M37.5441 40.421C36.4176 40.361 35.3503 40.2409 34.2238 40.0607C33.1565 39.8204 32.03 39.5201 31.0221 39.0997C30.0141 38.6792 28.9469 38.1387 28.1168 37.4179C27.9389 37.2377 27.7018 37.0575 27.5239 36.8173C27.4053 36.6972 27.346 36.577 27.2274 36.517L26.931 36.0965C26.6345 35.616 26.4566 35.0154 26.5752 34.4749C26.5752 35.0755 26.8124 35.556 27.1088 35.9764C27.4053 36.3969 27.8203 36.7572 28.2947 37.1176C29.184 37.7783 30.1327 38.2588 31.1999 38.6792C32.2079 39.0997 33.2751 39.4 34.3424 39.7003C35.3503 40.0006 36.4768 40.1808 37.5441 40.421Z" fill="#F8E85E"/>
<path opacity="0.25" d="M46.9112 36.3373C46.9705 40.7218 39.737 44.3857 30.7248 44.5658C21.7125 44.686 14.3604 41.2624 14.3011 36.8778C14.2419 32.4332 21.4754 28.7694 30.4876 28.6493C39.4999 28.4691 46.8519 31.9527 46.9112 36.3373Z" fill="#3F2F36"/>
<path d="M40.2124 27.9886C37.2478 26.5471 33.0382 25.6461 28.4134 25.7062C23.7887 25.7663 19.6384 26.7873 16.6738 28.349L12.1084 28.409L12.1677 33.4543C12.227 37.8388 19.5791 41.3225 28.5913 41.1423C37.6036 41.0222 44.8371 37.2983 44.7778 32.9137L44.7185 27.9285L40.2124 27.9886Z" fill="url(#paint2_linear_451_59061)"/>
<path d="M44.7179 27.9286C44.7772 32.3131 37.5437 35.977 28.5314 36.1571C19.5192 36.2773 12.1671 32.7936 12.1078 28.4091C12.0485 24.0245 19.282 20.3607 28.2942 20.1805C37.3065 20.0604 44.6586 23.544 44.7179 27.9286Z" fill="url(#paint3_linear_451_59061)"/>
<path d="M39.9156 27.6281C39.9749 30.2708 34.8166 32.4931 28.4724 32.6133C22.1283 32.7334 16.9107 30.6312 16.9107 27.9884C16.8514 25.3457 22.0097 23.1234 28.3538 23.0032C34.698 22.9432 39.8563 24.9853 39.9156 27.6281Z" fill="#E6A930"/>
<path d="M28.354 25.5268C33.6902 25.4667 38.1964 26.9082 39.5008 28.9504C39.7379 28.5299 39.9158 28.1095 39.8565 27.689C39.7972 25.0463 34.6389 22.9441 28.2947 23.0642C21.9506 23.1844 16.8516 25.4067 16.8516 28.0494C16.8516 28.4699 17.0294 28.8903 17.2666 29.2507C18.6303 27.1485 23.0771 25.5869 28.354 25.5268Z" fill="#BA651D"/>
<path d="M12.1084 28.409C12.1084 27.5681 12.3456 26.7873 12.7606 26.0065C13.2349 25.2858 13.7093 24.6251 14.3615 24.1446C15.6066 23.0634 17.0888 22.2826 18.6304 21.682C20.172 21.0814 21.7728 20.6609 23.3737 20.3606C24.9746 20.1204 26.6347 19.9402 28.2949 19.8801C29.955 19.8801 31.5559 20.0003 33.216 20.1804C34.8169 20.4207 36.477 20.7811 38.0186 21.3216C39.5602 21.8622 41.1017 22.5829 42.3469 23.604C42.9991 24.0845 43.5327 24.7452 44.007 25.4059C44.422 26.1266 44.7185 26.9074 44.7185 27.7483C44.6592 26.9074 44.3627 26.1266 43.9477 25.4659C43.4734 24.8053 42.8805 24.2046 42.2283 23.7842C40.9239 22.8232 39.4416 22.1625 37.9 21.6219C36.3585 21.1414 34.7576 20.7811 33.1567 20.5408C31.5559 20.4808 29.8957 20.4207 28.2949 20.4207C26.694 20.4808 25.0339 20.6009 23.433 20.8411C21.8321 21.0814 20.2906 21.5018 18.749 22.0424C17.2074 22.5829 15.7252 23.3037 14.48 24.3248C13.8278 24.8053 13.2942 25.4059 12.8199 26.0666C12.4049 26.7873 12.1677 27.5681 12.1084 28.409Z" fill="#F8E874"/>
<path d="M36.7734 24.8652C36.6548 25.0454 36.7734 25.586 36.7734 25.7662C36.7734 26.1265 36.7734 26.547 36.8327 26.9074C36.8327 26.9674 36.892 26.9674 36.892 26.9074C36.892 26.547 36.892 26.1265 36.892 25.7662C36.8327 25.586 36.9513 25.0454 36.7734 24.8652C36.8327 24.8652 36.7734 24.8652 36.7734 24.8652Z" fill="#A3591D"/>
<path d="M20.5273 24.8651C20.4087 25.0453 20.5273 25.5859 20.5273 25.7661C20.5273 26.1264 20.5273 26.5469 20.5866 26.9072C20.5866 26.9673 20.6459 26.9673 20.6459 26.9072C20.6459 26.5469 20.6459 26.1264 20.6459 25.7661C20.6459 25.5859 20.7052 24.9852 20.5273 24.8651C20.5866 24.8051 20.5273 24.8051 20.5273 24.8651Z" fill="#A3591D"/>
<path d="M18.6894 25.7665C18.5708 25.9467 18.6894 26.4872 18.6894 26.6674C18.6894 27.0278 18.6894 27.4482 18.7487 27.8086C18.7487 27.8687 18.808 27.8687 18.808 27.8086C18.808 27.4482 18.808 27.0278 18.808 26.6674C18.7487 26.4872 18.8673 25.8866 18.6894 25.7665C18.6894 25.7064 18.6894 25.7064 18.6894 25.7665Z" fill="#A3591D"/>
<g opacity="0.25">
<g opacity="0.25">
<g opacity="0.25">
<path opacity="0.25" d="M39.916 33.755C39.8567 33.8751 39.916 34.1754 39.916 34.2956C39.916 34.8361 39.9753 35.3166 39.9753 35.8572C40.0346 36.6981 40.0346 37.4789 40.0939 38.3198C40.0939 38.4399 40.2125 38.4399 40.2125 38.3198C40.2125 37.4789 40.1532 36.6981 40.1532 35.8572C40.1532 35.3767 40.0939 34.8361 40.0939 34.3556C40.0939 34.1754 40.1532 33.8751 40.0346 33.755C40.0346 33.6949 39.9753 33.6949 39.916 33.755Z" fill="#D68726"/>
</g>
</g>
<g opacity="0.25">
<g opacity="0.25">
<path opacity="0.25" d="M37.4257 34.5359C37.2479 34.7161 37.4257 35.7371 37.4257 35.9774C37.485 36.578 37.485 37.1186 37.5443 37.7192C37.5443 37.7793 37.6629 37.8393 37.6629 37.7192C37.6629 37.1186 37.6036 36.518 37.6036 35.9173C37.6036 35.6771 37.6629 34.656 37.4257 34.5359C37.4257 34.5359 37.485 34.5359 37.4257 34.5359Z" fill="#D68726"/>
</g>
</g>
<g opacity="0.25">
<g opacity="0.25">
<path opacity="0.25" d="M29.599 38.0195C29.4211 38.1397 29.5397 39.1607 29.5397 39.3409C29.5397 39.9415 29.5397 40.4821 29.599 41.0827C29.599 41.2028 29.7176 41.2028 29.7176 41.0827C29.7176 40.4821 29.7176 39.9415 29.7176 39.3409C29.7176 39.1607 29.8362 38.1397 29.599 38.0195Z" fill="#D68726"/>
</g>
</g>
<g opacity="0.25">
<g opacity="0.25">
<path opacity="0.25" d="M37.6035 38.1394C37.6035 38.6199 37.6035 38.9803 37.6628 39.4007C37.6628 39.4608 37.7221 39.4608 37.7221 39.4007C37.7221 38.9803 37.7221 38.5598 37.6628 38.1995C37.6628 38.1394 37.6628 38.1394 37.6035 38.1394C37.6628 38.1394 37.6035 38.1394 37.6035 38.1394Z" fill="#D68726"/>
</g>
</g>
<g opacity="0.25">
<g opacity="0.25">
<path opacity="0.25" d="M29.4209 36.1572C29.4209 36.2173 29.4209 36.2173 29.4209 36.1572C29.4209 36.6377 29.4209 36.9981 29.4802 37.4185C29.4802 37.4786 29.5395 37.4786 29.5395 37.4185C29.5395 36.9981 29.5395 36.5777 29.4802 36.2173C29.4802 36.2173 29.4802 36.2173 29.4209 36.1572C29.4802 36.1572 29.4209 36.1572 29.4209 36.1572Z" fill="#D68726"/>
</g>
</g>
<g opacity="0.25">
<g opacity="0.25">
<path opacity="0.25" d="M41.9316 32.5538C41.8723 32.674 41.9316 32.9743 41.9316 33.0944C41.9316 33.635 41.9909 34.1155 41.9909 34.656C42.0502 35.4969 42.0502 36.2777 42.1095 37.1186C42.1095 37.2387 42.2281 37.2387 42.2281 37.1186C42.2281 36.2777 42.1688 35.4969 42.1688 34.656C42.1688 34.1755 42.1095 33.635 42.1095 33.1545C42.1095 32.9743 42.1688 32.674 42.0502 32.5538C42.0502 32.4938 41.9909 32.4938 41.9316 32.5538Z" fill="#D68726"/>
</g>
</g>
<g opacity="0.25">
<g opacity="0.25">
<path opacity="0.25" d="M20.6454 35.3165C20.5268 35.4367 20.5861 35.737 20.5861 35.8571C20.5861 36.3977 20.5861 36.9382 20.5861 37.4788C20.5861 38.3197 20.6454 39.1605 20.6454 40.0014C20.6454 40.1215 20.764 40.1215 20.764 40.0014C20.764 39.1605 20.764 38.3197 20.764 37.4788C20.764 36.9382 20.764 36.4577 20.764 35.9172C20.764 35.737 20.8233 35.4367 20.7047 35.3165C20.764 35.2565 20.7047 35.2565 20.6454 35.3165Z" fill="#D68726"/>
</g>
</g>
<g opacity="0.25">
<g opacity="0.25">
<path opacity="0.25" d="M18.037 34.4154C17.9184 34.5355 17.9777 34.8358 17.9777 34.956C17.9777 35.4965 17.9777 36.0371 17.9777 36.5777C17.9777 37.4185 18.037 38.2594 18.037 39.1003C18.037 39.2204 18.1556 39.2204 18.1556 39.1003C18.1556 38.2594 18.1556 37.4185 18.1556 36.5777C18.1556 36.0371 18.1556 35.5566 18.1556 35.016C18.1556 34.8358 18.2149 34.5355 18.0963 34.4154C18.0963 34.3553 18.037 34.3553 18.037 34.4154Z" fill="#D68726"/>
</g>
</g>
<g opacity="0.25">
<g opacity="0.25">
<path opacity="0.25" d="M15.9618 33.6346C15.8432 33.7548 15.9025 34.0551 15.9025 34.1752C15.9025 34.7158 15.9025 35.2563 15.9025 35.7969C15.9025 36.6378 15.9618 37.4786 15.9618 38.3195C15.9618 38.4396 16.0804 38.4396 16.0804 38.3195C16.0804 37.4786 16.0804 36.6378 16.0804 35.7969C16.0804 35.2563 16.0804 34.7758 16.0804 34.2353C16.0804 34.0551 16.1397 33.7548 16.0211 33.6346C16.0211 33.5746 15.9618 33.5746 15.9618 33.6346Z" fill="#D68726"/>
</g>
</g>
<g opacity="0.25">
<g opacity="0.25">
<path opacity="0.25" d="M14.1835 32.4332C14.0649 32.5534 14.1242 32.8537 14.1242 32.9738C14.1242 33.5144 14.1242 34.0549 14.1242 34.5955C14.1242 35.4364 14.1835 36.2772 14.1835 37.1181C14.1835 37.2382 14.3021 37.2382 14.3021 37.1181C14.3021 36.2772 14.3021 35.4364 14.3021 34.5955C14.3021 34.0549 14.3021 33.5744 14.3021 33.0339C14.3021 32.8537 14.3614 32.5534 14.2428 32.4332C14.2428 32.3732 14.1835 32.3732 14.1835 32.4332Z" fill="#D68726"/>
</g>
</g>
<g opacity="0.25">
<g opacity="0.25">
<path opacity="0.25" d="M13.0565 31.3522C12.938 31.4723 12.9972 31.7726 12.9972 31.8927C12.9972 32.4333 12.9972 32.9739 12.9972 33.5144C12.9972 34.3553 13.0565 35.1962 13.0565 36.0371C13.0565 36.1572 13.1751 36.1572 13.1751 36.0371C13.1751 35.1962 13.1751 34.3553 13.1751 33.5144C13.1751 32.9739 13.1751 32.4934 13.1751 31.9528C13.1751 31.7726 13.2344 31.4723 13.1158 31.3522C13.1158 31.2921 13.0565 31.2921 13.0565 31.3522Z" fill="#D68726"/>
</g>
</g>
<g opacity="0.25">
<g opacity="0.25">
<path opacity="0.25" d="M43.2949 31.2921C43.2356 31.4122 43.2949 31.7126 43.2949 31.8327C43.2949 32.3732 43.3542 32.8537 43.3542 33.3943C43.4135 34.2352 43.4135 35.016 43.4728 35.8569C43.4728 35.977 43.5914 35.977 43.5914 35.8569C43.5914 35.016 43.5321 34.2352 43.5321 33.3943C43.5321 32.9138 43.4728 32.3732 43.4728 31.8927C43.4728 31.7126 43.5321 31.4122 43.4135 31.2921C43.4135 31.2321 43.3542 31.2321 43.2949 31.2921Z" fill="#D68726"/>
</g>
</g>
<g opacity="0.25">
<g opacity="0.25">
<path opacity="0.25" d="M44.125 30.2711C44.0657 30.3912 44.125 30.6315 44.125 30.8117C44.125 31.2922 44.1843 31.7727 44.1843 32.2532C44.2436 33.034 44.2436 33.7547 44.3029 34.5356C44.3029 34.6557 44.4214 34.6557 44.4214 34.5356C44.4214 33.7547 44.3621 32.9739 44.3621 32.1931C44.3621 31.7126 44.3029 31.2321 44.3029 30.7516C44.3029 30.6315 44.3029 30.3912 44.2436 30.2711C44.1843 30.2111 44.125 30.2111 44.125 30.2711Z" fill="#D68726"/>
</g>
</g>
</g>
<path d="M28.4722 32.6133C27.3457 32.7335 26.2191 32.7335 25.1519 32.6133C24.0254 32.5533 22.9581 32.313 21.8316 32.0728C20.7644 31.7725 19.6971 31.352 18.7485 30.7514C18.5113 30.5712 18.2741 30.4511 18.0963 30.2108C17.9777 30.0907 17.8591 30.0307 17.7998 29.9105L17.4441 29.6102C17.0883 29.1297 16.8512 28.5892 16.9104 27.9885C16.9697 28.5291 17.2662 29.0697 17.6219 29.43C17.9777 29.8505 18.452 30.1508 18.9263 30.391C19.875 30.9316 20.8829 31.292 21.9502 31.5923C23.0174 31.8926 24.0847 32.0728 25.1519 32.253C26.2784 32.4932 27.405 32.5533 28.4722 32.6133Z" fill="#F8E85E"/>
<path opacity="0.25" d="M47.6827 27.1476C47.742 31.5321 40.5085 35.196 31.4963 35.3762C22.484 35.4963 15.1319 32.0727 15.0726 27.6881C15.0133 23.3036 22.2468 19.6398 31.2591 19.4596C40.2713 19.2794 47.6234 22.763 47.6827 27.1476Z" fill="#3F2F36"/>
<path d="M45.4887 20.4805C42.5242 19.039 38.3145 18.1381 33.6898 18.1981C29.0651 18.2582 24.9147 19.2793 21.9502 20.8409L17.3848 20.901L17.4441 25.9462C17.5033 30.3308 24.8554 33.8144 33.8677 33.6342C42.8799 33.5141 50.1134 29.7902 50.0541 25.4056L49.9949 20.4205L45.4887 20.4805Z" fill="url(#paint4_linear_451_59061)"/>
<path d="M49.9952 20.4203C50.0545 24.8048 42.821 28.4687 33.8088 28.6489C24.7965 28.769 17.4444 25.3454 17.3851 20.9608C17.3258 16.5763 24.5594 12.9125 33.5716 12.7323C42.5838 12.5521 49.9359 16.0357 49.9952 20.4203Z" fill="url(#paint5_linear_451_59061)"/>
<path d="M45.193 20.1801C45.2522 22.8228 40.0939 25.0451 33.7498 25.1653C27.4056 25.2253 22.2473 23.1832 22.188 20.4804C22.1287 17.8376 27.287 15.6153 33.6312 15.4952C39.9753 15.4351 45.193 17.4773 45.193 20.1801Z" fill="#E6A930"/>
<path d="M33.6909 18.0187C39.0271 17.9587 43.5333 19.4002 44.8377 21.4423C45.0748 21.0219 45.2527 20.6014 45.1934 20.181C45.1341 17.5382 39.9758 15.436 33.6317 15.5562C27.2875 15.6162 22.1885 17.8385 22.1885 20.4813C22.1885 20.9017 22.3664 21.3222 22.6035 21.6826C23.9079 19.6404 28.3548 18.0788 33.6909 18.0187Z" fill="#BA651D"/>
<path d="M17.3848 20.901C17.3848 20.0601 17.6219 19.2793 18.037 18.4985C18.5113 17.7777 18.9856 17.117 19.6378 16.6365C20.8829 15.5554 22.3652 14.7746 23.9068 14.1739C25.4484 13.5733 27.0492 13.1529 28.6501 12.8526C30.2509 12.6123 31.9111 12.4321 33.5712 12.3721C35.2314 12.3721 36.8322 12.4922 38.4924 12.6724C40.0933 12.9126 41.7534 13.273 43.295 13.8136C44.8365 14.3541 46.3781 15.0749 47.6232 16.0959C48.2754 16.5764 48.809 17.2371 49.2834 17.8978C49.6984 18.6186 49.9949 19.3994 49.9949 20.2403C49.9356 19.3994 49.6391 18.6186 49.2241 17.9579C48.7497 17.2972 48.1568 16.6966 47.5046 16.2761C46.2002 15.3151 44.718 14.6544 43.1764 14.1139C41.6348 13.6334 40.034 13.273 38.4331 13.0328C36.8322 12.8526 35.2314 12.7324 33.5712 12.7925C31.9704 12.8526 30.3102 12.9727 28.7094 13.2129C27.1085 13.4532 25.5669 13.8736 24.0254 14.4142C22.4838 14.9548 21.0015 15.6755 19.7564 16.6966C19.1042 17.1771 18.5706 17.7777 18.0963 18.4384C17.7405 19.2793 17.4441 20.0601 17.3848 20.901Z" fill="#F8E874"/>
<path d="M42.0498 17.3572C41.9312 17.5374 42.0498 18.0779 42.0498 18.2581C42.0498 18.6185 42.0498 19.0389 42.1091 19.3993C42.1091 19.4594 42.1684 19.4594 42.1684 19.3993C42.1684 19.0389 42.1684 18.6185 42.1684 18.2581C42.1684 18.0779 42.2277 17.5374 42.0498 17.3572C42.1091 17.3572 42.1091 17.3572 42.0498 17.3572Z" fill="#A3591D"/>
<path d="M25.8633 17.3573C25.7447 17.5374 25.8633 18.078 25.8633 18.2582C25.8633 18.6186 25.8632 19.039 25.9225 19.3994C25.9225 19.4595 25.9818 19.4595 25.9818 19.3994C25.9818 19.039 25.9818 18.6186 25.9818 18.2582C25.9225 18.078 26.0411 17.4774 25.8633 17.3573C25.8633 17.3573 25.8633 17.2972 25.8633 17.3573Z" fill="#A3591D"/>
<path d="M23.9668 18.2582C23.8482 18.4384 23.9668 18.9789 23.9668 19.1591C23.9668 19.5195 23.9668 19.9399 24.0261 20.3003C24.0261 20.3604 24.0853 20.3604 24.0853 20.3003C24.0853 19.9399 24.0853 19.5195 24.0853 19.1591C24.0261 18.9789 24.1446 18.3783 23.9668 18.2582C24.0261 18.1981 23.9668 18.1981 23.9668 18.2582Z" fill="#A3591D"/>
<g opacity="0.25">
<g opacity="0.25">
<g opacity="0.25">
<path opacity="0.25" d="M45.2519 26.2467C45.1926 26.3668 45.2519 26.6671 45.2519 26.7873C45.2519 27.3278 45.3112 27.8083 45.3112 28.3489C45.3705 29.1898 45.3705 29.9706 45.4298 30.8115C45.4298 30.9316 45.5484 30.9316 45.5484 30.8115C45.5484 29.9706 45.4891 29.1898 45.4891 28.3489C45.4891 27.8684 45.4298 27.3278 45.4298 26.8473C45.4298 26.6671 45.4891 26.3668 45.3705 26.2467C45.3112 26.1866 45.2519 26.1866 45.2519 26.2467Z" fill="#D68726"/>
</g>
</g>
<g opacity="0.25">
<g opacity="0.25">
<path opacity="0.25" d="M42.7021 27.0273C42.5242 27.2075 42.7021 28.2286 42.7021 28.4688C42.7614 29.0695 42.7614 29.61 42.8207 30.2107C42.8207 30.2707 42.9393 30.3308 42.9393 30.2107C42.9393 29.61 42.88 29.0094 42.88 28.4088C42.88 28.1685 42.9393 27.1475 42.7021 27.0273C42.7614 27.0273 42.7614 27.0273 42.7021 27.0273Z" fill="#D68726"/>
</g>
</g>
<g opacity="0.25">
<g opacity="0.25">
<path opacity="0.25" d="M34.8754 30.5112C34.6975 30.6314 34.8161 31.6524 34.8161 31.8326C34.8161 32.4332 34.8161 32.9738 34.8754 33.5744C34.8754 33.6946 34.9939 33.6946 34.9939 33.5744C34.9939 32.9738 34.9939 32.4332 34.9939 31.8326C34.9939 31.6524 35.1125 30.6314 34.8754 30.5112C34.9346 30.5112 34.8754 30.5112 34.8754 30.5112Z" fill="#D68726"/>
</g>
</g>
<g opacity="0.25">
<g opacity="0.25">
<path opacity="0.25" d="M42.939 30.6313C42.8797 30.6313 42.8797 30.6313 42.939 30.6313C42.939 31.1118 42.939 31.4722 42.9983 31.8927C42.9983 31.9527 43.0576 31.9527 43.0576 31.8927C43.0576 31.4722 43.0576 31.0518 42.9983 30.6914C42.9983 30.6313 42.9983 30.6313 42.939 30.6313Z" fill="#D68726"/>
</g>
</g>
<g opacity="0.25">
<g opacity="0.25">
<path opacity="0.25" d="M34.7564 28.7091C34.7564 28.7091 34.6971 28.7091 34.7564 28.7091C34.6971 28.7091 34.6971 28.7091 34.7564 28.7091C34.7564 29.1896 34.7564 29.55 34.8157 29.9704C34.8157 30.0305 34.875 30.0305 34.875 29.9704C34.875 29.55 34.875 29.1295 34.8157 28.7692C34.8157 28.7091 34.8157 28.7091 34.7564 28.7091C34.7564 28.649 34.7564 28.649 34.7564 28.7091Z" fill="#D68726"/>
</g>
</g>
<g opacity="0.25">
<g opacity="0.25">
<path opacity="0.25" d="M47.2676 25.0455C47.2083 25.1657 47.2676 25.466 47.2676 25.5861C47.2676 26.1267 47.3269 26.6072 47.3269 27.1477C47.3861 27.9886 47.3861 28.7694 47.4454 29.6103C47.4454 29.7304 47.564 29.7304 47.564 29.6103C47.564 28.7694 47.5047 27.9886 47.5047 27.1477C47.5047 26.6672 47.4454 26.1267 47.4454 25.6462C47.4454 25.466 47.5047 25.1657 47.3861 25.0455C47.3269 24.9855 47.2676 24.9855 47.2676 25.0455Z" fill="#D68726"/>
</g>
</g>
<g opacity="0.25">
<g opacity="0.25">
<path opacity="0.25" d="M25.9227 27.8082C25.8042 27.9284 25.8635 28.2287 25.8635 28.3488C25.8635 28.8894 25.8635 29.4299 25.8635 29.9705C25.8635 30.8114 25.9227 31.6522 25.9227 32.4931C25.9227 32.6132 26.0413 32.6132 26.0413 32.4931C26.0413 31.6522 26.0413 30.8114 26.0413 29.9705C26.0413 29.4299 26.0413 28.9494 26.0413 28.4089C26.0413 28.2287 26.1006 27.9284 25.982 27.8082C26.0413 27.7482 25.982 27.7482 25.9227 27.8082Z" fill="#D68726"/>
</g>
</g>
<g opacity="0.25">
<g opacity="0.25">
<path opacity="0.25" d="M23.3134 26.9071C23.1948 27.0272 23.2541 27.3275 23.2541 27.4476C23.2541 27.9882 23.2541 28.5288 23.2541 29.0693C23.2541 29.9102 23.3134 30.7511 23.3134 31.5919C23.3134 31.7121 23.432 31.7121 23.432 31.5919C23.432 30.7511 23.432 29.9102 23.432 29.0693C23.432 28.5288 23.432 28.0483 23.432 27.5077C23.432 27.3275 23.4912 27.0272 23.3727 26.9071C23.432 26.9071 23.3727 26.847 23.3134 26.9071Z" fill="#D68726"/>
</g>
</g>
<g opacity="0.25">
<g opacity="0.25">
<path opacity="0.25" d="M21.2382 26.1266C21.1196 26.2467 21.1789 26.547 21.1789 26.6672C21.1789 27.2077 21.1789 27.7483 21.1789 28.2888C21.1789 29.1297 21.2382 29.9706 21.2382 30.8115C21.2382 30.9316 21.3568 30.9316 21.3568 30.8115C21.3568 29.9706 21.3568 29.1297 21.3568 28.2888C21.3568 27.7483 21.3568 27.2678 21.3568 26.7272C21.3568 26.547 21.416 26.2467 21.2975 26.1266C21.2975 26.0665 21.2382 26.0665 21.2382 26.1266Z" fill="#D68726"/>
</g>
</g>
<g opacity="0.25">
<g opacity="0.25">
<path opacity="0.25" d="M19.4599 24.9249C19.3413 25.0451 19.4006 25.3454 19.4006 25.4655C19.4006 26.0061 19.4006 26.5466 19.4006 27.0872C19.4006 27.9281 19.4599 28.7689 19.4599 29.6098C19.4599 29.7299 19.5784 29.7299 19.5784 29.6098C19.5784 28.7689 19.5784 27.9281 19.5784 27.0872C19.5784 26.5466 19.5784 26.0661 19.5784 25.5256C19.5784 25.3454 19.6377 25.0451 19.5191 24.9249C19.5784 24.8649 19.5191 24.8649 19.4599 24.9249Z" fill="#D68726"/>
</g>
</g>
<g opacity="0.25">
<g opacity="0.25">
<path opacity="0.25" d="M18.3329 23.8439C18.2143 23.964 18.2736 24.2643 18.2736 24.3844C18.2736 24.925 18.2736 25.4656 18.2736 26.0061C18.2736 26.847 18.3329 27.6879 18.3329 28.5288C18.3329 28.6489 18.4515 28.6489 18.4515 28.5288C18.4515 27.6879 18.4515 26.847 18.4515 26.0061C18.4515 25.4656 18.4515 24.9851 18.4515 24.4445C18.4515 24.2643 18.5108 23.964 18.3922 23.8439C18.3922 23.7838 18.3329 23.7838 18.3329 23.8439Z" fill="#D68726"/>
</g>
</g>
<g opacity="0.25">
<g opacity="0.25">
<path opacity="0.25" d="M48.6308 23.7838C48.5716 23.9039 48.6308 24.2043 48.6308 24.3244C48.6308 24.8649 48.6901 25.3454 48.6901 25.886C48.7494 26.7269 48.7494 27.5077 48.8087 28.3486C48.8087 28.4687 48.9273 28.4687 48.9273 28.3486C48.9273 27.5077 48.868 26.7269 48.868 25.886C48.868 25.4055 48.8087 24.8649 48.8087 24.3844C48.8087 24.2043 48.868 23.9039 48.7494 23.7838C48.6901 23.7238 48.6308 23.7238 48.6308 23.7838Z" fill="#D68726"/>
</g>
</g>
<g opacity="0.25">
<g opacity="0.25">
<path opacity="0.25" d="M49.4014 22.7628C49.3421 22.8829 49.4014 23.1232 49.4014 23.3034C49.4014 23.7839 49.4606 24.2644 49.4606 24.7449C49.5199 25.5257 49.5199 26.2464 49.5792 27.0273C49.5792 27.1474 49.6978 27.1474 49.6978 27.0273C49.6978 26.2464 49.6385 25.4656 49.6385 24.6848C49.6385 24.2043 49.5792 23.7238 49.5792 23.2433C49.5792 23.1232 49.5792 22.8829 49.5199 22.7628C49.5199 22.7028 49.4606 22.7028 49.4014 22.7628Z" fill="#D68726"/>
</g>
</g>
</g>
<path d="M33.8091 25.1055C32.6826 25.2257 31.5561 25.2257 30.4888 25.1055C29.3623 25.0455 28.2951 24.8052 27.1685 24.565C26.1013 24.2647 25.034 23.8442 24.0854 23.2436C23.8482 23.0634 23.6111 22.9433 23.4332 22.703C23.3146 22.5829 23.196 22.5228 23.1367 22.4027L22.781 22.1024C22.4252 21.6219 22.1881 21.0813 22.2474 20.4807C22.3067 21.0213 22.6031 21.5618 22.9589 21.9222C23.3146 22.3427 23.7889 22.643 24.2633 22.8832C25.2119 23.4238 26.2199 23.7842 27.2871 24.0845C28.3543 24.3848 29.4216 24.565 30.4888 24.7452C31.5561 24.9854 32.6826 25.0455 33.8091 25.1055Z" fill="#F8E85E"/>
<path d="M16.7922 34.115C25.9282 34.115 33.3344 26.6124 33.3344 17.3576C33.3344 8.10267 25.9282 0.600098 16.7922 0.600098C7.6562 0.600098 0.25 8.10267 0.25 17.3576C0.25 26.6124 7.6562 34.115 16.7922 34.115Z" fill="url(#paint6_radial_451_59061)"/>
<path opacity="0.03" d="M24.0859 19.0011C24.975 14.9197 22.4297 10.8809 18.4007 9.9802C14.3717 9.07949 10.3848 11.658 9.49567 15.7394C8.60653 19.8208 11.1519 23.8596 15.1809 24.7603C19.2098 25.661 23.1968 23.0825 24.0859 19.0011Z" fill="#F7E335"/>
<path opacity="0.03" d="M16.7926 30.4512C23.9312 30.4512 29.7181 24.589 29.7181 17.3576C29.7181 10.1261 23.9312 4.26392 16.7926 4.26392C9.65411 4.26392 3.86719 10.1261 3.86719 17.3576C3.86719 24.589 9.65411 30.4512 16.7926 30.4512Z" fill="#F7E335"/>
<path opacity="0.03" d="M16.7922 34.115C25.9282 34.115 33.3344 26.6124 33.3344 17.3576C33.3344 8.10267 25.9282 0.600098 16.7922 0.600098C7.6562 0.600098 0.25 8.10267 0.25 17.3576C0.25 26.6124 7.6562 34.115 16.7922 34.115Z" fill="#F7E335"/>
<path d="M20.8243 13.2732L16.7925 16.7568L12.7607 13.2732L16.1403 17.2974L12.7607 21.4417L16.7925 17.8379L20.8243 21.4417L17.4447 17.3574L20.8243 13.2732Z" fill="#FDFB89"/>
<g filter="url(#filter0_f_451_59061)">
<path d="M17.0502 21C19.0384 21 20.6502 19.3883 20.6502 17.4C20.6502 15.4118 19.0384 13.8 17.0502 13.8C15.062 13.8 13.4502 15.4118 13.4502 17.4C13.4502 19.3883 15.062 21 17.0502 21Z" fill="white"/>
</g>
<defs>
<filter id="filter0_f_451_59061" x="11.4502" y="11.8" width="11.2002" height="11.2" filterUnits="userSpaceOnUse" color-interpolation-filters="sRGB">
<feFlood flood-opacity="0" result="BackgroundImageFix"/>
<feBlend mode="normal" in="SourceGraphic" in2="BackgroundImageFix" result="shape"/>
<feGaussianBlur stdDeviation="1" result="effect1_foregroundBlur_451_59061"/>
</filter>
<linearGradient id="paint0_linear_451_59061" x1="55.898" y1="44.8695" x2="12.4757" y2="36.4825" gradientUnits="userSpaceOnUse">
<stop stop-color="#CD8A21"/>
<stop offset="1" stop-color="#AE5019"/>
</linearGradient>
<linearGradient id="paint1_linear_451_59061" x1="25.3276" y1="42.0508" x2="47.1508" y2="31.8684" gradientUnits="userSpaceOnUse">
<stop offset="0.1703" stop-color="#F0C92F"/>
<stop offset="0.1736" stop-color="#F0C92F"/>
<stop offset="1" stop-color="#EFC42E"/>
</linearGradient>
<linearGradient id="paint2_linear_451_59061" x1="47.2358" y1="34.8204" x2="3.14417" y2="31.631" gradientUnits="userSpaceOnUse">
<stop stop-color="#CD8A21"/>
<stop offset="1" stop-color="#AE5019"/>
</linearGradient>
<linearGradient id="paint3_linear_451_59061" x1="16.5515" y1="35.7306" x2="37.0366" y2="23.0097" gradientUnits="userSpaceOnUse">
<stop offset="0.4946" stop-color="#F0C92F"/>
<stop offset="0.6956" stop-color="#F2D031"/>
<stop offset="1" stop-color="#F3D532"/>
</linearGradient>
<linearGradient id="paint4_linear_451_59061" x1="52.5345" y1="27.3152" x2="8.44279" y2="24.1259" gradientUnits="userSpaceOnUse">
<stop stop-color="#CD8A21"/>
<stop offset="1" stop-color="#AE5019"/>
</linearGradient>
<linearGradient id="paint5_linear_451_59061" x1="21.8512" y1="28.2252" x2="42.3362" y2="15.5043" gradientUnits="userSpaceOnUse">
<stop offset="0.4946" stop-color="#F0C92F"/>
<stop offset="0.6956" stop-color="#F2D031"/>
<stop offset="1" stop-color="#F3D532"/>
</linearGradient>
<radialGradient id="paint6_radial_451_59061" cx="0" cy="0" r="1" gradientUnits="userSpaceOnUse" gradientTransform="translate(16.7996 17.3651) scale(16.5496 16.765)">
<stop stop-color="#F7E335"/>
<stop offset="0.2531" stop-color="#F8E747" stop-opacity="0.6878"/>
<stop offset="0.5339" stop-color="#F9E953" stop-opacity="0.3415"/>
<stop offset="0.8108" stop-color="#F9EA57" stop-opacity="0"/>
</radialGradient>
</defs>
</svg>
