<svg width="50" height="50" viewBox="0 0 50 50" fill="none" xmlns="http://www.w3.org/2000/svg">
<path d="M48.4375 25C48.4375 37.944 37.944 48.4375 25 48.4375C12.056 48.4375 1.5625 37.944 1.5625 25C1.5625 12.056 12.056 1.5625 25 1.5625C37.944 1.5625 48.4375 12.056 48.4375 25Z" fill="#30C902"/>
<path d="M34.375 15.625L21.875 28.125L15.625 21.875L10.9375 26.5625L20.3125 35.9375H23.4375L39.0625 20.3125L34.375 15.625Z" fill="white"/>
<path d="M25 50C38.8073 50 50 38.8073 50 25C50 11.1927 38.8073 0 25 0C11.1927 0 0 11.1927 0 25C0.0160217 38.8004 11.1996 49.984 25 50ZM25 3.125C37.0811 3.125 46.875 12.9189 46.875 25C46.875 37.0811 37.0811 46.875 25 46.875C12.9189 46.875 3.125 37.0811 3.125 25C3.13835 12.9242 12.9242 3.13835 25 3.125Z" fill="#209102"/>
<path d="M19.2078 37.0422C19.5007 37.3352 19.8982 37.5 20.3125 37.5H23.4375C23.8518 37.5 24.2493 37.3352 24.5422 37.0422L40.1672 21.4172C40.7772 20.8069 40.7772 19.8181 40.1672 19.2078L35.4797 14.5203C34.8694 13.9103 33.8806 13.9103 33.2703 14.5203L21.875 25.9148L16.7297 20.7703C16.1194 20.1603 15.1306 20.1603 14.5203 20.7703L9.83275 25.4578C9.22278 26.0681 9.22278 27.0569 9.83275 27.6672L19.2078 37.0422ZM15.625 24.0852L20.7703 29.2297C21.3806 29.8397 22.3694 29.8397 22.9797 29.2297L34.375 17.8352L36.853 20.3125L22.7905 34.375H20.9595L13.147 26.5625L15.625 24.0852Z" fill="#209102"/>
</svg>
