<svg width="42" height="45" viewBox="0 0 42 45" fill="none" xmlns="http://www.w3.org/2000/svg">
<path d="M13.6721 17.1021L14.0779 17.844C14.0959 17.8769 14.123 17.904 14.1559 17.922L14.8978 18.3278C15.034 18.4022 15.034 18.5978 14.8978 18.6722L14.1559 19.078C14.123 19.096 14.0959 19.1231 14.0779 19.156L13.6721 19.8979C13.5977 20.034 13.4022 20.034 13.3277 19.8979L12.922 19.156C12.904 19.1231 12.8769 19.096 12.8439 19.078L12.102 18.6722C11.9659 18.5978 11.9659 18.4022 12.102 18.3278L12.8439 17.922C12.8769 17.904 12.904 17.8769 12.922 17.844L13.3277 17.1021C13.4022 16.966 13.5977 16.966 13.6721 17.1021Z" fill="#FCBF29"/>
<path d="M4.066 23.6873L3.2 21.0892C3.15444 20.9527 3.04731 20.8454 2.91073 20.8L0.312734 19.934C-0.104346 19.7949 -0.104346 19.2051 0.312734 19.066L2.91073 18.2C3.04731 18.1545 3.15453 18.0473 3.2 17.9108L4.066 15.3127C4.20496 14.8958 4.79486 14.8958 4.93392 15.3127L5.79991 17.9108C5.84547 18.0473 5.9526 18.1546 6.08919 18.2L8.68718 19.066C9.10417 19.2051 9.10417 19.7949 8.68718 19.934L6.08919 20.8C5.9526 20.8455 5.84538 20.9527 5.79991 21.0892L4.93392 23.6873C4.79486 24.1042 4.20506 24.1042 4.066 23.6873Z" fill="#FFB601"/>
<path d="M35.5215 22.8163L31.2501 21.2606C31.1182 21.2079 30.96 21.1816 30.8019 21.1816H3.43277C2.6944 21.1816 2.11441 21.7616 2.11441 22.4999V41.0449C2.11441 43.2332 3.88092 44.9999 6.06949 44.9999H32.4367C34.6252 44.9999 36.3918 43.2332 36.3918 41.0449V24.0555C36.3918 23.5019 36.0489 23.0009 35.5215 22.8163Z" fill="#FC1A40"/>
<path d="M36.3918 24.0555V41.0449C36.3918 43.2332 34.6253 44.9999 32.4367 44.9999H19.2531V21.1816H30.8019C30.9601 21.1816 31.1183 21.2079 31.2501 21.2606L35.5216 22.8163C36.0489 23.0009 36.3918 23.5019 36.3918 24.0555Z" fill="#C60034"/>
<path d="M35.9172 8.59463C35.469 6.7753 34.1242 5.35156 32.3049 4.77139C30.5119 4.21759 28.587 4.61319 27.1896 5.87873L24.1309 8.56827L23.5246 4.53417C23.2346 2.68847 22.048 1.13272 20.2815 0.394525C19.9387 0.262601 19.596 0.157132 19.2532 0.104398C17.803 -0.185641 16.3001 0.130765 15.0871 1.02734C13.4787 2.18749 12.6614 4.13867 12.925 6.08975C13.2151 8.04092 14.5335 9.70206 16.4055 10.3612L19.2532 11.3896L22.76 12.6815C22.7864 12.6815 22.7864 12.6815 22.7864 12.6815L28.8772 14.9227C29.4836 15.1337 30.1164 15.2393 30.7228 15.2393C32.015 15.2393 33.2805 14.7645 34.2825 13.8681C35.759 12.5497 36.3918 10.5194 35.9172 8.59463Z" fill="#FE9923"/>
<path d="M34.2824 13.8681C33.2805 14.7645 32.0148 15.2393 30.7228 15.2393C30.1164 15.2393 29.4836 15.1337 28.8771 14.9227L22.7863 12.6815C22.7863 12.6815 22.7863 12.6815 22.7599 12.6815L19.2531 11.3896V0.104309C19.5959 0.157131 19.9387 0.262512 20.2814 0.394436C22.0479 1.13263 23.2346 2.68838 23.5245 4.53409L24.1309 8.56818L27.1896 5.87864C28.5869 4.6131 30.5118 4.2175 32.3048 4.7713C34.1241 5.35147 35.4688 6.77521 35.9171 8.59455C36.3918 10.5194 35.759 12.5497 34.2824 13.8681Z" fill="#FE8821"/>
<path d="M40.9006 20.575L39.1076 25.532C38.8966 26.0594 38.3956 26.3758 37.8682 26.3758C37.71 26.3758 37.5518 26.3494 37.4201 26.2968L23.7882 21.3398L22.549 17.2528L19.2531 17.991L16.3528 18.6502L2.72086 13.6932C2.03532 13.4296 1.69263 12.6649 1.92985 12.0057L3.74919 7.04882C4.09196 6.04687 4.83033 5.25568 5.77955 4.80752C6.72877 4.35937 7.80973 4.30655 8.81169 4.67569L19.2532 8.47256L19.9652 8.73615C19.9652 8.73615 22.8128 13.9042 22.8919 13.9042C22.9448 13.9042 24.0785 13.2714 25.1859 12.6649C26.293 12.0584 27.4006 11.4257 27.4006 11.4257L38.5274 15.4861C39.5294 15.8553 40.3204 16.5937 40.7686 17.5429C41.217 18.492 41.2696 19.5732 40.9006 20.575Z" fill="#FF3E75"/>
<path d="M40.9006 20.575L39.1076 25.5321C38.8966 26.0594 38.3956 26.3758 37.8683 26.3758C37.7101 26.3758 37.5519 26.3495 37.4201 26.2968L23.7882 21.3398L22.549 17.2529L19.2531 17.9911V8.4726L19.9651 8.73618C19.9651 8.73618 22.8127 13.9042 22.8919 13.9042C22.9447 13.9042 24.0784 13.2714 25.1858 12.6649C26.2931 12.0584 27.4006 11.4257 27.4006 11.4257L38.5274 15.4862C39.5294 15.8553 40.3204 16.5937 40.7686 17.5429C41.217 18.492 41.2696 19.5732 40.9006 20.575Z" fill="#FC1A40"/>
<path d="M15.298 21.1816V44.9999H23.2082V21.1816H15.298Z" fill="#FCBF29"/>
<path d="M19.965 8.73615L19.253 10.6873L16.3527 18.6503L19.253 19.7051L22.5489 20.8916L23.7881 21.3397L27.4006 11.4257L19.965 8.73615Z" fill="#FCBF29"/>
<path d="M23.2085 21.1816H19.2534V44.9999H23.2085V21.1816Z" fill="#FE9923"/>
<path d="M27.4006 11.4257L23.7882 21.3398L22.549 20.8915L19.2531 19.705V10.6873L19.965 8.73615L27.4006 11.4257Z" fill="#FE9923"/>
</svg>
