<svg width="46" height="15" viewBox="0 0 46 15" fill="none" xmlns="http://www.w3.org/2000/svg">
<path d="M0 0H1.98685V15H0V0ZM5.21312 15H8.19997V0H5.21312V15ZM39.0268 15H42.0137L42.0132 0H39.0263L39.0268 15ZM31.973 15H32.9667V0H31.9734L31.973 15ZM34.1935 15H36.1867V0H34.1935V15ZM21.7766 15H24.7635L24.763 0H21.7761L21.7766 15ZM14.0298 15H16.6363V0H14.0298V15ZM44.3934 0V15H46V0H44.3934ZM26.9132 15H28.5198V0H26.9132V15ZM18.0165 15H19.3197V0H18.0165V15ZM10.4262 15H11.6531V0H10.4262V15ZM29.5931 15H30.2065V0H29.5931V15Z" fill="white"/>
</svg>
