<svg width="40" height="40" viewBox="0 0 40 40" fill="none" xmlns="http://www.w3.org/2000/svg">
<path d="M40.0003 19.9621C40.0207 30.9425 31.0954 39.938 20.1152 39.9997C12.9454 40.0399 6.64456 36.3073 3.08213 30.6713C2.82135 30.2588 2.80268 29.7376 3.03002 29.3057C4.49377 26.5261 5.32229 23.3598 5.32229 20C5.32229 16.6507 4.49893 13.4937 3.0437 10.7202C2.80792 10.2709 2.82784 9.72945 3.09971 9.30102C6.64612 3.71055 12.8899 0 20.0003 0C31.0334 0 39.9799 8.93383 40.0003 19.9621Z" fill="#51489A"/>
<path d="M36.4844 20C36.4844 29.1041 29.1041 36.4844 20 36.4844C10.8959 36.4844 3.51562 29.1041 3.51562 20C3.51562 10.8959 10.8959 3.51562 20 3.51562C29.1041 3.51562 36.4844 10.8959 36.4844 20Z" fill="#5F55AF"/>
<path d="M12.6936 30.729V29.9773C12.6936 28.845 11.7757 27.9272 10.6436 27.9272C10.5976 27.9272 10.5521 27.9287 10.5068 27.9317V12.0685C10.552 12.0715 10.5975 12.073 10.6435 12.073C11.7757 12.073 12.6936 11.1551 12.6936 10.023V9.27124H23.8798V30.7291H12.6936V30.729Z" fill="#FF9F22"/>
<path d="M3.11622 30.7289C-1.03878 24.2039 -1.0387 15.7961 3.11622 9.2711H8.59372V10.0228C8.59372 11.1551 9.51161 12.0729 10.6438 12.0729V27.927C9.51153 27.927 8.59372 28.8449 8.59372 29.9771V30.7288L3.11622 30.7289Z" fill="#FF9100"/>
<path d="M37.8132 30.7289H20.4537C19.9442 30.7289 19.5311 30.3159 19.5311 29.8063C19.5311 29.2968 19.9442 28.8838 20.4537 28.8838H20.6358C21.7681 28.8838 22.6859 27.9659 22.6859 26.8337C22.6859 25.7014 21.768 24.7836 20.6358 24.7836H19.8728C19.6842 24.7836 19.5311 24.6306 19.5311 24.4419V22.3918C19.5311 22.2031 19.6841 22.0501 19.8728 22.0501H20.6358C21.7681 22.0501 22.6859 21.1322 22.686 20C22.686 18.8677 21.7681 17.9499 20.6359 17.9499H19.8729C19.6843 17.9499 19.5312 17.797 19.5312 17.6082V15.5581C19.5312 15.3695 19.6842 15.2164 19.8729 15.2164H20.6359C21.7682 15.2164 22.686 14.2985 22.686 13.1663C22.686 12.0341 21.7681 11.1163 20.6359 11.1163H20.4538C19.9443 11.1163 19.5312 10.7032 19.5313 10.1937C19.5313 9.68414 19.9443 9.2711 20.4539 9.2711H37.6802C37.7537 9.2711 37.8133 9.3307 37.8133 9.40422V10.0228C37.8133 11.1551 38.7312 12.0729 39.8634 12.0729H39.8648C39.9392 12.0728 40.0001 12.1316 40.0001 12.2059V27.794C40.0001 27.8684 39.9392 27.927 39.8648 27.927C39.8643 27.927 39.8639 27.927 39.8634 27.927C38.7311 27.927 37.8133 28.8449 37.8133 29.9771L37.8132 30.7289Z" fill="#FFC14F"/>
<path d="M36.4844 20C36.4844 20.3236 36.222 20.5859 35.8984 20.5859H26.403C26.0794 20.5859 25.817 20.3236 25.817 20C25.817 19.6764 26.0794 19.4141 26.403 19.4141H35.8984C36.222 19.4141 36.4844 19.6764 36.4844 20ZM35.8984 21.7693H26.403C26.0794 21.7693 25.817 22.0316 25.817 22.3552C25.817 22.6788 26.0794 22.9412 26.403 22.9412H35.8984C36.222 22.9412 36.4844 22.6788 36.4844 22.3552C36.4844 22.0316 36.222 21.7693 35.8984 21.7693ZM35.8984 24.1246H26.403C26.0794 24.1246 25.817 24.387 25.817 24.7105C25.817 25.0341 26.0794 25.2965 26.403 25.2965H35.8984C36.222 25.2965 36.4844 25.0341 36.4844 24.7105C36.4844 24.387 36.222 24.1246 35.8984 24.1246ZM35.8984 17.0587H26.403C26.0794 17.0587 25.817 17.3211 25.817 17.6447C25.817 17.9683 26.0794 18.2306 26.403 18.2306H35.8984C36.222 18.2306 36.4844 17.9683 36.4844 17.6447C36.4844 17.3211 36.222 17.0587 35.8984 17.0587ZM35.8984 14.7035H26.403C26.0794 14.7035 25.817 14.9659 25.817 15.2895C25.817 15.613 26.0794 15.8754 26.403 15.8754H35.8984C36.222 15.8754 36.4844 15.613 36.4844 15.2895C36.4844 14.9659 36.222 14.7035 35.8984 14.7035ZM8.10711 14.7035H0.708828C0.603047 15.0896 0.508594 15.4804 0.425781 15.8754H8.10711C8.4307 15.8754 8.69305 15.613 8.69305 15.2895C8.69305 14.9659 8.4307 14.7035 8.10711 14.7035ZM8.10711 21.7693H0.0771875C0.111719 22.1633 0.157656 22.5541 0.214766 22.9412H8.10711C8.4307 22.9412 8.69305 22.6788 8.69305 22.3552C8.69305 22.0316 8.4307 21.7693 8.10711 21.7693ZM8.10711 24.1246H0.425781C0.508594 24.5196 0.603047 24.9104 0.708828 25.2965H8.10711C8.4307 25.2965 8.69305 25.0341 8.69305 24.7105C8.69305 24.387 8.4307 24.1246 8.10711 24.1246ZM8.10711 17.0587H0.214766C0.157734 17.4459 0.111719 17.8366 0.0771875 18.2306H8.10711C8.4307 18.2306 8.69305 17.9683 8.69305 17.6447C8.69305 17.3211 8.4307 17.0587 8.10711 17.0587ZM8.10711 19.4141H0.0084375C0.0028125 19.6087 0 19.804 0 20C0 20.196 0.0028125 20.3913 0.0084375 20.5859H8.10711C8.4307 20.5859 8.69305 20.3236 8.69305 20C8.69305 19.6764 8.4307 19.4141 8.10711 19.4141Z" fill="#FF9F22"/>
<path d="M40 28.9062C40 32.358 37.2018 35.1562 33.75 35.1562C30.2982 35.1562 27.5 32.358 27.5 28.9062C27.5 25.4545 30.2982 22.6562 33.75 22.6562C37.2018 22.6562 40 25.4545 40 28.9062Z" fill="url(#paint0_linear_8181_19940)"/>
<path d="M37.7285 28.1938L36.4032 29.5567C36.2792 29.6842 36.2221 29.8624 36.2492 30.0382L36.5378 31.9171C36.6075 32.3704 36.1383 32.7146 35.7269 32.5121L34.0212 31.6728C33.8617 31.5943 33.6745 31.5952 33.5157 31.6752L31.8179 32.5303C31.4084 32.7367 30.9361 32.3968 31.0014 31.9429L31.2725 30.0613C31.2979 29.8853 31.2393 29.7076 31.1141 29.5813L29.7761 28.2309C29.4534 27.9051 29.6306 27.3509 30.0825 27.2728L31.9557 26.9492C32.131 26.919 32.2819 26.8082 32.3633 26.6502L33.2342 24.9604C33.4443 24.5528 34.0261 24.5501 34.24 24.9557L35.1267 26.6373C35.2096 26.7946 35.3615 26.9039 35.5371 26.9325L37.4132 27.2386C37.8657 27.3125 38.0482 27.8651 37.7285 28.1938Z" fill="#FFE7C0"/>
<path d="M28.0159 18.4701L28.6619 19.6513C28.6906 19.7038 28.7337 19.7469 28.7861 19.7755L29.9674 20.4216C30.1841 20.5401 30.1841 20.8514 29.9674 20.9699L28.7861 21.6159C28.7337 21.6446 28.6906 21.6877 28.6619 21.7402L28.0159 22.9214C27.8974 23.1381 27.5861 23.1381 27.4675 22.9214L26.8215 21.7402C26.7929 21.6877 26.7497 21.6446 26.6973 21.6159L25.5161 20.9699C25.2993 20.8514 25.2993 20.5401 25.5161 20.4216L26.6973 19.7755C26.7497 19.7469 26.7929 19.7038 26.8215 19.6513L27.4675 18.4701C27.5861 18.2534 27.8974 18.2534 28.0159 18.4701Z" fill="#FFF36C"/>
<path d="M33.0836 18.8653L32.3441 16.6467C32.3052 16.5301 32.2137 16.4385 32.0971 16.3997L29.8785 15.6602C29.5223 15.5414 29.5223 15.0378 29.8785 14.919L32.0971 14.1795C32.2137 14.1406 32.3053 14.0491 32.3441 13.9324L33.0836 11.7138C33.2023 11.3578 33.706 11.3578 33.8248 11.7138L34.5643 13.9324C34.6032 14.0491 34.6947 14.1406 34.8113 14.1795L37.0299 14.919C37.386 15.0378 37.386 15.5414 37.0299 15.6602L34.8113 16.3997C34.6947 16.4386 34.6031 16.5301 34.5643 16.6467L33.8248 18.8653C33.706 19.2214 33.2024 19.2214 33.0836 18.8653Z" fill="#FFF68E"/>
<path d="M22.6674 3.12365L23.1638 4.03123C23.1785 4.05811 23.2006 4.08021 23.2275 4.09498L24.135 4.59131C24.2462 4.65209 24.2462 4.81186 24.135 4.87264L23.2275 5.36896C23.2006 5.38365 23.1785 5.40576 23.1638 5.43271L22.6674 6.34021C22.6067 6.45139 22.4469 6.45139 22.3861 6.34021L21.8898 5.43271C21.8751 5.40584 21.853 5.38373 21.826 5.36896L20.9185 4.87264C20.8073 4.81186 20.8073 4.65209 20.9185 4.59131L21.826 4.09498C21.8528 4.08029 21.8749 4.05818 21.8897 4.03123L22.386 3.12373C22.4469 3.01248 22.6067 3.01248 22.6674 3.12365ZM15.1409 33.5479L15.6372 34.4554C15.6519 34.4823 15.674 34.5044 15.701 34.5192L16.6085 35.0155C16.7196 35.0763 16.7196 35.2361 16.6085 35.2969L15.701 35.7932C15.6741 35.8079 15.652 35.83 15.6372 35.8569L15.1409 36.7644C15.0801 36.8756 14.9203 36.8756 14.8596 36.7644L14.3632 35.8569C14.3485 35.8301 14.3264 35.8079 14.2995 35.7932L13.392 35.2969C13.2808 35.2361 13.2808 35.0763 13.392 35.0155L14.2995 34.5192C14.3263 34.5045 14.3485 34.4824 14.3632 34.4554L14.8596 33.5479C14.9203 33.4368 15.08 33.4368 15.1409 33.5479Z" fill="#DEF4F8"/>
<defs>
<linearGradient id="paint0_linear_8181_19940" x1="39.4391" y1="23.6979" x2="27.627" y2="23.8217" gradientUnits="userSpaceOnUse">
<stop stop-color="#DB0007"/>
<stop offset="0.850099" stop-color="#EF6A0A"/>
<stop offset="1" stop-color="#FF810D"/>
</linearGradient>
</defs>
</svg>
