<svg width="36" height="36" viewBox="0 0 36 36" fill="none" xmlns="http://www.w3.org/2000/svg">
<ellipse cx="17.544" cy="17.6468" rx="17.5147" ry="17.6468" fill="white"/>
<path d="M19.8109 7.84418C19.653 7.81575 18.8919 7.68694 18 7.68694C17.1081 7.68694 16.347 7.81515 16.1891 7.84418C16.0985 7.86051 16.0637 7.771 16.1327 7.71899C16.1951 7.67243 17.9994 6.28877 17.9994 6.28877C17.9994 6.28877 19.8043 7.67303 19.8655 7.71899C19.9357 7.771 19.9015 7.86051 19.8109 7.84418ZM16.6933 16.8283C16.6933 16.8283 16.5979 16.8628 16.5727 16.9474C16.9508 17.2401 17.2113 17.906 18 17.906C18.7887 17.906 19.0492 17.2401 19.4267 16.9474C19.4021 16.8622 19.3067 16.8283 19.3067 16.8283C19.3067 16.8283 18.8127 16.9456 18 16.9456C17.1873 16.9456 16.6933 16.8283 16.6933 16.8283ZM18 15.7077C17.7809 15.7077 17.7329 15.6243 17.5834 15.6249C17.4412 15.6255 17.1651 15.7398 17.1051 15.8444C17.1093 15.8976 17.1285 15.9454 17.1669 15.9877C17.4862 16.0361 17.6303 16.2151 18.0006 16.2151C18.3709 16.2151 18.5144 16.0361 18.8343 15.9877C18.8715 15.9454 18.8919 15.8982 18.8961 15.8444C18.8367 15.7398 18.56 15.6261 18.4172 15.6249C18.2671 15.6236 18.2185 15.7077 18 15.7077ZM35.9802 19.1384C35.9574 19.572 35.919 20.002 35.8661 20.4272C33.8278 20.767 33.0991 18.9371 31.011 19.029C31.1358 19.4753 31.2373 19.9301 31.3153 20.3945C33.0373 20.3933 33.7312 22.0152 35.6471 21.7763C35.5462 22.2722 35.425 22.7615 35.2851 23.2435C33.7702 23.3934 33.2366 21.8767 31.4833 21.9185C31.4977 22.17 31.5056 22.424 31.5056 22.6804C31.5056 22.822 31.5026 22.9641 31.4983 23.1044C32.9929 23.0868 33.4791 24.479 34.9028 24.413C34.7245 24.9011 34.5253 25.3782 34.308 25.8457C33.2846 25.7888 32.9317 24.4663 31.3747 24.5715C31.3279 24.9108 31.2685 25.2458 31.1976 25.5766C32.5499 25.481 32.841 26.7353 33.8098 26.8369C33.5631 27.2904 33.2972 27.7319 33.0145 28.1619C32.4407 27.8522 31.9431 26.9179 30.8549 26.8605C30.9666 26.5133 31.0644 26.1614 31.1472 25.8034C30.1821 25.8034 29.0783 25.4242 28.1527 24.5751C28.4528 22.854 25.8017 21.1014 25.8017 19.8412C25.8017 18.472 26.4889 17.7143 26.4889 15.8686C26.4889 14.4988 25.8287 13.013 24.8329 11.9976C24.6402 11.8004 24.4428 11.6408 24.2159 11.4975C25.1306 12.638 25.8329 13.9902 25.8329 15.5565C25.8329 17.2946 25.0304 18.212 25.0304 19.8164C25.0304 21.4201 27.3592 22.808 27.3592 24.462C27.3592 25.1127 27.1528 25.7483 26.4721 26.9965C27.5177 28.0488 28.8796 28.6227 29.7583 28.6227C30.0434 28.6227 30.1965 28.535 30.2985 28.3094C30.3861 28.1147 30.4696 27.9176 30.5482 27.7186C31.4947 27.7555 31.9281 28.6221 32.4521 28.968C32.1646 29.3569 31.8627 29.7324 31.5464 30.0959C31.1952 29.704 30.7235 29.0448 30.0326 28.8616C29.909 29.1035 29.7781 29.3423 29.6407 29.5764C30.2355 29.7397 30.6424 30.3444 30.9576 30.7423C30.6178 31.0967 30.2643 31.4366 29.8964 31.7631C29.6665 31.4027 29.3087 30.9455 28.9078 30.6988C28.7595 30.9008 28.6053 31.0979 28.4462 31.2896C28.7872 31.5225 29.0879 31.9415 29.2841 32.2832C28.8592 32.6267 28.4198 32.9527 27.9649 33.2575C27.7404 31.4148 25.2441 30.1521 25.9169 28.0143C25.696 28.3911 25.4325 28.8622 25.4325 29.4294C25.4325 30.977 27.0687 32.2052 27.199 33.7431C26.8598 33.9475 26.5129 34.1398 26.1594 34.3218C26.1006 32.6316 24.3683 30.7816 24.3683 29.3943C24.3683 27.8456 26.3815 26.2902 26.3815 24.462C26.3815 22.6327 24.0586 21.3663 24.0586 19.7601C24.0586 18.1551 25.0466 17.2317 25.0466 15.1743C25.0466 13.6673 24.3359 12.1421 23.2381 11.1679C23.0436 10.9949 22.8522 10.8576 22.6223 10.7373C23.6577 11.9885 24.2579 13.1236 24.2579 14.8459C24.2579 16.7805 23.1259 17.8546 23.1259 19.7486C23.1259 21.6433 25.4055 22.6968 25.4055 24.4626C25.4055 26.2285 23.2837 27.7168 23.2837 29.531C23.2837 31.1814 25.154 32.8287 25.1816 34.7869C24.7729 34.9665 24.3563 35.1304 23.9326 35.2791C24.1703 33.301 22.0653 31.2606 22.0653 29.6465C22.0653 27.8819 24.2663 26.3652 24.2663 24.4626C24.2663 22.5589 22.0287 21.6741 22.0287 19.7202C22.0287 17.7675 23.4014 16.6862 23.4014 14.5284C23.4014 12.8466 22.5773 11.3342 21.3732 10.3968C21.3474 10.3769 21.3222 10.3581 21.297 10.3388C21.1836 10.2541 21.0899 10.3563 21.1704 10.4567C22.0227 11.5289 22.4782 12.6132 22.4782 14.2188C22.4782 16.1927 20.9015 17.7965 20.9015 19.7087C20.9015 21.9656 23.019 22.6109 23.019 24.4626C23.019 26.3138 20.7484 27.7948 20.7484 29.7602C20.7484 31.5829 22.8972 33.6058 22.5287 35.7097C22.0977 35.8222 21.6607 35.9202 21.2172 36C21.6205 33.3802 19.5126 31.4989 19.5126 29.785C19.5126 27.9296 21.8642 26.2757 21.8642 24.4626C21.8642 22.7524 20.1764 22.1936 19.9543 20.4441C19.9237 20.2052 19.7334 20.028 19.4711 20.0722C19.1284 20.1351 18.6891 20.3624 17.9988 20.3624C17.3085 20.3624 16.8692 20.1345 16.5259 20.0722C16.2642 20.0286 16.0739 20.2058 16.0433 20.4441C15.8218 22.1936 14.1328 22.7518 14.1328 24.4626C14.1328 26.2757 16.485 27.929 16.485 29.785C16.485 31.4989 14.3771 33.3802 14.7798 36C14.3369 35.9196 13.8993 35.8216 13.4683 35.7097C13.0998 33.6058 15.2492 31.5829 15.2492 29.7602C15.2492 27.7948 12.978 26.3138 12.978 24.4626C12.978 22.6109 15.0961 21.9656 15.0961 19.7087C15.0961 17.7965 13.5188 16.1933 13.5188 14.2188C13.5188 12.6138 13.9743 11.5295 14.8272 10.4567C14.9071 10.3563 14.814 10.2541 14.7 10.3388C14.6748 10.3575 14.6496 10.3769 14.6244 10.3968C13.4215 11.3318 12.598 12.8442 12.598 14.526C12.598 16.6838 13.9707 17.7651 13.9707 19.7178C13.9707 21.6711 11.7331 22.5559 11.7331 24.4602C11.7331 26.3627 13.9341 27.8795 13.9341 29.6441C13.9341 31.2588 11.8291 33.2986 12.0674 35.2767C11.6431 35.128 11.2265 34.9635 10.8178 34.7845C10.846 32.8263 12.7151 31.1784 12.7151 29.5286C12.7151 27.7144 10.5945 26.2261 10.5945 24.4602C10.5945 22.6944 12.8729 21.6409 12.8729 19.7462C12.8729 17.8521 11.7415 16.7781 11.7415 14.8435C11.7415 13.1212 12.3411 11.9861 13.3765 10.7349C13.146 10.8552 12.9551 10.9925 12.7613 11.1655C11.6635 12.1397 10.9534 13.6649 10.9534 15.1719C10.9534 17.2293 11.9414 18.1527 11.9414 19.7577C11.9414 21.3639 9.61853 22.6302 9.61853 24.4596C9.61853 26.2878 11.6317 27.8438 11.6317 29.3919C11.6317 30.7798 9.89823 32.6297 9.84001 34.3194C9.48648 34.1374 9.13955 33.9451 8.80043 33.7407C8.93128 32.2028 10.5669 30.9746 10.5669 29.427C10.5669 28.8598 10.304 28.3887 10.0825 28.0119C10.7553 30.1497 8.25903 31.4124 8.03455 33.2551C7.57958 32.9503 7.13962 32.6243 6.71526 32.2808C6.91093 31.9397 7.21164 31.52 7.55317 31.2872C7.39351 31.0961 7.23985 30.8984 7.0916 30.6964C6.69005 30.9431 6.33172 31.4003 6.10244 31.7607C5.7357 31.4348 5.38157 31.0943 5.04185 30.7399C5.35696 30.342 5.76391 29.7372 6.35873 29.574C6.22128 29.3399 6.09043 29.1017 5.96679 28.8591C5.27593 29.0424 4.80356 29.7016 4.45303 30.0934C4.13672 29.7294 3.83421 29.3538 3.5473 28.9656C4.07129 28.6197 4.50465 27.7525 5.4506 27.7162C5.52983 27.9145 5.61326 28.1117 5.70089 28.307C5.80293 28.5326 5.95658 28.6203 6.24109 28.6203C7.11981 28.6203 8.48111 28.0464 9.52729 26.9941C8.84664 25.7459 8.64017 25.1103 8.64017 24.4596C8.64017 22.8062 10.969 21.4183 10.969 19.8139C10.969 18.2095 10.1665 17.2921 10.1665 15.5541C10.1665 13.9878 10.8688 12.6356 11.7835 11.495C11.5566 11.6384 11.3592 11.798 11.1665 11.9952C10.1707 13.0111 9.51049 14.4964 9.51049 15.8661C9.51049 17.7118 10.1983 18.4696 10.1983 19.8387C10.1983 21.099 7.54657 22.8516 7.84668 24.5727C6.92114 25.4218 5.81733 25.8009 4.85158 25.8009C4.93561 26.1589 5.03345 26.5109 5.14389 26.858C4.05629 26.9161 3.5587 27.8504 2.98429 28.1595C2.70099 27.7295 2.43569 27.288 2.189 26.8344C3.15716 26.7329 3.44886 25.4786 4.80176 25.5742C4.73093 25.2434 4.67091 24.9077 4.6241 24.5691C3.06712 24.4638 2.7142 25.787 1.69082 25.8433C1.47354 25.3758 1.27427 24.8987 1.096 24.4106C2.52032 24.4765 3.0059 23.0844 4.50105 23.102C4.49685 22.9617 4.49385 22.8195 4.49385 22.678C4.49385 22.4216 4.50165 22.1676 4.51546 21.916C2.76221 21.8749 2.22862 23.391 0.713662 23.241C0.574411 22.7591 0.452566 22.2704 0.352329 21.7739C2.26703 22.0128 2.96149 20.3909 4.68412 20.3921C4.76215 19.9276 4.86358 19.4729 4.98783 19.0266C2.89966 18.9352 2.171 20.7652 0.133249 20.4247C0.0798293 19.9996 0.0420154 19.5696 0.019207 19.136C2.38828 19.4027 3.2766 17.4403 5.43379 17.6804C5.63727 17.1609 5.87375 16.6584 6.14025 16.1746C3.43566 15.6956 2.51732 17.9743 0 17.6242C0.2719 7.84478 8.22662 0 18 0C27.7734 0 35.7281 7.84478 36 17.6266C33.4821 17.9767 32.5637 15.6986 29.8597 16.177C30.1256 16.6608 30.3621 17.1633 30.5662 17.6828C32.7222 17.4421 33.6105 19.4051 35.9802 19.1384ZM10.2596 11.5289C8.93368 10.9828 7.32869 11.1086 5.95779 11.9958C5.74531 10.7107 5.05325 9.56892 4.06769 8.88011C3.93144 8.78516 3.78979 8.87527 3.80239 9.03432C4.01067 11.7496 2.43509 14.1075 0.497582 16.18C2.49451 16.7848 4.19434 14.194 6.78429 15.0981C7.71343 13.7042 8.89346 12.4929 10.2596 11.5289ZM18 9.88641C16.3284 9.88641 14.9281 10.8389 14.5613 12.0695C14.5331 12.1639 14.5715 12.225 14.6796 12.176C14.9803 12.0399 15.3224 11.9746 15.694 11.9746C16.3758 11.9746 16.9766 12.2268 17.332 12.6658C17.4892 13.1883 17.5024 13.9449 17.3248 14.3767C17.0438 14.3132 16.943 14.0942 16.6687 14.0942C16.3944 14.0942 16.1819 14.2884 15.7168 14.2884C15.2522 14.2884 15.1976 14.067 14.8921 14.067C14.5325 14.067 14.4665 14.4402 14.4665 14.8611C14.4665 16.7376 16.1783 19.3199 17.9994 19.3199C19.8199 19.3199 21.5317 16.7376 21.5317 14.8611C21.5317 14.4402 21.4459 14.0797 21.0701 14.0307C20.8829 14.1668 20.7106 14.2884 20.282 14.2884C19.8169 14.2884 19.6884 14.0942 19.4147 14.0942C19.084 14.0942 19.117 14.797 18.7245 14.8363C18.4628 14.2025 18.4502 13.3897 18.6674 12.6658C19.0234 12.2268 19.6236 11.9746 20.3054 11.9746C20.677 11.9746 21.0215 12.0405 21.3192 12.176C21.4279 12.225 21.4657 12.1633 21.4375 12.0695C21.0713 10.8389 19.6716 9.88641 18 9.88641ZM20.6614 12.5787C20.2604 12.5787 19.7905 12.7027 19.4951 13.0341C19.4645 13.1242 19.4645 13.2585 19.5078 13.348C20.2346 13.097 20.8757 13.0873 21.1854 13.4363C21.3504 13.2851 21.4032 13.149 21.4032 12.9912C21.4032 12.7475 21.1572 12.5787 20.6614 12.5787ZM14.8146 13.4363C15.1652 13.0825 15.904 13.0976 16.6717 13.3831C16.7053 12.9984 16.0217 12.5781 15.3386 12.5781C14.8422 12.5781 14.5968 12.7469 14.5968 12.9912C14.5968 13.149 14.6496 13.2857 14.8146 13.4363ZM26.3353 7.08401C25.0154 7.17896 23.869 7.63554 22.9416 8.39631C23.3354 7.27148 23.8353 6.28756 24.4692 5.33387C22.7886 5.51348 21.3834 6.13274 20.3583 7.19105L19.5558 5.07141L21.3372 3.48637L18.9519 3.31643L18 1.08129L17.0475 3.31643L14.6622 3.48637L16.4436 5.07141L15.6417 7.19105C14.616 6.13274 13.2108 5.51348 11.5314 5.33387C12.1641 6.28816 12.664 7.27209 13.0578 8.39631C12.131 7.63493 10.9846 7.17835 9.66474 7.08401C10.4564 8.10966 11.1581 9.20304 11.6779 10.3787C11.7367 10.5111 11.8628 10.5547 11.999 10.4863C13.8069 9.58101 15.844 9.07181 17.9994 9.07181C20.1548 9.07181 22.1913 9.58162 24.0004 10.4863C24.1367 10.5547 24.2627 10.5111 24.3209 10.3787C24.8413 9.20304 25.543 8.10966 26.3353 7.08401ZM29.2169 15.0993C31.8057 14.1952 33.5061 16.7854 35.503 16.1812C33.5655 14.1088 31.9905 11.7508 32.1988 9.03553C32.2114 8.87648 32.0692 8.78577 31.9335 8.88132C30.9473 9.57013 30.2553 10.7119 30.0434 11.997C28.6719 11.1098 27.0675 10.9834 25.7416 11.5301C27.1059 12.4929 28.2866 13.7042 29.2169 15.0993Z" fill="#006341"/>
</svg>
