<svg width="33" height="35" viewBox="0 0 33 35" fill="none" xmlns="http://www.w3.org/2000/svg">
<path d="M21.4009 22H2.90088C2.49088 22 2.15088 21.66 2.15088 21.25C2.15088 20.84 2.49088 20.5 2.90088 20.5H21.4009C21.8109 20.5 22.1509 20.84 22.1509 21.25C22.1509 21.66 21.8109 22 21.4009 22Z" fill="url(#paint0_linear_8093_17378)"/>
<path d="M20.6514 8.40622L7.94043 20.4922L2.86094 15.42C1.45094 14.01 1.45094 11.72 2.87094 10.3L10.1009 3.07001C11.5209 1.65001 13.8109 1.65001 15.2209 3.06001L20.6514 8.40622Z" fill="url(#paint1_linear_8093_17378)"/>
<g filter="url(#filter0_b_8093_17378)">
<path d="M20.7408 13.7L13.5108 20.93C12.0908 22.35 9.80076 22.35 8.39076 20.94L3.78076 16.33L16.1408 3.96997L20.7508 8.57997C22.1608 9.98997 22.1608 12.28 20.7408 13.7Z" fill="#FFCBB9" fill-opacity="0.35"/>
</g>
<g filter="url(#filter1_bd_8093_17378)">
<path d="M13.0409 17.6L11.6909 18.95C11.4109 19.23 10.9609 19.23 10.6809 18.95C10.4009 18.67 10.4009 18.22 10.6809 17.94L12.0309 16.59C12.3109 16.31 12.7609 16.31 13.0409 16.59C13.3209 16.87 13.3209 17.32 13.0409 17.6Z" fill="url(#paint2_linear_8093_17378)"/>
<path d="M12.8995 17.4586L11.5495 18.8086C11.3476 19.0105 11.0243 19.0105 10.8224 18.8086C10.6205 18.6067 10.6205 18.2833 10.8224 18.0814L12.1724 16.7314C12.3743 16.5295 12.6976 16.5295 12.8995 16.7314C13.1014 16.9333 13.1014 17.2567 12.8995 17.4586Z" stroke="url(#paint3_linear_8093_17378)" stroke-width="0.4"/>
</g>
<g filter="url(#filter2_bd_8093_17378)">
<path d="M17.421 13.22L14.731 15.91C14.451 16.19 14.001 16.19 13.721 15.91C13.441 15.63 13.441 15.18 13.721 14.9L16.411 12.21C16.691 11.93 17.141 11.93 17.421 12.21C17.691 12.49 17.691 12.94 17.421 13.22Z" fill="url(#paint4_linear_8093_17378)"/>
<path d="M17.2782 13.08L14.5896 15.7686C14.3877 15.9705 14.0643 15.9705 13.8624 15.7686C13.6605 15.5667 13.6605 15.2433 13.8624 15.0414L16.5524 12.3514C16.7539 12.15 17.0763 12.1495 17.2783 12.3501C17.4719 12.5524 17.4719 12.8778 17.2782 13.08Z" stroke="url(#paint5_linear_8093_17378)" stroke-width="0.4"/>
</g>
<defs>
<filter id="filter0_b_8093_17378" x="-6.21924" y="-6.03003" width="38.0264" height="38.0262" filterUnits="userSpaceOnUse" color-interpolation-filters="sRGB">
<feFlood flood-opacity="0" result="BackgroundImageFix"/>
<feGaussianBlur in="BackgroundImage" stdDeviation="5"/>
<feComposite in2="SourceAlpha" operator="in" result="effect1_backgroundBlur_8093_17378"/>
<feBlend mode="normal" in="SourceGraphic" in2="effect1_backgroundBlur_8093_17378" result="shape"/>
</filter>
<filter id="filter1_bd_8093_17378" x="-4.52905" y="1.38" width="32.78" height="32.78" filterUnits="userSpaceOnUse" color-interpolation-filters="sRGB">
<feFlood flood-opacity="0" result="BackgroundImageFix"/>
<feGaussianBlur in="BackgroundImage" stdDeviation="7.5"/>
<feComposite in2="SourceAlpha" operator="in" result="effect1_backgroundBlur_8093_17378"/>
<feColorMatrix in="SourceAlpha" type="matrix" values="0 0 0 0 0 0 0 0 0 0 0 0 0 0 0 0 0 0 127 0" result="hardAlpha"/>
<feOffset dx="5" dy="5"/>
<feGaussianBlur stdDeviation="5"/>
<feColorMatrix type="matrix" values="0 0 0 0 1 0 0 0 0 0.580392 0 0 0 0 0.247059 0 0 0 0.5 0"/>
<feBlend mode="normal" in2="effect1_backgroundBlur_8093_17378" result="effect2_dropShadow_8093_17378"/>
<feBlend mode="normal" in="SourceGraphic" in2="effect2_dropShadow_8093_17378" result="shape"/>
</filter>
<filter id="filter2_bd_8093_17378" x="-1.48901" y="-3" width="34.1125" height="34.12" filterUnits="userSpaceOnUse" color-interpolation-filters="sRGB">
<feFlood flood-opacity="0" result="BackgroundImageFix"/>
<feGaussianBlur in="BackgroundImage" stdDeviation="7.5"/>
<feComposite in2="SourceAlpha" operator="in" result="effect1_backgroundBlur_8093_17378"/>
<feColorMatrix in="SourceAlpha" type="matrix" values="0 0 0 0 0 0 0 0 0 0 0 0 0 0 0 0 0 0 127 0" result="hardAlpha"/>
<feOffset dx="5" dy="5"/>
<feGaussianBlur stdDeviation="5"/>
<feColorMatrix type="matrix" values="0 0 0 0 1 0 0 0 0 0.580392 0 0 0 0 0.247059 0 0 0 0.5 0"/>
<feBlend mode="normal" in2="effect1_backgroundBlur_8093_17378" result="effect2_dropShadow_8093_17378"/>
<feBlend mode="normal" in="SourceGraphic" in2="effect2_dropShadow_8093_17378" result="shape"/>
</filter>
<linearGradient id="paint0_linear_8093_17378" x1="13.9009" y1="21.25" x2="3.15088" y2="21.25" gradientUnits="userSpaceOnUse">
<stop stop-color="#FF7F7F"/>
<stop offset="1" stop-color="#FF0D0D"/>
</linearGradient>
<linearGradient id="paint1_linear_8093_17378" x1="10.1791" y1="1.99455" x2="10.1791" y2="20.483" gradientUnits="userSpaceOnUse">
<stop stop-color="#FF7F7F"/>
<stop offset="1" stop-color="#FF0D0D"/>
</linearGradient>
<linearGradient id="paint2_linear_8093_17378" x1="13.0538" y1="16.882" x2="9.95719" y2="16.983" gradientUnits="userSpaceOnUse">
<stop stop-color="white"/>
<stop offset="1" stop-color="white" stop-opacity="0.2"/>
</linearGradient>
<linearGradient id="paint3_linear_8093_17378" x1="10.9135" y1="16.7039" x2="12.6868" y2="18.9002" gradientUnits="userSpaceOnUse">
<stop stop-color="white" stop-opacity="0.25"/>
<stop offset="1" stop-color="white" stop-opacity="0"/>
</linearGradient>
<linearGradient id="paint4_linear_8093_17378" x1="17.3319" y1="12.744" x2="12.751" y2="12.8931" gradientUnits="userSpaceOnUse">
<stop stop-color="white"/>
<stop offset="1" stop-color="white" stop-opacity="0.2"/>
</linearGradient>
<linearGradient id="paint5_linear_8093_17378" x1="14.1656" y1="12.48" x2="16.7948" y2="15.7303" gradientUnits="userSpaceOnUse">
<stop stop-color="white" stop-opacity="0.25"/>
<stop offset="1" stop-color="white" stop-opacity="0"/>
</linearGradient>
</defs>
</svg>
